<svg width="37" height="11" viewBox="0 0 37 11" fill="none" xmlns="http://www.w3.org/2000/svg">
<path d="M6.38867 7.84814H2.80859L2.05957 10H0.390137L3.88135 0.757812H5.32227L8.81982 10H7.14404L6.38867 7.84814ZM3.25928 6.55322H5.93799L4.59863 2.71924L3.25928 6.55322ZM12.5459 8.89551C12.931 8.89551 13.2505 8.78337 13.5044 8.55908C13.7583 8.3348 13.8937 8.05762 13.9106 7.72754H15.3643C15.3473 8.15495 15.214 8.55485 14.9644 8.92725C14.7147 9.29541 14.3761 9.5874 13.9487 9.80322C13.5213 10.019 13.0601 10.127 12.5649 10.127C11.6043 10.127 10.8426 9.81592 10.2798 9.19385C9.71696 8.57178 9.43555 7.71273 9.43555 6.6167V6.45801C9.43555 5.41276 9.71484 4.57699 10.2734 3.95068C10.832 3.32015 11.5938 3.00488 12.5586 3.00488C13.3753 3.00488 14.0397 3.24398 14.5518 3.72217C15.068 4.19613 15.3389 4.82031 15.3643 5.59473H13.9106C13.8937 5.20117 13.7583 4.87744 13.5044 4.62354C13.2547 4.36963 12.9352 4.24268 12.5459 4.24268C12.0465 4.24268 11.6615 4.42464 11.3906 4.78857C11.1198 5.14827 10.9823 5.69629 10.978 6.43262V6.68018C10.978 7.42497 11.1113 7.98145 11.3779 8.34961C11.6488 8.71354 12.0381 8.89551 12.5459 8.89551ZM18.4619 1.4624V3.13184H19.6743V4.27441H18.4619V8.1084C18.4619 8.37077 18.5127 8.5612 18.6143 8.67969C18.7201 8.79395 18.9062 8.85107 19.1729 8.85107C19.3506 8.85107 19.5304 8.82992 19.7124 8.7876V9.98096C19.3612 10.0783 19.0226 10.127 18.6968 10.127C17.5119 10.127 16.9194 9.47314 16.9194 8.16553V4.27441H15.7896V3.13184H16.9194V1.4624H18.4619ZM22.499 10H20.9565V3.13184H22.499V10ZM20.8613 1.34814C20.8613 1.11117 20.9354 0.914388 21.0835 0.757812C21.2358 0.601237 21.4517 0.522949 21.731 0.522949C22.0103 0.522949 22.2261 0.601237 22.3784 0.757812C22.5308 0.914388 22.6069 1.11117 22.6069 1.34814C22.6069 1.58089 22.5308 1.77555 22.3784 1.93213C22.2261 2.08447 22.0103 2.16064 21.731 2.16064C21.4517 2.16064 21.2358 2.08447 21.0835 1.93213C20.9354 1.77555 20.8613 1.58089 20.8613 1.34814ZM26.606 8.04492L28.0596 3.13184H29.6528L27.2725 10H25.9331L23.5337 3.13184H25.1333L26.606 8.04492ZM33.5566 10.127C32.5791 10.127 31.7856 9.82015 31.1763 9.20654C30.5711 8.5887 30.2686 7.76774 30.2686 6.74365V6.55322C30.2686 5.86768 30.3997 5.25618 30.6621 4.71875C30.9287 4.17708 31.3011 3.75602 31.7793 3.45557C32.2575 3.15511 32.7907 3.00488 33.3789 3.00488C34.3141 3.00488 35.0356 3.30322 35.5435 3.8999C36.0555 4.49658 36.3115 5.34082 36.3115 6.43262V7.05469H31.8237C31.8703 7.62174 32.0586 8.07031 32.3887 8.40039C32.723 8.73047 33.1419 8.89551 33.6455 8.89551C34.3522 8.89551 34.9277 8.60986 35.3721 8.03857L36.2036 8.83203C35.9285 9.24251 35.5604 9.56201 35.0991 9.79053C34.6421 10.0148 34.1279 10.127 33.5566 10.127ZM33.3726 4.24268C32.9494 4.24268 32.6066 4.39079 32.3442 4.68701C32.0861 4.98324 31.9211 5.39583 31.8491 5.9248H34.7881V5.81055C34.7542 5.29427 34.6167 4.90495 34.3755 4.64258C34.1343 4.37598 33.8 4.24268 33.3726 4.24268Z" fill="black"/>
</svg>
