<svg width="49" height="11" viewBox="0 0 49 11" fill="none" xmlns="http://www.w3.org/2000/svg">
<path d="M0.169434 10V0.757812H2.89893C3.71566 0.757812 4.43929 0.939779 5.06982 1.30371C5.70459 1.66764 6.19548 2.18392 6.54248 2.85254C6.88949 3.52116 7.06299 4.28711 7.06299 5.15039V5.61377C7.06299 6.48975 6.88737 7.25993 6.53613 7.92432C6.18913 8.5887 5.69189 9.10075 5.04443 9.46045C4.4012 9.82015 3.66276 10 2.8291 10H0.169434ZM1.77539 2.05273V8.71777H2.82275C3.66488 8.71777 4.31022 8.4554 4.75879 7.93066C5.21159 7.40169 5.44222 6.64421 5.45068 5.6582V5.14404C5.45068 4.14111 5.23275 3.37516 4.79688 2.84619C4.361 2.31722 3.72835 2.05273 2.89893 2.05273H1.77539ZM10.1543 10H8.61182V3.13184H10.1543V10ZM8.5166 1.34814C8.5166 1.11117 8.59066 0.914388 8.73877 0.757812C8.89111 0.601237 9.10693 0.522949 9.38623 0.522949C9.66553 0.522949 9.88135 0.601237 10.0337 0.757812C10.186 0.914388 10.2622 1.11117 10.2622 1.34814C10.2622 1.58089 10.186 1.77555 10.0337 1.93213C9.88135 2.08447 9.66553 2.16064 9.38623 2.16064C9.10693 2.16064 8.89111 2.08447 8.73877 1.93213C8.59066 1.77555 8.5166 1.58089 8.5166 1.34814ZM15.6895 8.13379C15.6895 7.85872 15.5752 7.64925 15.3467 7.50537C15.1224 7.36149 14.7479 7.23454 14.2231 7.12451C13.6984 7.01449 13.2604 6.87484 12.9092 6.70557C12.139 6.33317 11.7539 5.79362 11.7539 5.08691C11.7539 4.49447 12.0036 3.99935 12.5029 3.60156C13.0023 3.20378 13.637 3.00488 14.4072 3.00488C15.2282 3.00488 15.8905 3.20801 16.394 3.61426C16.9019 4.02051 17.1558 4.54736 17.1558 5.19482H15.6133C15.6133 4.8986 15.5033 4.65316 15.2832 4.4585C15.0632 4.2596 14.7712 4.16016 14.4072 4.16016C14.0687 4.16016 13.7915 4.23844 13.5757 4.39502C13.3641 4.5516 13.2583 4.76107 13.2583 5.02344C13.2583 5.26042 13.3577 5.4445 13.5566 5.57568C13.7555 5.70687 14.1576 5.84017 14.7627 5.97559C15.3678 6.10677 15.8418 6.26546 16.1846 6.45166C16.5316 6.63363 16.7876 6.85368 16.9526 7.11182C17.1219 7.36995 17.2065 7.68311 17.2065 8.05127C17.2065 8.66911 16.9505 9.17057 16.4385 9.55566C15.9264 9.93652 15.2557 10.127 14.4263 10.127C13.8634 10.127 13.362 10.0254 12.9219 9.82227C12.4818 9.61914 12.139 9.33984 11.8936 8.98438C11.6481 8.62891 11.5254 8.24593 11.5254 7.83545H13.0234C13.0446 8.19938 13.1821 8.48079 13.436 8.67969C13.6899 8.87435 14.0264 8.97168 14.4453 8.97168C14.8516 8.97168 15.1605 8.89551 15.3721 8.74316C15.5837 8.58659 15.6895 8.38346 15.6895 8.13379ZM22.6592 10C22.5915 9.86882 22.5322 9.65511 22.4814 9.35889C21.9906 9.87093 21.3896 10.127 20.6787 10.127C19.9889 10.127 19.4261 9.93018 18.9902 9.53662C18.5544 9.14307 18.3364 8.65641 18.3364 8.07666C18.3364 7.34456 18.6073 6.78385 19.1489 6.39453C19.6948 6.00098 20.4735 5.8042 21.4849 5.8042H22.4307V5.35352C22.4307 4.99805 22.3312 4.71452 22.1323 4.50293C21.9334 4.28711 21.6309 4.1792 21.2246 4.1792C20.8734 4.1792 20.5856 4.26807 20.3613 4.4458C20.137 4.6193 20.0249 4.84147 20.0249 5.1123H18.4824C18.4824 4.73568 18.6073 4.38444 18.8569 4.05859C19.1066 3.72852 19.4451 3.47038 19.8726 3.28418C20.3042 3.09798 20.7845 3.00488 21.3135 3.00488C22.1175 3.00488 22.7586 3.20801 23.2368 3.61426C23.715 4.01628 23.9604 4.58333 23.9731 5.31543V8.41309C23.9731 9.03092 24.0599 9.52393 24.2334 9.89209V10H22.6592ZM20.9644 8.88916C21.269 8.88916 21.5547 8.8151 21.8213 8.66699C22.0921 8.51888 22.2952 8.31999 22.4307 8.07031V6.77539H21.5991C21.0278 6.77539 20.5983 6.87484 20.3105 7.07373C20.0228 7.27262 19.8789 7.55404 19.8789 7.91797C19.8789 8.21419 19.9762 8.45117 20.1709 8.62891C20.3698 8.80241 20.6343 8.88916 20.9644 8.88916ZM31.6157 6.63574C31.6157 7.70215 31.3766 8.55062 30.8984 9.18115C30.4245 9.81169 29.7707 10.127 28.937 10.127C28.133 10.127 27.5067 9.83708 27.0581 9.25732L26.9819 10H25.5854V0.25H27.1279V3.79199C27.5723 3.26725 28.1711 3.00488 28.9243 3.00488C29.7622 3.00488 30.4202 3.31592 30.8984 3.93799C31.3766 4.56006 31.6157 5.42969 31.6157 6.54688V6.63574ZM30.0732 6.50244C30.0732 5.75765 29.9421 5.19906 29.6797 4.82666C29.4173 4.45426 29.0365 4.26807 28.5371 4.26807C27.8685 4.26807 27.3988 4.56006 27.1279 5.14404V7.9751C27.403 8.57178 27.877 8.87012 28.5498 8.87012C29.0322 8.87012 29.4046 8.69027 29.667 8.33057C29.9294 7.97087 30.0648 7.42708 30.0732 6.69922V6.50244ZM34.5547 10H33.0122V0.25H34.5547V10ZM39.2646 10.127C38.2871 10.127 37.4937 9.82015 36.8843 9.20654C36.2791 8.5887 35.9766 7.76774 35.9766 6.74365V6.55322C35.9766 5.86768 36.1077 5.25618 36.3701 4.71875C36.6367 4.17708 37.0091 3.75602 37.4873 3.45557C37.9655 3.15511 38.4987 3.00488 39.0869 3.00488C40.0221 3.00488 40.7437 3.30322 41.2515 3.8999C41.7635 4.49658 42.0195 5.34082 42.0195 6.43262V7.05469H37.5317C37.5783 7.62174 37.7666 8.07031 38.0967 8.40039C38.431 8.73047 38.8499 8.89551 39.3535 8.89551C40.0602 8.89551 40.6357 8.60986 41.0801 8.03857L41.9116 8.83203C41.6366 9.24251 41.2684 9.56201 40.8071 9.79053C40.3501 10.0148 39.8359 10.127 39.2646 10.127ZM39.0806 4.24268C38.6574 4.24268 38.3146 4.39079 38.0522 4.68701C37.7941 4.98324 37.6291 5.39583 37.5571 5.9248H40.4961V5.81055C40.4622 5.29427 40.3247 4.90495 40.0835 4.64258C39.8423 4.37598 39.508 4.24268 39.0806 4.24268ZM42.9336 6.51514C42.9336 5.45719 43.179 4.60872 43.6699 3.96973C44.1608 3.3265 44.8188 3.00488 45.644 3.00488C46.3719 3.00488 46.9601 3.25879 47.4087 3.7666V0.25H48.9512V10H47.5547L47.4785 9.28906C47.0173 9.84766 46.4015 10.127 45.6313 10.127C44.8273 10.127 44.1756 9.80322 43.6763 9.15576C43.1812 8.5083 42.9336 7.62809 42.9336 6.51514ZM44.4761 6.64844C44.4761 7.34668 44.6094 7.89258 44.876 8.28613C45.1468 8.67546 45.5298 8.87012 46.0249 8.87012C46.6554 8.87012 47.1167 8.5887 47.4087 8.02588V5.09326C47.1252 4.54313 46.6681 4.26807 46.0376 4.26807C45.5382 4.26807 45.1532 4.46696 44.8823 4.86475C44.6115 5.2583 44.4761 5.85286 44.4761 6.64844Z" fill="black"/>
</svg>
