<svg width="1190" height="595" viewBox="0 0 1190 595" fill="none" xmlns="http://www.w3.org/2000/svg">
<rect width="1190" height="595" fill="white"/>
<path d="M529.694 503.79C513.194 503.79 497.194 501.79 482.094 497.59C439.994 486.09 408.094 458.69 392.294 420.49C371.694 370.69 379.494 307.59 413.894 247.49C444.294 194.39 491.594 149.69 547.094 121.49C602.894 93.1895 660.194 84.8895 708.794 98.1895C750.894 109.69 782.794 137.09 798.594 175.29C819.194 225.19 811.294 288.19 776.994 348.39C746.694 401.49 699.294 446.19 643.794 474.39C605.394 493.79 566.194 503.79 529.694 503.79ZM661.394 98.3895C572.494 98.3895 471.494 159.49 419.394 250.69C385.994 308.99 378.294 370.09 398.194 418.09C413.194 454.49 443.694 480.49 483.794 491.49C498.394 495.49 513.694 497.39 529.494 497.39C618.394 497.39 719.394 436.29 771.494 345.09C804.894 286.69 812.594 225.69 792.794 177.59C777.794 141.19 747.294 115.19 707.194 104.19C692.494 100.29 677.094 98.3895 661.394 98.3895Z" fill="#414C9B"/>
<path d="M695.194 273.09H652.694L653.494 269.389C654.594 269.289 656.194 269.189 658.494 268.889C660.794 268.589 662.394 268.39 663.294 268.09C664.294 267.79 665.194 267.19 666.094 266.29C666.894 265.39 667.494 264.289 667.794 262.889L675.494 229.79H662.494L663.594 225.09H664.994C667.994 225.09 670.794 224.79 673.194 224.09C675.694 223.39 677.794 222.689 679.594 221.689C681.494 220.789 683.094 219.789 684.394 218.689C685.794 217.589 686.794 216.69 687.394 215.99H696.394C695.694 218.59 694.994 221.189 694.194 223.889C693.494 226.589 692.794 229.29 692.294 231.79L685.394 261.189C685.294 261.59 685.194 262.09 685.094 262.59C684.994 263.09 684.994 263.589 684.994 263.889C684.994 264.689 685.194 265.39 685.494 265.99C685.894 266.59 686.394 266.989 686.994 267.389C687.794 267.789 689.094 268.19 691.094 268.49C693.094 268.79 694.594 268.99 695.694 269.09L695.194 273.09Z" fill="#414C9B"/>
<path d="M761.094 272.59H749.594L745.094 292.09H728.094L732.694 272.59H698.294L700.594 262.59L747.894 216.29H762.694L751.994 261.89H763.494L761.094 272.59ZM735.094 261.89L742.794 228.79L708.994 261.89H735.094Z" fill="#414C9B"/>
<path d="M519.794 303.79C521.494 300.29 524.094 297.19 527.294 294.39C528.694 293.19 530.294 292.09 532.094 291.09L540.894 252.39C541.194 251.09 541.794 249.79 542.594 248.69C543.394 247.59 544.594 246.69 546.294 246.19C547.294 245.89 548.694 245.59 550.594 245.29C552.494 244.99 553.994 244.79 555.294 244.69L556.294 240.29H515.994C515.794 240.89 515.294 242.29 514.294 244.49C513.294 246.69 512.194 248.89 510.894 250.99L482.594 296.99L474.294 240.19H434.794L433.794 244.59C435.394 244.69 437.094 244.99 438.794 245.39C440.494 245.79 441.994 246.59 443.194 247.79C443.894 248.49 444.394 249.29 444.694 250.19C444.994 251.09 445.194 252.19 445.194 253.49C445.194 254.19 445.094 254.99 444.994 255.69C444.894 256.49 444.694 257.59 444.394 258.99L434.494 301.59C433.294 306.69 432.094 310.59 430.894 313.19C429.694 315.79 428.194 317.69 426.394 318.79C424.694 319.89 422.694 320.59 420.294 320.99C417.894 321.39 416.194 321.69 415.094 321.79L414.094 326.19H451.194L452.194 321.79C451.094 321.59 449.294 321.19 446.994 320.39C444.694 319.69 443.094 318.79 442.194 317.99C441.594 317.39 441.094 316.59 440.794 315.69C440.494 314.79 440.294 313.49 440.294 311.89C440.294 310.39 440.394 308.69 440.694 306.79C440.994 304.89 441.394 302.89 441.894 300.89L454.094 248.09H454.694L462.994 307.39C463.394 310.49 463.894 313.79 464.294 317.29C464.794 320.79 465.094 323.29 465.194 324.89H472.894L519.694 249.09H520.294L505.594 313.79C505.194 315.49 504.594 316.79 503.694 317.79C502.794 318.79 501.494 319.69 499.894 320.29C498.994 320.59 497.694 320.89 495.994 321.19C494.294 321.39 492.594 321.69 490.994 321.89L489.994 326.29H520.594C518.194 322.69 517.094 318.79 517.094 314.69C517.194 310.89 517.994 307.29 519.794 303.79Z" fill="#414C9B"/>
<path d="M575.394 348.59C573.394 350.89 571.694 352.89 570.394 354.79C569.094 356.59 567.994 358.39 566.994 359.89H562.294L567.994 335.19H578.694C578.294 334.49 577.794 333.89 577.294 333.19C574.594 329.89 570.894 327.19 566.194 325.29C563.694 324.19 561.094 323.19 558.294 322.19C555.594 321.19 552.894 320.19 550.394 319.29C546.094 317.69 542.994 315.79 540.994 313.59C538.994 311.39 537.994 308.89 537.994 305.89C537.994 301.69 539.594 298.19 542.994 295.49C546.294 292.69 550.394 291.39 555.394 291.39C558.994 291.39 561.994 292.09 564.494 293.49C566.994 294.89 569.094 296.79 570.894 299.09C572.594 301.49 573.994 304.29 574.994 307.29C575.994 310.29 576.794 313.59 577.294 316.99H582.494L588.794 287.59H583.494L578.894 291.19C576.694 289.89 573.294 288.59 568.694 287.19C564.094 285.79 559.394 285.09 554.694 285.09C549.094 285.09 543.894 285.89 539.194 287.59C536.594 288.49 534.194 289.59 532.094 290.79L527.194 312.39C527.094 312.99 526.994 313.59 526.794 314.19C526.694 314.79 526.594 315.29 526.594 315.69C526.594 317.49 527.294 318.89 528.794 319.69C530.294 320.59 533.194 321.19 537.594 321.59L536.594 325.99H520.594V326.09C522.994 329.79 526.594 332.59 531.294 334.59C533.694 335.59 536.194 336.59 538.894 337.59C541.594 338.59 544.294 339.49 547.094 340.59C551.594 342.19 554.794 344.19 556.794 346.39C558.794 348.69 559.794 351.29 559.794 354.29C559.794 358.99 557.994 362.69 554.494 365.59C550.994 368.49 546.294 369.89 540.394 369.89C536.394 369.89 532.794 368.99 529.694 367.29C526.594 365.59 523.994 363.39 521.994 360.69C519.894 358.09 518.294 355.19 516.994 351.99C515.694 348.69 514.794 345.59 514.294 342.49H509.094L502.694 373.69H507.894L513.094 369.39C516.694 371.39 520.994 373.09 525.794 374.19C530.594 375.39 535.494 375.99 540.194 375.99C546.194 375.99 551.794 375.19 556.794 373.69C561.794 372.09 566.194 369.89 569.994 366.99C573.594 364.19 576.294 360.99 578.294 357.09C580.294 353.29 581.294 349.19 581.294 344.89C581.294 344.19 581.294 343.49 581.194 342.79C580.994 342.99 580.794 343.19 580.494 343.39C578.794 345.09 577.094 346.79 575.394 348.59Z" fill="#414C9B"/>
<path d="M578.694 335.29C580.094 337.59 580.994 340.19 581.294 343.09C582.794 341.89 584.194 341.19 585.494 340.99C587.494 340.79 589.294 340.59 590.794 340.49C592.394 340.39 593.894 340.39 595.394 340.39H597.794L581.894 409.29C581.594 410.79 580.994 412.09 580.194 413.19C579.394 414.29 578.194 415.19 576.594 415.79C575.694 416.09 574.094 416.39 571.894 416.69C569.694 416.89 567.994 417.09 566.894 417.19L565.894 421.59H613.994L614.994 417.19C613.794 417.09 612.194 416.79 610.394 416.39C608.494 415.99 607.094 415.59 606.094 415.19C604.994 414.79 604.294 414.19 603.894 413.39C603.494 412.69 603.294 411.79 603.294 410.79C603.294 410.49 603.294 410.09 603.394 409.39C603.494 408.79 603.594 408.09 603.794 407.39L619.294 340.39H622.294C623.694 340.39 625.294 340.49 627.194 340.59C629.094 340.69 630.594 340.89 631.794 340.99C633.194 341.19 634.394 342.09 635.394 343.39C636.394 344.79 637.294 346.49 638.194 348.59C638.994 350.59 639.594 352.69 640.094 354.69C640.594 356.79 640.894 358.49 640.994 359.89H645.694L651.394 335.19H578.694V335.29Z" fill="#414C9B"/>
<path d="M568.094 272.39H556.694V270.79C557.094 270.79 557.394 270.69 557.794 270.69C558.194 270.69 558.494 270.59 558.794 270.49C559.194 270.39 559.594 270.09 559.794 269.79C559.994 269.39 560.094 268.99 560.094 268.39V253.79C560.094 253.29 559.994 252.79 559.794 252.39C559.594 251.99 559.194 251.59 558.794 251.29C558.494 251.09 558.094 250.89 557.494 250.79C556.894 250.69 556.394 250.59 555.894 250.49V248.99L564.194 248.49L564.494 248.79V267.99C564.494 268.59 564.594 268.99 564.794 269.39C564.994 269.79 565.294 269.99 565.794 270.19C566.194 270.29 566.494 270.49 566.794 270.49C567.094 270.59 567.494 270.59 567.894 270.69V272.39H568.094ZM565.094 239.19C565.094 240.09 564.794 240.89 564.194 241.59C563.594 242.29 562.894 242.59 561.994 242.59C561.194 242.59 560.494 242.29 559.894 241.59C559.294 240.99 558.994 240.19 558.994 239.39C558.994 238.49 559.294 237.79 559.894 237.09C560.494 236.39 561.194 236.09 561.994 236.09C562.894 236.09 563.694 236.39 564.194 236.99C564.794 237.69 565.094 238.39 565.094 239.19Z" fill="#414C9B"/>
<path d="M593.594 272.39H582.794V270.79C583.494 270.69 584.094 270.59 584.594 270.59C585.094 270.49 585.394 270.29 585.394 269.99C585.394 269.89 585.294 269.59 585.194 269.29C584.994 268.99 584.894 268.69 584.694 268.49C584.294 267.89 583.794 266.99 583.094 265.99C582.394 264.99 581.494 263.69 580.494 262.29C579.694 263.29 578.894 264.39 578.194 265.29C577.494 266.29 576.794 267.29 575.994 268.39C575.894 268.59 575.794 268.79 575.694 268.99C575.594 269.19 575.494 269.39 575.494 269.59C575.494 269.99 575.694 270.19 576.194 270.49C576.694 270.69 577.294 270.89 578.294 270.99V272.49H569.594V270.99C570.694 270.69 571.594 270.29 572.194 269.79C572.894 269.29 573.494 268.79 573.994 268.09C574.494 267.49 575.194 266.59 576.094 265.49C576.994 264.39 578.094 262.89 579.494 260.89C578.694 259.69 577.694 258.29 576.494 256.59C575.294 254.89 574.394 253.49 573.594 252.39C573.194 251.79 572.694 251.29 572.194 250.89C571.694 250.49 570.894 250.29 569.894 250.29V248.69H580.194V250.29C579.694 250.29 579.194 250.29 578.694 250.39C578.194 250.49 577.994 250.59 577.994 250.79C577.994 250.89 577.994 251.09 578.094 251.29C578.194 251.49 578.294 251.69 578.494 251.89C578.894 252.39 579.394 253.29 580.094 254.39C580.794 255.49 581.594 256.69 582.494 257.99C583.094 257.19 583.694 256.29 584.494 255.29C585.294 254.29 585.894 253.29 586.594 252.39C586.694 252.29 586.694 252.09 586.794 251.99C586.894 251.79 586.894 251.69 586.894 251.49C586.894 251.19 586.594 250.89 586.094 250.69C585.594 250.49 584.994 250.39 584.494 250.29V248.79H593.194V250.29C591.994 250.59 590.994 250.99 590.294 251.39C589.594 251.79 588.994 252.29 588.594 252.89C588.094 253.59 587.394 254.39 586.694 255.29C585.994 256.29 584.994 257.59 583.694 259.29C585.194 261.29 586.294 262.99 587.194 264.29C588.094 265.59 588.994 266.99 589.894 268.29C590.394 268.99 590.894 269.59 591.394 269.99C591.994 270.39 592.694 270.59 593.694 270.69V272.39H593.594Z" fill="#414C9B"/>
<path d="M614.594 266.89C613.594 268.79 612.294 270.29 610.594 271.39C608.894 272.49 606.994 273.09 604.894 273.09C602.994 273.09 601.294 272.79 599.894 272.09C598.494 271.39 597.294 270.49 596.394 269.39C595.494 268.19 594.794 266.89 594.294 265.39C593.794 263.89 593.594 262.19 593.594 260.49C593.594 258.99 593.794 257.49 594.294 255.99C594.794 254.49 595.494 253.19 596.394 251.99C597.294 250.89 598.394 249.99 599.794 249.29C601.094 248.59 602.694 248.29 604.294 248.29C605.994 248.29 607.494 248.59 608.694 249.09C609.894 249.59 610.894 250.39 611.694 251.29C612.394 252.19 612.994 253.19 613.294 254.49C613.694 255.69 613.794 256.99 613.794 258.39V259.99H598.194C598.194 261.59 598.294 262.99 598.594 264.19C598.894 265.49 599.394 266.59 599.994 267.49C600.594 268.39 601.394 269.19 602.394 269.69C603.394 270.19 604.594 270.49 605.994 270.49C607.394 270.49 608.594 270.19 609.694 269.49C610.694 268.79 611.694 267.59 612.694 265.89L614.594 266.89ZM609.294 257.79C609.294 256.89 609.194 255.99 609.094 254.89C608.894 253.89 608.694 252.99 608.394 252.29C607.994 251.59 607.494 250.99 606.894 250.49C606.294 249.99 605.394 249.79 604.394 249.79C602.694 249.79 601.294 250.49 600.194 251.89C599.094 253.29 598.494 255.19 598.394 257.69H609.294V257.79Z" fill="#414C9B"/>
<path d="M642.194 271.99L633.894 272.49L633.494 272.19V269.99L633.294 269.89C632.494 270.79 631.394 271.59 630.194 272.19C628.994 272.79 627.694 273.09 626.394 273.09C625.094 273.09 623.794 272.79 622.494 272.19C621.194 271.59 620.194 270.79 619.194 269.69C618.294 268.59 617.494 267.29 616.994 265.69C616.494 264.09 616.194 262.39 616.194 260.59C616.194 258.89 616.494 257.29 617.094 255.69C617.694 254.19 618.494 252.79 619.494 251.69C620.494 250.59 621.694 249.79 623.094 249.09C624.494 248.49 625.894 248.09 627.394 248.09C628.494 248.09 629.594 248.19 630.594 248.49C631.694 248.79 632.594 249.09 633.294 249.59V241.39C633.294 240.69 633.194 240.09 632.994 239.59C632.794 238.99 632.494 238.59 632.094 238.29C631.694 237.99 630.994 237.79 630.294 237.59C629.494 237.49 628.694 237.39 627.794 237.29V235.79L637.494 235.29L637.894 235.69V267.49C637.894 268.09 637.994 268.49 638.194 268.89C638.394 269.29 638.694 269.59 639.094 269.89C639.394 270.09 639.794 270.19 640.394 270.29C640.994 270.29 641.494 270.39 641.994 270.39V271.99H642.194ZM633.594 267.79V253.99C633.494 253.59 633.294 253.09 632.994 252.69C632.694 252.19 632.394 251.79 631.894 251.39C631.394 250.99 630.894 250.69 630.294 250.39C629.694 250.09 628.994 249.99 628.094 249.99C627.094 249.99 626.294 250.19 625.494 250.69C624.694 251.19 623.994 251.89 623.394 252.79C622.794 253.69 622.294 254.79 621.994 256.19C621.694 257.59 621.494 259.09 621.494 260.79C621.494 262.09 621.594 263.39 621.894 264.49C622.194 265.59 622.594 266.59 623.194 267.59C623.794 268.49 624.494 269.19 625.294 269.79C626.194 270.29 627.194 270.59 628.394 270.59C629.694 270.59 630.694 270.29 631.594 269.79C632.294 269.09 632.994 268.49 633.594 267.79Z" fill="#414C9B"/>
<path d="M603.294 321.09H591.894V319.49C592.294 319.49 592.594 319.39 592.994 319.39C593.394 319.39 593.694 319.29 593.994 319.19C594.394 319.09 594.794 318.79 594.994 318.49C595.194 318.09 595.294 317.69 595.294 317.09V302.49C595.294 301.99 595.194 301.49 594.994 301.09C594.794 300.69 594.394 300.29 593.994 299.99C593.694 299.79 593.294 299.59 592.694 299.49C592.094 299.39 591.594 299.29 591.094 299.19V297.59L599.394 297.09L599.694 297.39V316.59C599.694 317.19 599.794 317.59 599.994 317.99C600.194 318.39 600.494 318.59 600.994 318.79C601.394 318.89 601.694 319.09 601.994 319.09C602.294 319.19 602.694 319.19 603.094 319.29V321.09H603.294ZM600.294 287.89C600.294 288.79 599.994 289.59 599.394 290.29C598.794 290.99 598.094 291.29 597.194 291.29C596.394 291.29 595.694 290.99 595.094 290.29C594.494 289.69 594.194 288.89 594.194 288.09C594.194 287.19 594.494 286.49 595.094 285.79C595.694 285.09 596.394 284.79 597.194 284.79C598.094 284.79 598.894 285.09 599.394 285.69C599.994 286.39 600.294 287.09 600.294 287.89Z" fill="#414C9B"/>
<path d="M624.694 318.689C625.294 319.289 625.794 319.989 626.194 320.789C626.594 321.589 626.694 322.489 626.694 323.589C626.694 324.689 626.494 325.789 625.994 326.789C625.494 327.789 624.794 328.689 623.794 329.389C622.694 330.089 621.494 330.689 619.994 331.089C618.494 331.489 616.694 331.689 614.494 331.689C610.894 331.689 608.294 331.189 606.494 330.089C604.694 329.089 603.794 327.489 603.794 325.489C603.794 323.889 604.394 322.589 605.694 321.589C606.994 320.689 608.594 320.089 610.594 320.089V319.789C610.094 319.689 609.594 319.489 609.094 319.289C608.594 319.089 608.194 318.789 607.794 318.489C607.394 318.189 606.994 317.789 606.794 317.289C606.494 316.789 606.394 316.289 606.394 315.589C606.394 314.789 606.694 313.989 607.294 313.289C607.894 312.589 608.794 311.989 609.994 311.489V311.089C608.494 310.389 607.294 309.489 606.394 308.289C605.594 307.189 605.094 305.889 605.094 304.389C605.094 302.189 605.894 300.289 607.594 298.889C609.294 297.489 611.394 296.689 613.994 296.689C614.694 296.689 615.394 296.789 616.094 296.889C616.794 296.989 617.494 297.189 618.294 297.389H626.494V299.689H620.894V299.789C621.494 300.489 621.894 301.189 622.194 302.089C622.494 302.889 622.594 303.689 622.594 304.489C622.594 306.589 621.794 308.289 620.094 309.789C618.394 311.189 616.494 311.989 614.194 311.989H611.294C610.894 312.089 610.594 312.389 610.094 312.689C609.694 312.989 609.494 313.489 609.494 314.089C609.494 314.689 609.694 315.089 609.994 315.489C610.294 315.789 610.694 315.989 611.194 316.089C611.694 316.189 612.194 316.289 612.794 316.289C613.394 316.289 614.094 316.389 614.694 316.389C615.394 316.389 616.394 316.489 617.594 316.489C618.794 316.589 619.694 316.589 620.194 316.589C620.894 316.589 621.694 316.789 622.394 317.089C623.394 317.689 624.094 318.089 624.694 318.689ZM622.894 324.489C622.894 323.589 622.694 322.889 622.294 322.289C621.894 321.689 621.294 321.289 620.394 321.089C619.994 320.989 618.994 320.989 617.594 320.889C616.194 320.789 614.594 320.789 612.794 320.789C611.094 321.089 609.894 321.689 609.094 322.489C608.394 323.289 607.994 324.289 607.994 325.589C607.994 326.189 608.094 326.689 608.394 327.189C608.594 327.689 609.094 328.189 609.594 328.589C610.194 328.989 610.894 329.389 611.894 329.589C612.794 329.889 613.994 329.989 615.294 329.989C617.694 329.989 619.494 329.489 620.794 328.589C622.194 327.689 622.894 326.289 622.894 324.489ZM618.294 304.689C618.294 302.789 617.894 301.289 617.194 300.189C616.494 299.089 615.394 298.489 613.994 298.489C613.194 298.489 612.594 298.689 612.094 298.989C611.594 299.289 611.094 299.789 610.794 300.289C610.494 300.789 610.294 301.489 610.094 302.189C609.994 302.889 609.894 303.689 609.894 304.489C609.894 306.289 610.294 307.689 611.094 308.789C611.894 309.889 612.894 310.489 614.094 310.489C615.494 310.489 616.494 309.889 617.294 308.789C617.894 307.789 618.294 306.389 618.294 304.689Z" fill="#414C9B"/>
<path d="M654.894 321.09H643.394V319.49C643.794 319.49 644.194 319.39 644.594 319.39C644.994 319.39 645.394 319.29 645.694 319.19C646.094 319.09 646.494 318.79 646.694 318.39C646.894 317.99 646.994 317.59 646.994 316.99V304.99C646.994 303.29 646.594 301.99 645.794 301.09C644.994 300.19 643.994 299.69 642.894 299.69C642.094 299.69 641.294 299.79 640.594 300.09C639.894 300.39 639.294 300.69 638.694 301.09C638.194 301.49 637.794 301.89 637.394 302.29C637.094 302.69 636.894 303.09 636.694 303.29V316.89C636.694 317.39 636.794 317.89 636.994 318.19C637.194 318.59 637.594 318.79 637.994 318.99C638.294 319.19 638.694 319.29 639.094 319.39C639.494 319.49 639.894 319.49 640.294 319.59V321.19H628.694V319.59C629.094 319.59 629.394 319.49 629.794 319.49C630.194 319.49 630.494 319.39 630.794 319.29C631.194 319.19 631.594 318.89 631.794 318.59C631.994 318.19 632.094 317.79 632.094 317.19V302.59C632.094 302.09 631.994 301.59 631.794 301.09C631.594 300.59 631.194 300.29 630.794 299.99C630.494 299.79 630.094 299.69 629.694 299.59C629.294 299.49 628.794 299.49 628.394 299.39V297.79L636.294 297.29L636.594 297.59V300.89H636.694C637.094 300.49 637.594 300.09 638.094 299.49C638.694 298.99 639.194 298.49 639.694 298.19C640.294 297.79 640.994 297.49 641.794 297.19C642.594 296.89 643.494 296.79 644.594 296.79C646.894 296.79 648.494 297.49 649.594 298.89C650.694 300.29 651.194 302.19 651.194 304.49V316.79C651.194 317.39 651.294 317.79 651.494 318.19C651.694 318.49 651.994 318.79 652.494 318.99C652.894 319.19 653.194 319.29 653.494 319.29C653.794 319.39 654.194 319.39 654.694 319.39V321.09H654.894Z" fill="#414C9B"/>
<path d="M678.894 320.69C678.194 320.99 677.494 321.19 676.894 321.39C676.294 321.59 675.694 321.69 674.994 321.69C673.794 321.69 672.794 321.39 671.994 320.79C671.294 320.19 670.794 319.39 670.594 318.19H670.494C669.494 319.29 668.294 320.19 667.194 320.79C665.994 321.39 664.594 321.69 662.894 321.69C661.094 321.69 659.694 321.19 658.494 320.09C657.394 318.99 656.794 317.59 656.794 315.79C656.794 314.89 656.894 314.09 657.194 313.39C657.494 312.69 657.794 311.99 658.294 311.49C658.694 310.99 659.194 310.59 659.894 310.19C660.594 309.79 661.194 309.49 661.694 309.29C662.394 308.99 663.894 308.49 666.094 307.79C668.294 307.09 669.794 306.49 670.494 306.09V303.69C670.494 303.49 670.494 303.09 670.394 302.49C670.294 301.89 670.094 301.39 669.794 300.79C669.494 300.19 668.994 299.69 668.394 299.29C667.794 298.89 666.994 298.59 665.894 298.59C665.194 298.59 664.494 298.69 663.894 298.99C663.294 299.19 662.794 299.49 662.594 299.79C662.594 300.09 662.694 300.59 662.794 301.19C662.894 301.79 662.994 302.39 662.994 302.89C662.994 303.49 662.694 303.99 662.194 304.39C661.694 304.89 660.994 305.09 660.094 305.09C659.294 305.09 658.694 304.79 658.294 304.29C657.894 303.69 657.694 303.09 657.694 302.39C657.694 301.69 657.994 300.99 658.494 300.29C658.994 299.59 659.694 298.99 660.494 298.49C661.194 298.09 662.094 297.69 663.094 297.39C664.094 297.09 665.094 296.89 666.094 296.89C667.394 296.89 668.594 296.99 669.594 297.19C670.594 297.39 671.494 297.79 672.294 298.39C673.094 298.99 673.694 299.79 674.194 300.79C674.594 301.79 674.794 303.09 674.794 304.69C674.794 306.99 674.794 308.99 674.694 310.79C674.594 312.59 674.594 314.49 674.594 316.59C674.594 317.19 674.694 317.69 674.894 318.09C675.094 318.49 675.394 318.79 675.894 318.99C676.094 319.09 676.494 319.19 676.994 319.19C677.494 319.19 677.994 319.19 678.594 319.19V320.69H678.894ZM670.594 308.09C669.194 308.49 668.094 308.89 666.994 309.29C665.894 309.69 664.994 310.19 664.194 310.69C663.394 311.19 662.794 311.89 662.294 312.59C661.794 313.29 661.594 314.19 661.594 315.19C661.594 316.49 661.894 317.49 662.594 318.09C663.294 318.69 664.194 318.99 665.194 318.99C666.294 318.99 667.294 318.69 668.194 318.19C669.094 317.59 669.794 316.99 670.394 316.19L670.594 308.09Z" fill="#414C9B"/>
<path d="M691.994 321.09H680.494V319.49C680.894 319.49 681.294 319.389 681.694 319.389C682.094 319.389 682.494 319.289 682.694 319.189C683.094 319.09 683.494 318.789 683.694 318.389C683.894 317.989 683.994 317.59 683.994 316.99V289.59C683.994 288.99 683.894 288.49 683.594 287.99C683.394 287.49 682.994 287.09 682.594 286.79C682.294 286.59 681.794 286.39 680.994 286.29C680.194 286.09 679.594 285.99 679.194 285.99V284.49L688.094 283.99L688.394 284.389V316.79C688.394 317.39 688.494 317.789 688.694 318.189C688.894 318.59 689.194 318.79 689.694 318.99C690.094 319.19 690.394 319.289 690.694 319.389C690.994 319.489 691.394 319.49 691.894 319.59V321.09H691.994Z" fill="#414C9B"/>
<path d="M673.794 362.19C672.794 364.09 671.494 365.59 669.794 366.69C668.094 367.79 666.194 368.39 664.094 368.39C662.194 368.39 660.494 368.09 659.094 367.39C657.694 366.69 656.494 365.79 655.594 364.69C654.694 363.49 653.994 362.19 653.494 360.69C652.994 359.19 652.794 357.49 652.794 355.79C652.794 354.29 652.994 352.79 653.494 351.29C653.994 349.79 654.694 348.49 655.594 347.29C656.494 346.19 657.594 345.29 658.994 344.59C660.294 343.89 661.894 343.59 663.494 343.59C665.194 343.59 666.694 343.89 667.894 344.39C669.094 344.89 670.094 345.69 670.894 346.59C671.594 347.49 672.194 348.49 672.494 349.79C672.894 350.99 672.994 352.29 672.994 353.69V355.29H657.394C657.394 356.79 657.494 358.29 657.794 359.49C658.094 360.79 658.594 361.89 659.194 362.79C659.794 363.69 660.594 364.49 661.594 364.99C662.594 365.49 663.794 365.79 665.194 365.79C666.594 365.79 667.794 365.49 668.894 364.79C669.894 364.09 670.894 362.89 671.894 361.19L673.794 362.19ZM668.494 353.19C668.494 352.29 668.394 351.39 668.294 350.29C668.094 349.29 667.894 348.39 667.594 347.69C667.194 346.99 666.694 346.39 666.094 345.89C665.494 345.39 664.594 345.19 663.594 345.19C661.894 345.19 660.494 345.89 659.394 347.29C658.294 348.69 657.694 350.59 657.594 353.09H668.494V353.19Z" fill="#414C9B"/>
<path d="M691.394 356.19C692.094 356.79 692.594 357.39 692.894 358.19C693.294 358.89 693.394 359.89 693.394 360.99C693.394 363.19 692.594 364.99 690.894 366.39C689.294 367.79 687.094 368.49 684.494 368.49C683.094 368.49 681.894 368.29 680.694 367.79C679.494 367.29 678.694 366.89 678.194 366.39L677.694 367.99H675.894L675.694 359.79H677.294C677.394 360.39 677.694 361.19 678.094 361.99C678.494 362.79 678.994 363.59 679.594 364.29C680.194 364.99 680.994 365.59 681.794 366.09C682.694 366.59 683.594 366.79 684.694 366.79C686.194 366.79 687.394 366.49 688.194 365.79C688.994 365.09 689.394 364.09 689.394 362.79C689.394 362.09 689.294 361.49 688.994 361.09C688.694 360.59 688.294 360.19 687.794 359.79C687.294 359.39 686.594 359.09 685.894 358.79C685.094 358.49 684.294 358.19 683.294 357.89C682.594 357.69 681.694 357.39 680.794 356.99C679.894 356.59 679.094 356.09 678.394 355.59C677.694 354.99 677.094 354.39 676.694 353.49C676.194 352.69 675.994 351.69 675.994 350.59C675.994 348.69 676.694 346.99 678.194 345.69C679.594 344.39 681.594 343.69 683.994 343.69C684.894 343.69 685.894 343.79 686.794 344.09C687.794 344.29 688.594 344.59 689.194 344.99L689.794 343.79H691.494L691.894 351.39H690.294C689.994 349.69 689.194 348.29 688.094 347.29C686.994 346.19 685.594 345.69 683.994 345.69C682.694 345.69 681.694 345.99 680.894 346.69C680.194 347.39 679.794 348.19 679.794 349.09C679.794 349.79 679.894 350.39 680.194 350.89C680.394 351.39 680.794 351.79 681.294 352.09C681.794 352.39 682.394 352.69 683.094 352.99C683.794 353.29 684.694 353.59 685.794 353.89C686.894 354.19 687.794 354.59 688.794 355.09C689.994 355.19 690.794 355.69 691.394 356.19Z" fill="#414C9B"/>
<path d="M710.394 366.79C709.394 367.19 708.394 367.59 707.494 367.89C706.594 368.19 705.394 368.29 704.094 368.29C702.094 368.29 700.694 367.79 699.894 366.79C699.094 365.79 698.694 364.39 698.694 362.59V346.59H694.394V344.29H698.794V336.89H703.194V344.29H709.994V346.59H703.294V359.79C703.294 360.79 703.294 361.59 703.394 362.29C703.494 362.99 703.594 363.49 703.894 363.99C704.194 364.49 704.494 364.79 704.994 365.09C705.494 365.29 706.194 365.49 707.094 365.49C707.494 365.49 708.094 365.49 708.894 365.39C709.694 365.29 710.194 365.19 710.494 365.09V366.79H710.394Z" fill="#414C9B"/>
<path d="M731.994 362.19C730.994 364.09 729.694 365.59 727.994 366.69C726.294 367.79 724.394 368.39 722.294 368.39C720.394 368.39 718.694 368.09 717.294 367.39C715.894 366.69 714.694 365.79 713.794 364.69C712.894 363.49 712.194 362.19 711.694 360.69C711.194 359.19 710.994 357.49 710.994 355.79C710.994 354.29 711.194 352.79 711.694 351.29C712.194 349.79 712.894 348.49 713.794 347.29C714.694 346.19 715.794 345.29 717.194 344.59C718.494 343.89 720.094 343.59 721.694 343.59C723.394 343.59 724.894 343.89 726.094 344.39C727.294 344.89 728.294 345.69 729.094 346.59C729.794 347.49 730.394 348.49 730.694 349.79C731.094 350.99 731.194 352.29 731.194 353.69V355.29H715.594C715.594 356.79 715.694 358.29 715.994 359.49C716.294 360.79 716.794 361.89 717.394 362.79C717.994 363.69 718.794 364.49 719.794 364.99C720.794 365.49 721.994 365.79 723.394 365.79C724.794 365.79 725.994 365.49 727.094 364.79C728.094 364.09 729.094 362.89 730.094 361.19L731.994 362.19ZM726.694 353.19C726.694 352.29 726.594 351.39 726.494 350.29C726.294 349.29 726.094 348.39 725.794 347.69C725.394 346.99 724.894 346.39 724.294 345.89C723.694 345.39 722.794 345.19 721.794 345.19C720.094 345.19 718.694 345.89 717.594 347.29C716.494 348.69 715.894 350.59 715.794 353.09H726.694V353.19Z" fill="#414C9B"/>
<path d="M751.194 347.19C751.194 347.99 750.994 348.69 750.594 349.39C750.194 350.09 749.594 350.29 748.794 350.29C747.894 350.29 747.194 350.09 746.794 349.59C746.394 349.09 746.094 348.59 746.094 348.09C746.094 347.69 746.094 347.39 746.194 347.09C746.294 346.79 746.294 346.49 746.394 346.19C745.694 346.19 744.794 346.49 743.794 347.09C742.794 347.69 741.894 348.59 741.194 349.69V363.39C741.194 363.99 741.294 364.39 741.494 364.79C741.694 365.19 742.094 365.39 742.494 365.59C742.894 365.79 743.394 365.89 743.994 365.99C744.594 366.09 745.194 366.09 745.594 366.19V367.79H733.094V366.19C733.494 366.19 733.794 366.09 734.194 366.09C734.594 366.09 734.894 365.99 735.194 365.89C735.594 365.79 735.994 365.49 736.194 365.19C736.394 364.79 736.494 364.39 736.494 363.79V349.19C736.494 348.69 736.394 348.19 736.194 347.69C735.994 347.19 735.594 346.79 735.194 346.59C734.894 346.39 734.494 346.29 734.094 346.19C733.694 346.09 733.194 346.09 732.794 345.99V344.39L740.694 343.89L740.994 344.19V347.49H741.094C742.094 346.19 743.194 345.19 744.394 344.59C745.594 343.89 746.694 343.59 747.694 343.59C748.694 343.59 749.494 343.89 750.194 344.59C750.894 345.19 751.194 346.09 751.194 347.19Z" fill="#414C9B"/>
</svg>
