<svg width="152" height="61" viewBox="0 0 152 61" fill="none" xmlns="http://www.w3.org/2000/svg">
<g filter="url(#filter0_dd)">
<rect x="134.207" y="43.5651" width="117" height="27" rx="13.5" transform="rotate(-180 134.207 43.5651)" fill="#646464"/>
</g>
<path d="M37.1189 30.0651L30.2069 34.0651L30.2069 26.0651L37.1189 30.0651Z" fill="white"/>
<path d="M51.5613 34.5651H49.9617V26.6179H45.8928V34.5651H44.2932V25.3229H51.5613V34.5651ZM53.0657 31.0676C53.0657 30.3947 53.199 29.7896 53.4656 29.2521C53.7322 28.7105 54.1067 28.2958 54.5891 28.008C55.0715 27.716 55.6259 27.57 56.2522 27.57C57.179 27.57 57.9301 27.8683 58.5056 28.465C59.0854 29.0617 59.3985 29.853 59.4451 30.8391L59.4514 31.2009C59.4514 31.878 59.3202 32.4831 59.0579 33.0163C58.7997 33.5495 58.4273 33.9621 57.9407 34.2541C57.4583 34.5461 56.8997 34.6921 56.2649 34.6921C55.2958 34.6921 54.5193 34.3705 53.9353 33.7272C53.3556 33.0798 53.0657 32.2186 53.0657 31.1437V31.0676ZM54.6082 31.2009C54.6082 31.9076 54.7542 32.4619 55.0461 32.864C55.3381 33.2617 55.7444 33.4606 56.2649 33.4606C56.7854 33.4606 57.1895 33.2575 57.4773 32.8513C57.7693 32.445 57.9153 31.8504 57.9153 31.0676C57.9153 30.3736 57.7651 29.8234 57.4646 29.4172C57.1684 29.0109 56.7642 28.8078 56.2522 28.8078C55.7486 28.8078 55.3487 29.0088 55.0525 29.4108C54.7563 29.8086 54.6082 30.4053 54.6082 31.2009ZM60.3274 33.3337C60.7548 32.8555 61.0404 32.4027 61.1843 31.9753C61.3324 31.5436 61.4213 30.9935 61.4509 30.3249L61.5398 27.697H66.3069V33.3337H67.259V36.6091H65.7229V34.5651H61.3176V36.6091H59.7561L59.7625 33.3337H60.3274ZM62.1365 33.3337H64.7708V29.0236H63.0378L62.9934 30.3376C62.9342 31.5987 62.6485 32.5974 62.1365 33.3337ZM70.6868 31.8483H69.906V34.5651H68.3635V27.697H69.906V30.4391H70.5852L72.4832 27.697H74.3875L71.9055 30.985L74.5969 34.5651H72.5911L70.6868 31.8483ZM81.281 27.697V34.5651H79.7385V28.9411H77.7961L77.6692 31.3342C77.5888 32.4852 77.3666 33.3125 77.0027 33.8161C76.643 34.3155 76.0907 34.5651 75.3459 34.5651H74.8699L74.8635 33.2829L75.1809 33.2512C75.5194 33.2046 75.7649 32.9994 75.9172 32.6354C76.0738 32.2673 76.1733 31.5987 76.2156 30.6296L76.3425 27.697H81.281ZM84.5945 30.4582H85.8894C86.0037 29.5822 86.3422 28.8819 86.905 28.3571C87.4679 27.8324 88.1788 27.57 89.0378 27.57C89.9646 27.57 90.7157 27.8683 91.2913 28.465C91.871 29.0617 92.1842 29.853 92.2307 30.8391L92.2371 31.2009C92.2371 31.878 92.1059 32.4831 91.8435 33.0163C91.5854 33.5495 91.213 33.9621 90.7263 34.2541C90.2439 34.5461 89.6853 34.6921 89.0505 34.6921C88.1619 34.6921 87.4319 34.417 86.8606 33.8669C86.2935 33.3168 85.9656 32.5931 85.8767 31.696H84.5945V34.5651H83.052V27.697H84.5945V30.4582ZM87.3938 31.2009C87.3938 31.9076 87.5398 32.4619 87.8318 32.864C88.1238 33.2617 88.53 33.4606 89.0505 33.4606C89.571 33.4606 89.9752 33.2575 90.2629 32.8513C90.5507 32.445 90.6946 31.8504 90.6946 31.0676C90.6946 30.3609 90.5444 29.8086 90.2439 29.4108C89.9477 29.0088 89.5457 28.8078 89.0378 28.8078C88.5343 28.8078 88.1344 29.0088 87.8381 29.4108C87.5419 29.8086 87.3938 30.4053 87.3938 31.2009ZM99.0164 34.5651H97.4739V32.2736C97.0761 32.3667 96.6571 32.4133 96.217 32.4133C95.2776 32.4133 94.5603 32.189 94.0652 31.7404C93.5701 31.2876 93.3225 30.6402 93.3225 29.798V27.6906H94.865V29.798C94.865 30.2974 94.975 30.6507 95.1951 30.8581C95.4194 31.0655 95.76 31.1691 96.217 31.1691C96.6318 31.1691 97.0507 31.1205 97.4739 31.0231V27.697H99.0164V34.5651ZM104.945 27.697H106.481V34.5651H104.945V29.9821L102.254 34.5651H100.718V27.697H102.254V32.28L104.945 27.697ZM113.527 28.9221H111.299V34.5651H109.757V28.9221H107.554V27.697H113.527V28.9221ZM116.219 29.8806H117.729C118.292 29.8806 118.783 29.9779 119.202 30.1725C119.621 30.3672 119.938 30.6402 120.154 30.9914C120.374 31.3426 120.484 31.751 120.484 32.2165C120.484 32.9232 120.234 33.4903 119.735 33.9177C119.236 34.3451 118.571 34.5609 117.742 34.5651H114.676V27.697H116.219V29.8806ZM116.219 31.1183V33.3337H117.723C118.1 33.3337 118.396 33.2406 118.612 33.0544C118.832 32.864 118.942 32.5952 118.942 32.2482C118.942 31.9012 118.834 31.6283 118.618 31.4294C118.406 31.2263 118.119 31.1226 117.755 31.1183H116.219Z" fill="white"/>
<defs>
<filter id="filter0_dd" x="0.206787" y="0.565125" width="151" height="60" filterUnits="userSpaceOnUse" color-interpolation-filters="sRGB">
<feFlood flood-opacity="0" result="BackgroundImageFix"/>
<feColorMatrix in="SourceAlpha" type="matrix" values="0 0 0 0 0 0 0 0 0 0 0 0 0 0 0 0 0 0 127 0"/>
<feOffset dx="4" dy="4"/>
<feGaussianBlur stdDeviation="6.5"/>
<feColorMatrix type="matrix" values="0 0 0 0 0.317187 0 0 0 0 0.317187 0 0 0 0 0.317187 0 0 0 1 0"/>
<feBlend mode="normal" in2="BackgroundImageFix" result="effect1_dropShadow"/>
<feColorMatrix in="SourceAlpha" type="matrix" values="0 0 0 0 0 0 0 0 0 0 0 0 0 0 0 0 0 0 127 0"/>
<feOffset dx="-4" dy="-3"/>
<feGaussianBlur stdDeviation="6.5"/>
<feColorMatrix type="matrix" values="0 0 0 0 0.555404 0 0 0 0 0.543833 0 0 0 0 0.543833 0 0 0 0.55 0"/>
<feBlend mode="normal" in2="effect1_dropShadow" result="effect2_dropShadow"/>
<feBlend mode="normal" in="SourceGraphic" in2="effect2_dropShadow" result="shape"/>
</filter>
</defs>
</svg>
