<svg width="92" height="28" viewBox="0 0 92 28" fill="none" xmlns="http://www.w3.org/2000/svg">
<g opacity="0.5">
<rect y="0.318848" width="92" height="27" rx="3" fill="#3F4145"/>
<path opacity="0.5" d="M19.5874 18.3188H17.9878V10.3716H13.9189V18.3188H12.3193V9.07666H19.5874V18.3188ZM27.395 14.9546C27.395 16.0168 27.1538 16.8652 26.6714 17.5C26.189 18.1305 25.5415 18.4458 24.729 18.4458C23.9757 18.4458 23.3727 18.1982 22.9199 17.7031V20.9595H21.3774V11.4507H22.7993L22.8628 12.1489C23.3156 11.5988 23.9313 11.3237 24.71 11.3237C25.5479 11.3237 26.2038 11.6369 26.6777 12.2632C27.1559 12.8853 27.395 13.7507 27.395 14.8594V14.9546ZM25.8589 14.8213C25.8589 14.1357 25.7214 13.592 25.4463 13.1899C25.1755 12.7879 24.7861 12.5869 24.2783 12.5869C23.6478 12.5869 23.195 12.8472 22.9199 13.3677V16.4146C23.1992 16.9478 23.6562 17.2144 24.291 17.2144C24.7819 17.2144 25.1649 17.0176 25.4399 16.624C25.7192 16.2262 25.8589 15.6253 25.8589 14.8213ZM32.9937 11.4507H34.5298V18.3188H32.9937V13.7358L30.3022 18.3188H28.7661V11.4507H30.3022V16.0337L32.9937 11.4507ZM40.249 16.4209L42.2803 11.4507H44.21V18.3188H42.6675V13.7739L40.7759 18.3188H39.7285L37.8306 13.7485V18.3188H36.2881V11.4507H38.2305L40.249 16.4209ZM48.9707 18.4458C47.9932 18.4458 47.1997 18.139 46.5903 17.5254C45.9852 16.9076 45.6826 16.0866 45.6826 15.0625V14.8721C45.6826 14.1865 45.8138 13.575 46.0762 13.0376C46.3428 12.4959 46.7152 12.0749 47.1934 11.7744C47.6715 11.474 48.2048 11.3237 48.793 11.3237C49.7282 11.3237 50.4497 11.6221 50.9575 12.2188C51.4696 12.8154 51.7256 13.6597 51.7256 14.7515V15.3735H47.2378C47.2843 15.9406 47.4727 16.3892 47.8027 16.7192C48.137 17.0493 48.556 17.2144 49.0596 17.2144C49.7663 17.2144 50.3418 16.9287 50.7861 16.3574L51.6177 17.1509C51.3426 17.5614 50.9744 17.8809 50.5132 18.1094C50.0562 18.3337 49.542 18.4458 48.9707 18.4458ZM48.7866 12.5615C48.3634 12.5615 48.0207 12.7096 47.7583 13.0059C47.5002 13.3021 47.3351 13.7147 47.2632 14.2437H50.2021V14.1294C50.1683 13.6131 50.0308 13.2238 49.7896 12.9614C49.5483 12.6948 49.214 12.5615 48.7866 12.5615ZM58.7461 18.3188H57.2036V15.5449H54.5312V18.3188H52.9888V11.4507H54.5312V14.3135H57.2036V11.4507H58.7461V18.3188ZM64.6812 11.4507H66.2173V18.3188H64.6812V13.7358L61.9897 18.3188H60.4536V11.4507H61.9897V16.0337L64.6812 11.4507ZM73.2632 12.6758H71.0352V18.3188H69.4927V12.6758H67.29V11.4507H73.2632V12.6758ZM75.9546 13.6343H77.4653C78.0282 13.6343 78.519 13.7316 78.938 13.9263C79.3569 14.1209 79.6743 14.3939 79.8901 14.7451C80.1102 15.0964 80.2202 15.5047 80.2202 15.9702C80.2202 16.6769 79.9705 17.244 79.4712 17.6714C78.9718 18.0988 78.3075 18.3146 77.478 18.3188H74.4121V11.4507H75.9546V13.6343ZM75.9546 14.8721V17.0874H77.459C77.8356 17.0874 78.1318 16.9943 78.3477 16.8081C78.5677 16.6177 78.6777 16.349 78.6777 16.002C78.6777 15.6549 78.5698 15.382 78.354 15.1831C78.1424 14.98 77.8547 14.8763 77.4907 14.8721H75.9546Z" fill="white"/>
</g>
</svg>
