<svg width="45" height="20" viewBox="0 0 45 20" fill="none" xmlns="http://www.w3.org/2000/svg">
<path d="M7.55273 7.00977C7.55273 7.8457 7.41211 8.57617 7.13086 9.20117C6.84961 9.82227 6.45117 10.2969 5.93555 10.625C5.41992 10.9531 4.81836 11.1172 4.13086 11.1172C3.45898 11.1172 2.86328 10.9531 2.34375 10.625C1.82422 10.293 1.41992 9.82227 1.13086 9.21289C0.845703 8.59961 0.699219 7.89062 0.691406 7.08594V6.4707C0.691406 5.65039 0.833984 4.92578 1.11914 4.29688C1.4043 3.66797 1.80664 3.1875 2.32617 2.85547C2.84961 2.51953 3.44727 2.35156 4.11914 2.35156C4.80273 2.35156 5.4043 2.51758 5.92383 2.84961C6.44727 3.17773 6.84961 3.65625 7.13086 4.28516C7.41211 4.91016 7.55273 5.63867 7.55273 6.4707V7.00977ZM6.43359 6.45898C6.43359 5.44727 6.23047 4.67188 5.82422 4.13281C5.41797 3.58984 4.84961 3.31836 4.11914 3.31836C3.4082 3.31836 2.84766 3.58984 2.4375 4.13281C2.03125 4.67188 1.82227 5.42188 1.81055 6.38281V7.00977C1.81055 7.99023 2.01562 8.76172 2.42578 9.32422C2.83984 9.88281 3.4082 10.1621 4.13086 10.1621C4.85742 10.1621 5.41992 9.89844 5.81836 9.37109C6.2168 8.83984 6.42188 8.08008 6.43359 7.0918V6.45898ZM10.2539 4.66016V10.1152H12.5742V4.66016H13.6582V10.1152H15.9727V4.66016H17.0625V11H9.16406V4.66016H10.2539ZM22.875 4.66016H23.959V11H22.875V6.37695L19.9512 11H18.8672V4.66016H19.9512V9.28906L22.875 4.66016ZM28.4824 5.02344C29.2793 5.02344 29.916 5.29102 30.3926 5.82617C30.873 6.35742 31.1133 7.05859 31.1133 7.92969V8.0293C31.1133 8.62695 30.998 9.16211 30.7676 9.63477C30.5371 10.1035 30.2051 10.4688 29.7715 10.7305C29.3418 10.9883 28.8457 11.1172 28.2832 11.1172C27.4316 11.1172 26.7461 10.834 26.2266 10.2676C25.707 9.69727 25.4473 8.93359 25.4473 7.97656V7.44922C25.4473 6.11719 25.6934 5.05859 26.1855 4.27344C26.6816 3.48828 27.4121 3.00977 28.377 2.83789C28.9238 2.74023 29.293 2.62109 29.4844 2.48047C29.6758 2.33984 29.7715 2.14648 29.7715 1.90039H30.6621C30.6621 2.38867 30.5508 2.76953 30.3281 3.04297C30.1094 3.31641 29.7578 3.50977 29.2734 3.62305L28.4648 3.80469C27.8203 3.95703 27.3359 4.21484 27.0117 4.57812C26.6914 4.9375 26.4824 5.41797 26.3848 6.01953C26.959 5.35547 27.6582 5.02344 28.4824 5.02344ZM28.2715 5.91406C27.7402 5.91406 27.3184 6.09375 27.0059 6.45312C26.6934 6.80859 26.5371 7.30273 26.5371 7.93555V8.0293C26.5371 8.70898 26.6934 9.24805 27.0059 9.64648C27.3223 10.041 27.748 10.2383 28.2832 10.2383C28.8223 10.2383 29.248 10.0391 29.5605 9.64062C29.873 9.24219 30.0293 8.66016 30.0293 7.89453C30.0293 7.29688 29.8711 6.81836 29.5547 6.45898C29.2422 6.0957 28.8145 5.91406 28.2715 5.91406ZM34.2012 8.29883H33.4102V11H32.3203V4.66016H33.4102V7.34375H34.1191L36.252 4.66016H37.5645L35.0566 7.70703L37.7754 11H36.3984L34.2012 8.29883ZM42.8086 4.66016H43.8926V11H42.8086V6.37695L39.8848 11H38.8008V4.66016H39.8848V9.28906L42.8086 4.66016Z" fill="#C1C0C0"/>
</svg>
