<svg width="13" height="18" viewBox="0 0 13 18" fill="none" xmlns="http://www.w3.org/2000/svg">
<path d="M11.3456 6.53226H1.65467C1.35922 6.53226 1.12286 6.76451 1.1524 7.05484L2.27513 17.3323C2.30467 17.6516 2.60013 17.8839 2.95467 17.8839H10.0456C10.4001 17.8839 10.666 17.6516 10.7251 17.3323L11.8479 7.05484C11.8774 6.76451 11.641 6.53226 11.3456 6.53226ZM3.60467 16.3161C3.60467 16.5194 3.45695 16.6645 3.25013 16.6645C3.04331 16.6645 2.89558 16.5194 2.89558 16.3161V8.68064C2.89558 8.47742 3.04331 8.33226 3.25013 8.33226C3.45695 8.33226 3.60467 8.47742 3.60467 8.68064V16.3161ZM5.76149 16.3161C5.76149 16.5194 5.61377 16.6645 5.40695 16.6645C5.20013 16.6645 5.0524 16.5194 5.0524 16.3161V8.68064C5.0524 8.47742 5.20013 8.33226 5.40695 8.33226C5.61377 8.33226 5.76149 8.47742 5.76149 8.68064V16.3161ZM7.94786 16.3161C7.94786 16.5194 7.80013 16.6645 7.59331 16.6645C7.38649 16.6645 7.23877 16.5194 7.23877 16.3161V8.68064C7.23877 8.47742 7.38649 8.33226 7.59331 8.33226C7.80013 8.33226 7.94786 8.47742 7.94786 8.68064V16.3161ZM10.1047 16.3161C10.1047 16.5194 9.95695 16.6645 9.75013 16.6645C9.54331 16.6645 9.39558 16.5194 9.39558 16.3161V8.68064C9.39558 8.47742 9.54331 8.33226 9.75013 8.33226C9.95695 8.33226 10.1047 8.47742 10.1047 8.68064V16.3161Z" fill="#3A3A3A"/>
<path d="M9.07062 0.145157H3.92971C3.42743 0.145157 2.98425 0.551608 2.98425 1.07419V2.96129H4.37289V1.50967H8.65698V2.96129H10.0456V1.07419C10.0161 0.551608 9.60243 0.145157 9.07062 0.145157Z" fill="#3A3A3A"/>
<path d="M12.0546 3.3387H0.945537C0.561446 3.3387 0.265991 3.57096 0.265991 3.83225V5.48709C0.265991 5.74838 0.561446 5.98063 0.945537 5.98063H12.0546C12.4387 5.98063 12.7342 5.74838 12.7342 5.48709V3.83225C12.7342 3.57096 12.4387 3.3387 12.0546 3.3387Z" fill="#3A3A3A"/>
</svg>
