<svg width="152" height="61" viewBox="0 0 152 61" fill="none" xmlns="http://www.w3.org/2000/svg">
<g filter="url(#filter0_dd)">
<rect x="134.207" y="43.5651" width="117" height="27" rx="13.5" transform="rotate(-180 134.207 43.5651)" fill="#DCAA29"/>
</g>
<path d="M75.3079 31.5563C75.2148 32.5423 74.8508 33.3125 74.2161 33.8669C73.5813 34.417 72.7371 34.6921 71.6833 34.6921C70.947 34.6921 70.2974 34.5186 69.7346 34.1716C69.176 33.8203 68.7444 33.3231 68.4397 32.6799C68.135 32.0366 67.9763 31.2897 67.9636 30.4391V29.5759C67.9636 28.7041 68.1181 27.9361 68.427 27.2717C68.7359 26.6073 69.1781 26.0952 69.7537 25.7355C70.3334 25.3758 71.002 25.196 71.7595 25.196C72.7794 25.196 73.6003 25.4732 74.2224 26.0275C74.8445 26.5819 75.2063 27.3648 75.3079 28.3762H73.7083C73.6321 27.7118 73.4374 27.2336 73.1243 26.9416C72.8153 26.6454 72.3604 26.4973 71.7595 26.4973C71.0613 26.4973 70.5238 26.7533 70.1472 27.2653C69.7748 27.7731 69.5844 28.52 69.5759 29.506V30.3249C69.5759 31.3236 69.7537 32.0853 70.1091 32.61C70.4688 33.1348 70.9936 33.3972 71.6833 33.3972C72.3139 33.3972 72.7878 33.2554 73.1052 32.9719C73.4226 32.6883 73.6236 32.2165 73.7083 31.5563H75.3079ZM82.0046 28.9221H79.7766V34.5651H78.2341V28.9221H76.0315V27.697H82.0046V28.9221ZM82.5569 31.0676C82.5569 30.3947 82.6902 29.7896 82.9568 29.2521C83.2234 28.7105 83.5979 28.2958 84.0803 28.008C84.5627 27.716 85.1171 27.57 85.7434 27.57C86.6702 27.57 87.4213 27.8683 87.9968 28.465C88.5766 29.0617 88.8897 29.853 88.9363 30.8391L88.9426 31.2009C88.9426 31.878 88.8114 32.4831 88.5491 33.0163C88.2909 33.5495 87.9185 33.9621 87.4319 34.2541C86.9495 34.5461 86.3909 34.6921 85.7561 34.6921C84.787 34.6921 84.0105 34.3705 83.4265 33.7272C82.8468 33.0798 82.5569 32.2186 82.5569 31.1437V31.0676ZM84.0994 31.2009C84.0994 31.9076 84.2454 32.4619 84.5374 32.864C84.8293 33.2617 85.2356 33.4606 85.7561 33.4606C86.2766 33.4606 86.6807 33.2575 86.9685 32.8513C87.2605 32.445 87.4065 31.8504 87.4065 31.0676C87.4065 30.3736 87.2563 29.8234 86.9558 29.4172C86.6596 29.0109 86.2555 28.8078 85.7434 28.8078C85.2398 28.8078 84.8399 29.0088 84.5437 29.4108C84.2475 29.8086 84.0994 30.4053 84.0994 31.2009ZM96.071 34.5651H94.5286V28.9411H91.8499V34.5651H90.3074V27.697H96.071V34.5651Z" fill="white"/>
<path d="M54.5413 26.1068H56.9163V34.0235H54.5413V26.1068ZM58.4996 26.1068H60.8746V34.0235H58.4996V26.1068Z" fill="white"/>
<defs>
<filter id="filter0_dd" x="0.206787" y="0.565125" width="151" height="60" filterUnits="userSpaceOnUse" color-interpolation-filters="sRGB">
<feFlood flood-opacity="0" result="BackgroundImageFix"/>
<feColorMatrix in="SourceAlpha" type="matrix" values="0 0 0 0 0 0 0 0 0 0 0 0 0 0 0 0 0 0 127 0"/>
<feOffset dx="4" dy="4"/>
<feGaussianBlur stdDeviation="6.5"/>
<feColorMatrix type="matrix" values="0 0 0 0 0.317187 0 0 0 0 0.317187 0 0 0 0 0.317187 0 0 0 1 0"/>
<feBlend mode="normal" in2="BackgroundImageFix" result="effect1_dropShadow"/>
<feColorMatrix in="SourceAlpha" type="matrix" values="0 0 0 0 0 0 0 0 0 0 0 0 0 0 0 0 0 0 127 0"/>
<feOffset dx="-4" dy="-3"/>
<feGaussianBlur stdDeviation="6.5"/>
<feColorMatrix type="matrix" values="0 0 0 0 0.555404 0 0 0 0 0.543833 0 0 0 0 0.543833 0 0 0 0.55 0"/>
<feBlend mode="normal" in2="effect1_dropShadow" result="effect2_dropShadow"/>
<feBlend mode="normal" in="SourceGraphic" in2="effect2_dropShadow" result="shape"/>
</filter>
</defs>
</svg>
