<svg width="80" height="16" viewBox="0 0 80 16" fill="none" xmlns="http://www.w3.org/2000/svg">
<path d="M22.7595 7.61938C22.7595 8.45532 22.6189 9.18579 22.3376 9.81079C22.0564 10.4319 21.658 10.9065 21.1423 11.2346C20.6267 11.5627 20.0251 11.7268 19.3376 11.7268C18.6658 11.7268 18.0701 11.5627 17.5505 11.2346C17.031 10.9026 16.6267 10.4319 16.3376 9.82251C16.0525 9.20923 15.906 8.50024 15.8982 7.69556V7.08032C15.8982 6.26001 16.0408 5.5354 16.3259 4.90649C16.6111 4.27759 17.0134 3.79712 17.533 3.46509C18.0564 3.12915 18.6541 2.96118 19.3259 2.96118C20.0095 2.96118 20.6111 3.1272 21.1306 3.45923C21.6541 3.78735 22.0564 4.26587 22.3376 4.89478C22.6189 5.51978 22.7595 6.24829 22.7595 7.08032V7.61938ZM21.6404 7.0686C21.6404 6.05688 21.4373 5.28149 21.031 4.74243C20.6248 4.19946 20.0564 3.92798 19.3259 3.92798C18.615 3.92798 18.0544 4.19946 17.6443 4.74243C17.238 5.28149 17.0291 6.03149 17.0173 6.99243V7.61938C17.0173 8.59985 17.2224 9.37134 17.6326 9.93384C18.0466 10.4924 18.615 10.7717 19.3376 10.7717C20.0642 10.7717 20.6267 10.5081 21.0251 9.98071C21.4236 9.44946 21.6287 8.6897 21.6404 7.70142V7.0686ZM28.988 6.14868H26.8611V11.6096H25.7771V6.14868H23.6912V5.26978H28.988V6.14868ZM32.0173 8.90845H31.2263V11.6096H30.1365V5.26978H31.2263V7.95337H31.9353L34.0681 5.26978H35.3806L32.8728 8.31665L35.5916 11.6096H34.2146L32.0173 8.90845ZM41.7205 5.26978V11.6096H40.6306V6.16626H38.4744L38.3455 8.53931C38.2751 9.62915 38.0916 10.4084 37.7947 10.8772C37.5017 11.3459 37.0349 11.5901 36.3943 11.6096H35.9607V10.6545L36.2712 10.6311C36.6228 10.592 36.8748 10.3889 37.0271 10.0217C37.1794 9.65454 37.2771 8.97485 37.3201 7.98267L37.4373 5.26978H41.7205ZM44.6443 7.95923H46.1677C46.2498 7.11548 46.5486 6.43774 47.0642 5.92603C47.5837 5.4104 48.238 5.15259 49.0271 5.15259C49.8552 5.15259 50.533 5.43188 51.0603 5.99048C51.5876 6.54907 51.8728 7.27563 51.9158 8.17017L51.9216 8.51001C51.9216 9.1272 51.8005 9.68384 51.5583 10.1799C51.3162 10.676 50.9763 11.0588 50.5388 11.3284C50.1013 11.594 49.6013 11.7268 49.0388 11.7268C48.2224 11.7268 47.5544 11.4612 47.0349 10.9299C46.5154 10.3948 46.2244 9.70142 46.1619 8.84985H44.6443V11.6096H43.5603V5.26978H44.6443V7.95923ZM47.2341 8.51001C47.2341 9.21313 47.3962 9.77759 47.7205 10.2034C48.0486 10.6292 48.488 10.842 49.0388 10.842C49.5896 10.842 50.0251 10.6252 50.3455 10.1917C50.6697 9.75806 50.8318 9.15454 50.8318 8.3811C50.8318 7.6897 50.6677 7.1272 50.3396 6.6936C50.0115 6.26001 49.574 6.04321 49.0271 6.04321C48.488 6.04321 48.0544 6.2561 47.7263 6.68188C47.3982 7.10767 47.2341 7.71704 47.2341 8.51001ZM58.0447 11.6096H56.9548V9.31274C56.4783 9.43774 55.99 9.50024 55.49 9.50024C54.697 9.50024 54.0916 9.29712 53.6736 8.89087C53.2595 8.48462 53.0486 7.90649 53.0408 7.15649V5.26392H54.1248V7.19165C54.1443 8.13696 54.5994 8.60962 55.49 8.60962C55.99 8.60962 56.4783 8.54712 56.9548 8.42212V5.26978H58.0447V11.6096ZM62.4158 11.7268C61.5564 11.7268 60.8572 11.4456 60.3181 10.8831C59.7791 10.3167 59.5095 9.56079 59.5095 8.61548V8.41626C59.5095 7.78735 59.6287 7.22681 59.8669 6.73462C60.1091 6.23853 60.4451 5.85181 60.8748 5.57446C61.3083 5.29321 61.7771 5.15259 62.281 5.15259C63.1052 5.15259 63.7458 5.42407 64.2029 5.96704C64.6599 6.51001 64.8884 7.28735 64.8884 8.29907V8.75024H60.5935C60.6091 9.37524 60.7908 9.8811 61.1384 10.2678C61.49 10.6506 61.9353 10.842 62.4744 10.842C62.8572 10.842 63.1814 10.7639 63.447 10.6077C63.7126 10.4514 63.9451 10.2444 64.1443 9.98657L64.8064 10.5022C64.2751 11.3186 63.4783 11.7268 62.4158 11.7268ZM62.281 6.04321C61.8435 6.04321 61.4763 6.20337 61.1794 6.52368C60.8826 6.84009 60.699 7.2854 60.6287 7.85962H63.8044V7.77759C63.7732 7.22681 63.6248 6.80103 63.3591 6.50024C63.0935 6.19556 62.7341 6.04321 62.281 6.04321ZM71.3279 11.6096H70.2439V8.90259H67.3318V11.6096H66.2419V5.26978H67.3318V8.01782H70.2439V5.26978H71.3279V11.6096ZM72.7869 8.3811C72.7869 7.76001 72.908 7.20142 73.1501 6.70532C73.3962 6.20923 73.7361 5.82642 74.1697 5.55688C74.6072 5.28735 75.1052 5.15259 75.6638 5.15259C76.5271 5.15259 77.2244 5.45142 77.7556 6.04907C78.2908 6.64673 78.5583 7.44165 78.5583 8.43384V8.51001C78.5583 9.1272 78.4392 9.68188 78.2009 10.1741C77.9666 10.6624 77.6287 11.0432 77.1873 11.3167C76.7498 11.5901 76.2458 11.7268 75.6755 11.7268C74.8162 11.7268 74.1189 11.428 73.5837 10.8303C73.0525 10.2327 72.7869 9.44165 72.7869 8.45728V8.3811ZM73.8767 8.51001C73.8767 9.21313 74.0388 9.77759 74.363 10.2034C74.6912 10.6292 75.1287 10.842 75.6755 10.842C76.2263 10.842 76.6638 10.6272 76.988 10.1975C77.3123 9.76392 77.4744 9.15845 77.4744 8.3811C77.4744 7.68579 77.3083 7.12329 76.9763 6.6936C76.6482 6.26001 76.2107 6.04321 75.6638 6.04321C75.1287 6.04321 74.697 6.2561 74.3689 6.68188C74.0408 7.10767 73.8767 7.71704 73.8767 8.51001Z" fill="#EDEDED"/>
</svg>
