<svg width="196" height="60" viewBox="0 0 196 60" fill="none" xmlns="http://www.w3.org/2000/svg">
<g filter="url(#filter0_dd)">
<rect x="17" y="16" width="162" height="27" rx="13.5" fill="#596BE4"/>
<path d="M28.9502 34V24.7578H32.1177C33.1629 24.7578 33.9585 24.9673 34.5044 25.3862C35.0503 25.8052 35.3232 26.4294 35.3232 27.2588C35.3232 27.682 35.209 28.0628 34.9805 28.4014C34.752 28.7399 34.4176 29.0023 33.9775 29.1885C34.4769 29.3239 34.862 29.5799 35.1328 29.9565C35.4079 30.3289 35.5454 30.7775 35.5454 31.3022C35.5454 32.1698 35.2661 32.8363 34.7075 33.3018C34.1532 33.7673 33.3576 34 32.3208 34H28.9502ZM30.5562 29.8296V32.7178H32.3398C32.8434 32.7178 33.237 32.5929 33.5205 32.3433C33.804 32.0936 33.9458 31.7466 33.9458 31.3022C33.9458 30.3416 33.4549 29.8507 32.4731 29.8296H30.5562ZM30.5562 28.6489H32.1304C32.6297 28.6489 33.019 28.5368 33.2983 28.3125C33.5819 28.084 33.7236 27.7624 33.7236 27.3477C33.7236 26.8906 33.5924 26.5605 33.3301 26.3574C33.0719 26.1543 32.6678 26.0527 32.1177 26.0527H30.5562V28.6489ZM38.6621 29.3154H40.1729C40.7357 29.3154 41.2266 29.4128 41.6455 29.6074C42.0645 29.8021 42.3818 30.075 42.5977 30.4263C42.8177 30.7775 42.9277 31.1859 42.9277 31.6514C42.9277 32.3581 42.6781 32.9251 42.1787 33.3525C41.6794 33.7799 41.015 33.9958 40.1855 34H37.1196V27.1318H38.6621V29.3154ZM45.6128 34H44.0703V27.1318H45.6128V34ZM38.6621 30.5532V32.7686H40.1665C40.5431 32.7686 40.8394 32.6755 41.0552 32.4893C41.2752 32.2988 41.3853 32.0301 41.3853 31.6831C41.3853 31.3361 41.2773 31.0632 41.0615 30.8643C40.8499 30.6611 40.5622 30.5575 40.1982 30.5532H38.6621ZM53.2871 34H51.7446V28.376H49.0659V34H47.5234V27.1318H53.2871V34ZM54.6392 30.5024C54.6392 29.8296 54.7725 29.2244 55.0391 28.687C55.3057 28.1453 55.6802 27.7306 56.1626 27.4429C56.645 27.1509 57.1994 27.0049 57.8257 27.0049C58.7524 27.0049 59.5036 27.3032 60.0791 27.8999C60.6589 28.4966 60.972 29.2879 61.0186 30.2739L61.0249 30.6357C61.0249 31.3128 60.8937 31.918 60.6313 32.4512C60.3732 32.9844 60.0008 33.397 59.5142 33.689C59.0317 33.981 58.4731 34.127 57.8384 34.127C56.8693 34.127 56.0928 33.8053 55.5088 33.1621C54.929 32.5146 54.6392 31.6535 54.6392 30.5786V30.5024ZM56.1816 30.6357C56.1816 31.3424 56.3276 31.8968 56.6196 32.2988C56.9116 32.6966 57.3179 32.8955 57.8384 32.8955C58.3589 32.8955 58.763 32.6924 59.0508 32.2861C59.3428 31.8799 59.4888 31.2853 59.4888 30.5024C59.4888 29.8084 59.3385 29.2583 59.0381 28.8521C58.7419 28.4458 58.3377 28.2427 57.8257 28.2427C57.3221 28.2427 56.9222 28.4437 56.626 28.8457C56.3298 29.2435 56.1816 29.8402 56.1816 30.6357ZM68.0645 27.1318V34H66.522V28.376H64.5796L64.4526 30.769C64.3722 31.9201 64.1501 32.7474 63.7861 33.251C63.4264 33.7503 62.8742 34 62.1294 34H61.6533L61.647 32.7178L61.9644 32.686C62.3029 32.6395 62.5483 32.4342 62.7007 32.0703C62.8573 31.7021 62.9567 31.0335 62.999 30.0645L63.126 27.1318H68.0645ZM75.5229 34H73.9805V31.2261H71.3081V34H69.7656V27.1318H71.3081V29.9946H73.9805V27.1318H75.5229V34ZM81.458 27.1318H82.9941V34H81.458V29.417L78.7666 34H77.2305V27.1318H78.7666V31.7148L81.458 27.1318ZM90.04 28.3569H87.812V34H86.2695V28.3569H84.0669V27.1318H90.04V28.3569ZM92.7314 29.3154H94.2422C94.805 29.3154 95.2959 29.4128 95.7148 29.6074C96.1338 29.8021 96.4512 30.075 96.667 30.4263C96.887 30.7775 96.9971 31.1859 96.9971 31.6514C96.9971 32.3581 96.7474 32.9251 96.248 33.3525C95.7487 33.7799 95.0843 33.9958 94.2549 34H91.189V27.1318H92.7314V29.3154ZM92.7314 30.5532V32.7686H94.2358C94.6125 32.7686 94.9087 32.6755 95.1245 32.4893C95.3446 32.2988 95.4546 32.0301 95.4546 31.6831C95.4546 31.3361 95.3467 31.0632 95.1309 30.8643C94.9193 30.6611 94.6315 30.5575 94.2676 30.5532H92.7314ZM105.757 27.1318H107.293V34H105.757V29.417L103.065 34H101.529V27.1318H103.065V31.7148L105.757 27.1318ZM114.136 29.0107C114.136 29.3154 114.043 29.5968 113.856 29.855C113.674 30.1089 113.416 30.312 113.082 30.4644C113.869 30.7394 114.263 31.2705 114.263 32.0576C114.263 32.6882 114.007 33.1917 113.495 33.5684C112.983 33.9408 112.297 34.127 111.438 34.127C110.913 34.127 110.435 34.0402 110.003 33.8667C109.572 33.689 109.235 33.4393 108.994 33.1177C108.753 32.7918 108.632 32.4067 108.632 31.9624H110.168C110.168 32.2417 110.293 32.4766 110.543 32.667C110.793 32.8532 111.108 32.9463 111.489 32.9463C111.865 32.9463 112.164 32.8595 112.384 32.686C112.608 32.5083 112.72 32.2777 112.72 31.9941C112.72 31.6598 112.623 31.4186 112.428 31.2705C112.234 31.1224 111.933 31.0483 111.527 31.0483H110.422V29.9375H111.565C112.255 29.929 112.6 29.6455 112.6 29.0869C112.6 28.8076 112.5 28.5897 112.301 28.4331C112.102 28.2765 111.829 28.1982 111.482 28.1982C111.144 28.1982 110.858 28.2829 110.625 28.4521C110.393 28.6172 110.276 28.8267 110.276 29.0806H108.74C108.74 28.4754 108.994 27.9803 109.502 27.5952C110.01 27.2059 110.655 27.0112 111.438 27.0112C112.289 27.0112 112.951 27.1847 113.425 27.5317C113.899 27.8787 114.136 28.3717 114.136 29.0107ZM119.652 32.1021L121.683 27.1318H123.613V34H122.07V29.4551L120.179 34H119.131L117.233 29.4297V34H115.691V27.1318H117.633L119.652 32.1021ZM128.374 34.127C127.396 34.127 126.603 33.8201 125.993 33.2065C125.388 32.5887 125.085 31.7677 125.085 30.7437V30.5532C125.085 29.8677 125.217 29.2562 125.479 28.7188C125.746 28.1771 126.118 27.756 126.596 27.4556C127.074 27.1551 127.608 27.0049 128.196 27.0049C129.131 27.0049 129.853 27.3032 130.36 27.8999C130.872 28.4966 131.128 29.3408 131.128 30.4326V31.0547H126.641C126.687 31.6217 126.875 32.0703 127.206 32.4004C127.54 32.7305 127.959 32.8955 128.462 32.8955C129.169 32.8955 129.745 32.6099 130.189 32.0386L131.021 32.832C130.745 33.2425 130.377 33.562 129.916 33.7905C129.459 34.0148 128.945 34.127 128.374 34.127ZM128.189 28.2427C127.766 28.2427 127.424 28.3908 127.161 28.687C126.903 28.9832 126.738 29.3958 126.666 29.9248H129.605V29.8105C129.571 29.2943 129.434 28.9049 129.192 28.6426C128.951 28.376 128.617 28.2427 128.189 28.2427ZM138.346 30.6357C138.346 31.6979 138.104 32.5464 137.622 33.1812C137.14 33.8117 136.492 34.127 135.68 34.127C134.926 34.127 134.323 33.8794 133.871 33.3843V36.6406H132.328V27.1318H133.75L133.813 27.8301C134.266 27.2799 134.882 27.0049 135.661 27.0049C136.499 27.0049 137.154 27.318 137.628 27.9443C138.107 28.5664 138.346 29.4318 138.346 30.5405V30.6357ZM136.81 30.5024C136.81 29.8169 136.672 29.2731 136.397 28.8711C136.126 28.4691 135.737 28.2681 135.229 28.2681C134.598 28.2681 134.146 28.5283 133.871 29.0488V32.0957C134.15 32.6289 134.607 32.8955 135.242 32.8955C135.733 32.8955 136.116 32.6987 136.391 32.3052C136.67 31.9074 136.81 31.3065 136.81 30.5024ZM142.681 34.127C141.704 34.127 140.91 33.8201 140.301 33.2065C139.696 32.5887 139.393 31.7677 139.393 30.7437V30.5532C139.393 29.8677 139.524 29.2562 139.787 28.7188C140.053 28.1771 140.426 27.756 140.904 27.4556C141.382 27.1551 141.915 27.0049 142.503 27.0049C143.439 27.0049 144.16 27.3032 144.668 27.8999C145.18 28.4966 145.436 29.3408 145.436 30.4326V31.0547H140.948C140.995 31.6217 141.183 32.0703 141.513 32.4004C141.847 32.7305 142.266 32.8955 142.77 32.8955C143.477 32.8955 144.052 32.6099 144.497 32.0386L145.328 32.832C145.053 33.2425 144.685 33.562 144.224 33.7905C143.767 34.0148 143.252 34.127 142.681 34.127ZM142.497 28.2427C142.074 28.2427 141.731 28.3908 141.469 28.687C141.211 28.9832 141.046 29.3958 140.974 29.9248H143.913V29.8105C143.879 29.2943 143.741 28.9049 143.5 28.6426C143.259 28.376 142.924 28.2427 142.497 28.2427ZM152.457 34H150.914V31.2261H148.242V34H146.699V27.1318H148.242V29.9946H150.914V27.1318H152.457V34ZM158.392 27.1318H159.928V34H158.392V29.417L155.7 34H154.164V27.1318H155.7V31.7148L158.392 27.1318ZM167.069 27.1318V34H165.533V31.48H164.092L162.625 34H161.026L162.645 31.2261C162.221 31.0483 161.896 30.7944 161.667 30.4644C161.443 30.1343 161.331 29.7555 161.331 29.3281C161.331 28.6891 161.576 28.1665 162.067 27.7603C162.562 27.3498 163.229 27.1403 164.066 27.1318H167.069ZM162.873 29.3662C162.873 29.654 162.979 29.8888 163.19 30.0708C163.406 30.2485 163.681 30.3374 164.016 30.3374H165.533V28.3569H164.111C163.734 28.3569 163.434 28.4521 163.209 28.6426C162.985 28.833 162.873 29.0742 162.873 29.3662Z" fill="white"/>
</g>
<defs>
<filter id="filter0_dd" x="0" y="0" width="196" height="60" filterUnits="userSpaceOnUse" color-interpolation-filters="sRGB">
<feFlood flood-opacity="0" result="BackgroundImageFix"/>
<feColorMatrix in="SourceAlpha" type="matrix" values="0 0 0 0 0 0 0 0 0 0 0 0 0 0 0 0 0 0 127 0"/>
<feOffset dx="4" dy="4"/>
<feGaussianBlur stdDeviation="6.5"/>
<feColorMatrix type="matrix" values="0 0 0 0 0.317187 0 0 0 0 0.317187 0 0 0 0 0.317187 0 0 0 1 0"/>
<feBlend mode="normal" in2="BackgroundImageFix" result="effect1_dropShadow"/>
<feColorMatrix in="SourceAlpha" type="matrix" values="0 0 0 0 0 0 0 0 0 0 0 0 0 0 0 0 0 0 127 0"/>
<feOffset dx="-4" dy="-3"/>
<feGaussianBlur stdDeviation="6.5"/>
<feColorMatrix type="matrix" values="0 0 0 0 0.555404 0 0 0 0 0.543833 0 0 0 0 0.543833 0 0 0 0.55 0"/>
<feBlend mode="normal" in2="effect1_dropShadow" result="effect2_dropShadow"/>
<feBlend mode="normal" in="SourceGraphic" in2="effect2_dropShadow" result="shape"/>
</filter>
</defs>
</svg>
