<svg width="27" height="25" viewBox="0 0 27 25" fill="none" xmlns="http://www.w3.org/2000/svg">
<g filter="url(#filter0_i)">
<rect width="27" height="25" rx="4" fill="url(#paint0_linear)"/>
</g>
<path d="M10.9102 12.417L11.4116 7.75781H16.3755V9.09082H12.6938L12.4399 11.2998C12.8674 11.0544 13.3498 10.9316 13.8872 10.9316C14.7674 10.9316 15.4508 11.2131 15.9375 11.7759C16.4284 12.3387 16.6738 13.0962 16.6738 14.0483C16.6738 14.9878 16.403 15.7368 15.8613 16.2954C15.3197 16.8498 14.577 17.127 13.6333 17.127C12.7869 17.127 12.0845 16.8879 11.5259 16.4097C10.9715 15.9272 10.6711 15.2925 10.6245 14.5054H12.1162C12.1755 14.9539 12.3363 15.2988 12.5986 15.54C12.861 15.777 13.2038 15.8955 13.627 15.8955C14.1009 15.8955 14.4691 15.7262 14.7314 15.3877C14.998 15.0492 15.1313 14.5879 15.1313 14.0039C15.1313 13.4411 14.9854 12.9967 14.6934 12.6709C14.4014 12.3408 13.9993 12.1758 13.4873 12.1758C13.208 12.1758 12.971 12.2139 12.7764 12.29C12.5817 12.362 12.3701 12.5059 12.1416 12.7217L10.9102 12.417Z" fill="#EDEDED"/>
<defs>
<filter id="filter0_i" x="0" y="0" width="29" height="27" filterUnits="userSpaceOnUse" color-interpolation-filters="sRGB">
<feFlood flood-opacity="0" result="BackgroundImageFix"/>
<feBlend mode="normal" in="SourceGraphic" in2="BackgroundImageFix" result="shape"/>
<feColorMatrix in="SourceAlpha" type="matrix" values="0 0 0 0 0 0 0 0 0 0 0 0 0 0 0 0 0 0 127 0" result="hardAlpha"/>
<feOffset dx="2" dy="2"/>
<feGaussianBlur stdDeviation="2"/>
<feComposite in2="hardAlpha" operator="arithmetic" k2="-1" k3="1"/>
<feColorMatrix type="matrix" values="0 0 0 0 0.114518 0 0 0 0 0.114518 0 0 0 0 0.114518 0 0 0 1 0"/>
<feBlend mode="normal" in2="shape" result="effect1_innerShadow"/>
</filter>
<linearGradient id="paint0_linear" x1="63" y1="37" x2="12.7332" y2="7.13571" gradientUnits="userSpaceOnUse">
<stop stop-color="#777777"/>
<stop offset="1" stop-color="#313131"/>
<stop offset="1" stop-color="#924B4B"/>
<stop offset="1" stop-color="#924B4B"/>
</linearGradient>
</defs>
</svg>
