<svg width="83" height="16" viewBox="0 0 83 16" fill="none" xmlns="http://www.w3.org/2000/svg">
<path d="M21.4919 8.18524C21.4919 9.09084 21.3354 9.88641 21.0222 10.572C20.7091 11.2533 20.2605 11.778 19.6765 12.1462C19.0968 12.5101 18.4281 12.6921 17.6707 12.6921C16.9216 12.6921 16.253 12.5101 15.6648 12.1462C15.0808 11.778 14.628 11.2554 14.3064 10.5783C13.989 9.90122 13.8282 9.12046 13.824 8.23602V7.71552C13.824 6.81415 13.9827 6.01858 14.3 5.3288C14.6217 4.63902 15.0723 4.11216 15.6521 3.74823C16.2361 3.38007 16.9047 3.19598 17.658 3.19598C18.4112 3.19598 19.0777 3.37795 19.6575 3.74188C20.2415 4.10158 20.6921 4.62209 21.0095 5.30341C21.3269 5.98049 21.4877 6.76971 21.4919 7.67108V8.18524ZM19.886 7.70282C19.886 6.67873 19.6913 5.89374 19.302 5.34784C18.9169 4.80194 18.3689 4.52899 17.658 4.52899C16.9639 4.52899 16.4202 4.80194 16.0266 5.34784C15.6373 5.88951 15.4384 6.65757 15.4299 7.65204V8.18524C15.4299 9.20087 15.6267 9.98586 16.0203 10.5402C16.4181 11.0946 16.9682 11.3718 17.6707 11.3718C18.3816 11.3718 18.9275 11.1009 19.3083 10.5593C19.6934 10.0176 19.886 9.22626 19.886 8.18524V7.70282ZM28.3474 6.92206H26.1194V12.5651H24.5769V6.92206H22.3743V5.69696H28.3474V6.92206ZM31.8196 9.84833H31.0388V12.5651H29.4963V5.69696H31.0388V8.43915H31.718L33.616 5.69696H35.5203L33.0383 8.98505L35.7297 12.5651H33.7239L31.8196 9.84833ZM42.4138 5.69696V12.5651H40.8713V6.9411H38.929L38.802 9.33417C38.7216 10.4852 38.4994 11.3125 38.1355 11.8161C37.7758 12.3155 37.2236 12.5651 36.4788 12.5651H36.0027L35.9963 11.2829L36.3137 11.2512C36.6523 11.2046 36.8977 10.9994 37.05 10.6354C37.2066 10.2673 37.3061 9.59865 37.3484 8.62958L37.4753 5.69696H42.4138ZM45.7273 8.45819H47.0222C47.1365 7.58221 47.475 6.88186 48.0378 6.35712C48.6007 5.83238 49.3116 5.57001 50.1707 5.57001C51.0974 5.57001 51.8486 5.86835 52.4241 6.46503C53.0038 7.06171 53.317 7.85305 53.3635 8.83905L53.3699 9.20087C53.3699 9.87795 53.2387 10.4831 52.9763 11.0163C52.7182 11.5495 52.3458 11.9621 51.8591 12.2541C51.3767 12.5461 50.8181 12.6921 50.1833 12.6921C49.2947 12.6921 48.5647 12.417 47.9934 11.8669C47.4264 11.3168 47.0984 10.5931 47.0095 9.69598H45.7273V12.5651H44.1848V5.69696H45.7273V8.45819ZM48.5266 9.20087C48.5266 9.90757 48.6726 10.4619 48.9646 10.864C49.2566 11.2617 49.6628 11.4606 50.1833 11.4606C50.7039 11.4606 51.108 11.2575 51.3958 10.8513C51.6835 10.445 51.8274 9.85044 51.8274 9.06757C51.8274 8.36086 51.6772 7.80861 51.3767 7.41083C51.0805 7.00881 50.6785 6.8078 50.1707 6.8078C49.6671 6.8078 49.2672 7.00881 48.9709 7.41083C48.6747 7.80861 48.5266 8.40529 48.5266 9.20087ZM60.1492 12.5651H58.6067V10.2736C58.2089 10.3667 57.79 10.4133 57.3499 10.4133C56.4104 10.4133 55.6931 10.189 55.198 9.74042C54.7029 9.28762 54.4553 8.64016 54.4553 7.79803V5.69061H55.9978V7.79803C55.9978 8.29738 56.1078 8.65074 56.3279 8.85809C56.5522 9.06545 56.8928 9.16913 57.3499 9.16913C57.7646 9.16913 58.1835 9.12046 58.6067 9.02313V5.69696H60.1492V12.5651ZM66.0779 5.69696H67.614V12.5651H66.0779V7.98212L63.3865 12.5651H61.8503V5.69696H63.3865V10.28L66.0779 5.69696ZM74.6599 6.92206H72.4319V12.5651H70.8894V6.92206H68.6868V5.69696H74.6599V6.92206ZM77.3513 7.88055H78.8621C79.4249 7.88055 79.9158 7.97788 80.3347 8.17255C80.7537 8.36721 81.071 8.64016 81.2869 8.99139C81.5069 9.34263 81.6169 9.751 81.6169 10.2165C81.6169 10.9232 81.3673 11.4903 80.8679 11.9177C80.3686 12.3451 79.7042 12.5609 78.8748 12.5651H75.8088V5.69696H77.3513V7.88055ZM77.3513 9.11835V11.3337H78.8557C79.2323 11.3337 79.5286 11.2406 79.7444 11.0544C79.9644 10.864 80.0745 10.5952 80.0745 10.2482C80.0745 9.90122 79.9666 9.62828 79.7507 9.42938C79.5391 9.22626 79.2514 9.12258 78.8875 9.11835H77.3513Z" fill="white"/>
<rect x="0.54126" y="4.56512" width="7" height="7" fill="white"/>
</svg>
