<svg width="218" height="27" viewBox="0 0 218 27" fill="none" xmlns="http://www.w3.org/2000/svg">
<rect x="98" width="120" height="27" rx="3" fill="#3A3A3A"/>
<path d="M112.716 14.0391H111.624V18H110.024V8.75781H111.624V12.6426H112.506L115.223 8.75781H117.191L114.017 13.1821L117.47 18H115.541L112.716 14.0391ZM117.743 14.5024C117.743 13.8296 117.876 13.2244 118.143 12.687C118.41 12.1453 118.784 11.7306 119.267 11.4429C119.749 11.1509 120.303 11.0049 120.93 11.0049C121.856 11.0049 122.608 11.3032 123.183 11.8999C123.763 12.4966 124.076 13.2879 124.123 14.2739L124.129 14.6357C124.129 15.3128 123.998 15.918 123.735 16.4512C123.477 16.9844 123.105 17.397 122.618 17.689C122.136 17.981 121.577 18.127 120.942 18.127C119.973 18.127 119.197 17.8053 118.613 17.1621C118.033 16.5146 117.743 15.6535 117.743 14.5786V14.5024ZM119.286 14.6357C119.286 15.3424 119.432 15.8968 119.724 16.2988C120.016 16.6966 120.422 16.8955 120.942 16.8955C121.463 16.8955 121.867 16.6924 122.155 16.2861C122.447 15.8799 122.593 15.2853 122.593 14.5024C122.593 13.8084 122.443 13.2583 122.142 12.8521C121.846 12.4458 121.442 12.2427 120.93 12.2427C120.426 12.2427 120.026 12.4437 119.73 12.8457C119.434 13.2435 119.286 13.8402 119.286 14.6357ZM129.512 16.1021L131.543 11.1318H133.473V18H131.93V13.4551L130.039 18H128.991L127.093 13.4297V18H125.551V11.1318H127.493L129.512 16.1021ZM141.033 18H139.49V12.376H136.812V18H135.269V11.1318H141.033V18ZM146.961 11.1318H148.498V18H146.961V13.417L144.27 18H142.734V11.1318H144.27V15.7148L146.961 11.1318ZM155.975 11.1318V18H154.433V12.376H152.49L152.363 14.769C152.283 15.9201 152.061 16.7474 151.697 17.251C151.337 17.7503 150.785 18 150.04 18H149.564L149.558 16.7178L149.875 16.686C150.214 16.6395 150.459 16.4342 150.611 16.0703C150.768 15.7021 150.867 15.0335 150.91 14.0645L151.037 11.1318H155.975ZM161.904 11.1318H163.44V18H161.904V13.417L159.212 18H157.676V11.1318H159.212V15.7148L161.904 11.1318ZM171.095 14.6357C171.095 15.6979 170.854 16.5464 170.372 17.1812C169.889 17.8117 169.242 18.127 168.429 18.127C167.676 18.127 167.073 17.8794 166.62 17.3843V20.6406H165.078V11.1318H166.5L166.563 11.8301C167.016 11.2799 167.632 11.0049 168.41 11.0049C169.248 11.0049 169.904 11.318 170.378 11.9443C170.856 12.5664 171.095 13.4318 171.095 14.5405V14.6357ZM169.559 14.5024C169.559 13.8169 169.422 13.2731 169.146 12.8711C168.876 12.4691 168.486 12.2681 167.979 12.2681C167.348 12.2681 166.895 12.5283 166.62 13.0488V16.0957C166.899 16.6289 167.356 16.8955 167.991 16.8955C168.482 16.8955 168.865 16.6987 169.14 16.3052C169.419 15.9074 169.559 15.3065 169.559 14.5024ZM172.117 14.5024C172.117 13.8296 172.25 13.2244 172.517 12.687C172.784 12.1453 173.158 11.7306 173.641 11.4429C174.123 11.1509 174.677 11.0049 175.304 11.0049C176.23 11.0049 176.982 11.3032 177.557 11.8999C178.137 12.4966 178.45 13.2879 178.497 14.2739L178.503 14.6357C178.503 15.3128 178.372 15.918 178.109 16.4512C177.851 16.9844 177.479 17.397 176.992 17.689C176.51 17.981 175.951 18.127 175.316 18.127C174.347 18.127 173.571 17.8053 172.987 17.1621C172.407 16.5146 172.117 15.6535 172.117 14.5786V14.5024ZM173.66 14.6357C173.66 15.3424 173.806 15.8968 174.098 16.2988C174.39 16.6966 174.796 16.8955 175.316 16.8955C175.837 16.8955 176.241 16.6924 176.529 16.2861C176.821 15.8799 176.967 15.2853 176.967 14.5024C176.967 13.8084 176.817 13.2583 176.516 12.8521C176.22 12.4458 175.816 12.2427 175.304 12.2427C174.8 12.2427 174.4 12.4437 174.104 12.8457C173.808 13.2435 173.66 13.8402 173.66 14.6357ZM179.925 18V11.1318H182.711C183.651 11.1318 184.366 11.2969 184.857 11.627C185.348 11.9528 185.593 12.4225 185.593 13.0361C185.593 13.3535 185.494 13.6392 185.295 13.8931C185.1 14.1427 184.81 14.3353 184.425 14.4707C184.874 14.5638 185.229 14.7521 185.492 15.0356C185.754 15.3192 185.885 15.6535 185.885 16.0386C185.885 16.6776 185.648 17.1642 185.174 17.4985C184.705 17.8328 184.028 18 183.143 18H179.925ZM181.467 15.0737V16.7812H183.156C183.947 16.7812 184.343 16.4977 184.343 15.9307C184.343 15.3594 183.941 15.0737 183.137 15.0737H181.467ZM181.467 13.9692H182.737C183.613 13.9692 184.051 13.7111 184.051 13.1948C184.051 12.6532 183.636 12.3739 182.807 12.3569H181.467V13.9692ZM191.325 18C191.257 17.8688 191.198 17.6551 191.147 17.3589C190.657 17.8709 190.056 18.127 189.345 18.127C188.655 18.127 188.092 17.9302 187.656 17.5366C187.22 17.1431 187.002 16.6564 187.002 16.0767C187.002 15.3446 187.273 14.7839 187.815 14.3945C188.361 14.001 189.139 13.8042 190.151 13.8042H191.097V13.3535C191.097 12.998 190.997 12.7145 190.798 12.5029C190.599 12.2871 190.297 12.1792 189.891 12.1792C189.539 12.1792 189.252 12.2681 189.027 12.4458C188.803 12.6193 188.691 12.8415 188.691 13.1123H187.148C187.148 12.7357 187.273 12.3844 187.523 12.0586C187.773 11.7285 188.111 11.4704 188.539 11.2842C188.97 11.098 189.451 11.0049 189.979 11.0049C190.784 11.0049 191.425 11.208 191.903 11.6143C192.381 12.0163 192.626 12.5833 192.639 13.3154V16.4131C192.639 17.0309 192.726 17.5239 192.899 17.8921V18H191.325ZM189.63 16.8892C189.935 16.8892 190.221 16.8151 190.487 16.667C190.758 16.5189 190.961 16.32 191.097 16.0703V14.7754H190.265C189.694 14.7754 189.264 14.8748 188.977 15.0737C188.689 15.2726 188.545 15.554 188.545 15.918C188.545 16.2142 188.642 16.4512 188.837 16.6289C189.036 16.8024 189.3 16.8892 189.63 16.8892ZM199.558 12.3569H197.33V18H195.788V12.3569H193.585V11.1318H199.558V12.3569ZM202.25 13.3154H203.76C204.323 13.3154 204.814 13.4128 205.233 13.6074C205.652 13.8021 205.969 14.075 206.185 14.4263C206.405 14.7775 206.515 15.1859 206.515 15.6514C206.515 16.3581 206.265 16.9251 205.766 17.3525C205.267 17.7799 204.602 17.9958 203.773 18H200.707V11.1318H202.25V13.3154ZM202.25 14.5532V16.7686H203.754C204.131 16.7686 204.427 16.6755 204.643 16.4893C204.863 16.2988 204.973 16.0301 204.973 15.6831C204.973 15.3361 204.865 15.0632 204.649 14.8643C204.437 14.6611 204.15 14.5575 203.786 14.5532H202.25Z" fill="white"/>
<rect width="88" height="27" rx="3" fill="#3A3A3A"/>
<path d="M19.4028 14.9912C19.3097 15.9772 18.9458 16.7474 18.311 17.3018C17.6763 17.8519 16.832 18.127 15.7783 18.127C15.042 18.127 14.3924 17.9535 13.8296 17.6064C13.271 17.2552 12.8394 16.758 12.5347 16.1147C12.23 15.4715 12.0713 14.7246 12.0586 13.874V13.0107C12.0586 12.139 12.2131 11.3709 12.522 10.7065C12.8309 10.0422 13.2731 9.53011 13.8486 9.17041C14.4284 8.81071 15.097 8.63086 15.8545 8.63086C16.8743 8.63086 17.6953 8.90804 18.3174 9.4624C18.9395 10.0168 19.3013 10.7996 19.4028 11.811H17.8032C17.7271 11.1466 17.5324 10.6685 17.2192 10.3765C16.9103 10.0802 16.4554 9.93213 15.8545 9.93213C15.1562 9.93213 14.6188 10.1882 14.2422 10.7002C13.8698 11.208 13.6794 11.9549 13.6709 12.9409V13.7598C13.6709 14.7585 13.8486 15.5202 14.2041 16.0449C14.5638 16.5697 15.0885 16.832 15.7783 16.832C16.4089 16.832 16.8828 16.6903 17.2002 16.4067C17.5176 16.1232 17.7186 15.6514 17.8032 14.9912H19.4028ZM20.4058 14.5024C20.4058 13.8296 20.5391 13.2244 20.8057 12.687C21.0723 12.1453 21.4468 11.7306 21.9292 11.4429C22.4116 11.1509 22.966 11.0049 23.5923 11.0049C24.519 11.0049 25.2702 11.3032 25.8457 11.8999C26.4255 12.4966 26.7386 13.2879 26.7852 14.2739L26.7915 14.6357C26.7915 15.3128 26.6603 15.918 26.3979 16.4512C26.1398 16.9844 25.7674 17.397 25.2808 17.689C24.7983 17.981 24.2397 18.127 23.605 18.127C22.6359 18.127 21.8594 17.8053 21.2754 17.1621C20.6956 16.5146 20.4058 15.6535 20.4058 14.5786V14.5024ZM21.9482 14.6357C21.9482 15.3424 22.0942 15.8968 22.3862 16.2988C22.6782 16.6966 23.0845 16.8955 23.605 16.8955C24.1255 16.8955 24.5296 16.6924 24.8174 16.2861C25.1094 15.8799 25.2554 15.2853 25.2554 14.5024C25.2554 13.8084 25.1051 13.2583 24.8047 12.8521C24.5085 12.4458 24.1043 12.2427 23.5923 12.2427C23.0887 12.2427 22.6888 12.4437 22.3926 12.8457C22.0964 13.2435 21.9482 13.8402 21.9482 14.6357ZM30.4224 13.3916L31.73 11.1318H33.4438L31.3428 14.5151L33.5137 18H31.8125L30.4414 15.6514L29.0767 18H27.3628L29.5337 14.5151L27.439 11.1318H29.1401L30.4224 13.3916ZM40.5088 14.6357C40.5088 15.6979 40.2676 16.5464 39.7852 17.1812C39.3027 17.8117 38.6553 18.127 37.8428 18.127C37.0895 18.127 36.4865 17.8794 36.0337 17.3843V20.6406H34.4912V11.1318H35.9131L35.9766 11.8301C36.4294 11.2799 37.0451 11.0049 37.8237 11.0049C38.6616 11.0049 39.3175 11.318 39.7915 11.9443C40.2697 12.5664 40.5088 13.4318 40.5088 14.5405V14.6357ZM38.9727 14.5024C38.9727 13.8169 38.8351 13.2731 38.5601 12.8711C38.2892 12.4691 37.8999 12.2681 37.3921 12.2681C36.7616 12.2681 36.3088 12.5283 36.0337 13.0488V16.0957C36.313 16.6289 36.77 16.8955 37.4048 16.8955C37.8957 16.8955 38.2786 16.6987 38.5537 16.3052C38.833 15.9074 38.9727 15.3065 38.9727 14.5024ZM45.9233 18C45.8556 17.8688 45.7964 17.6551 45.7456 17.3589C45.2547 17.8709 44.6538 18.127 43.9429 18.127C43.2531 18.127 42.6903 17.9302 42.2544 17.5366C41.8185 17.1431 41.6006 16.6564 41.6006 16.0767C41.6006 15.3446 41.8714 14.7839 42.4131 14.3945C42.959 14.001 43.7376 13.8042 44.749 13.8042H45.6948V13.3535C45.6948 12.998 45.5954 12.7145 45.3965 12.5029C45.1976 12.2871 44.895 12.1792 44.4888 12.1792C44.1375 12.1792 43.8498 12.2681 43.6255 12.4458C43.4012 12.6193 43.2891 12.8415 43.2891 13.1123H41.7466C41.7466 12.7357 41.8714 12.3844 42.1211 12.0586C42.3708 11.7285 42.7093 11.4704 43.1367 11.2842C43.5684 11.098 44.0487 11.0049 44.5776 11.0049C45.3817 11.0049 46.0228 11.208 46.501 11.6143C46.9792 12.0163 47.2246 12.5833 47.2373 13.3154V16.4131C47.2373 17.0309 47.3241 17.5239 47.4976 17.8921V18H45.9233ZM44.2285 16.8892C44.5332 16.8892 44.8188 16.8151 45.0854 16.667C45.3563 16.5189 45.5594 16.32 45.6948 16.0703V14.7754H44.8633C44.292 14.7754 43.8625 14.8748 43.5747 15.0737C43.2869 15.2726 43.1431 15.554 43.1431 15.918C43.1431 16.2142 43.2404 16.4512 43.4351 16.6289C43.634 16.8024 43.8984 16.8892 44.2285 16.8892ZM54.6704 18H53.1279V15.2261H50.4556V18H48.9131V11.1318H50.4556V13.9946H53.1279V11.1318H54.6704V18ZM60.6055 11.1318H62.1416V18H60.6055V13.417L57.9141 18H56.3779V11.1318H57.9141V15.7148L60.6055 11.1318ZM69.1875 12.3569H66.9595V18H65.417V12.3569H63.2144V11.1318H69.1875V12.3569ZM71.8789 13.3154H73.3896C73.9525 13.3154 74.4434 13.4128 74.8623 13.6074C75.2812 13.8021 75.5986 14.075 75.8145 14.4263C76.0345 14.7775 76.1445 15.1859 76.1445 15.6514C76.1445 16.3581 75.8949 16.9251 75.3955 17.3525C74.8962 17.7799 74.2318 17.9958 73.4023 18H70.3364V11.1318H71.8789V13.3154ZM71.8789 14.5532V16.7686H73.3833C73.7599 16.7686 74.0562 16.6755 74.272 16.4893C74.492 16.2988 74.6021 16.0301 74.6021 15.6831C74.6021 15.3361 74.4941 15.0632 74.2783 14.8643C74.0667 14.6611 73.779 14.5575 73.415 14.5532H71.8789Z" fill="white"/>
</svg>
