<svg width="152" height="61" viewBox="0 0 152 61" fill="none" xmlns="http://www.w3.org/2000/svg">
<g filter="url(#filter0_dd)">
<rect x="134.207" y="43.6096" width="117" height="27" rx="13.5" transform="rotate(-180 134.207 43.6096)" fill="#4D5AB2"/>
</g>
<path d="M37.1189 30.1096L30.2069 34.1096L30.2069 26.1096L37.1189 30.1096Z" fill="white"/>
<path d="M51.5613 34.6096H49.9617V26.6624H45.8928V34.6096H44.2932V25.3674H51.5613V34.6096ZM53.0657 31.1121C53.0657 30.4392 53.199 29.8341 53.4656 29.2966C53.7322 28.755 54.1067 28.3403 54.5891 28.0525C55.0715 27.7605 55.6259 27.6145 56.2522 27.6145C57.179 27.6145 57.9301 27.9128 58.5056 28.5095C59.0854 29.1062 59.3985 29.8975 59.4451 30.8835L59.4514 31.2454C59.4514 31.9224 59.3202 32.5276 59.0579 33.0608C58.7997 33.594 58.4273 34.0066 57.9407 34.2986C57.4583 34.5906 56.8997 34.7366 56.2649 34.7366C55.2958 34.7366 54.5193 34.415 53.9353 33.7717C53.3556 33.1243 53.0657 32.2631 53.0657 31.1882V31.1121ZM54.6082 31.2454C54.6082 31.9521 54.7542 32.5064 55.0461 32.9084C55.3381 33.3062 55.7444 33.5051 56.2649 33.5051C56.7854 33.5051 57.1895 33.302 57.4773 32.8958C57.7693 32.4895 57.9153 31.8949 57.9153 31.1121C57.9153 30.4181 57.7651 29.8679 57.4646 29.4617C57.1684 29.0554 56.7642 28.8523 56.2522 28.8523C55.7486 28.8523 55.3487 29.0533 55.0525 29.4553C54.7563 29.8531 54.6082 30.4498 54.6082 31.2454ZM60.3274 33.3782C60.7548 32.9 61.0404 32.4472 61.1843 32.0198C61.3324 31.5881 61.4213 31.038 61.4509 30.3694L61.5398 27.7415H66.3069V33.3782H67.259V36.6536H65.7229V34.6096H61.3176V36.6536H59.7561L59.7625 33.3782H60.3274ZM62.1365 33.3782H64.7708V29.0681H63.0378L62.9934 30.3821C62.9342 31.6431 62.6485 32.6418 62.1365 33.3782ZM70.6868 31.8928H69.906V34.6096H68.3635V27.7415H69.906V30.4836H70.5852L72.4832 27.7415H74.3875L71.9055 31.0295L74.5969 34.6096H72.5911L70.6868 31.8928ZM81.281 27.7415V34.6096H79.7385V28.9856H77.7961L77.6692 31.3787C77.5888 32.5297 77.3666 33.357 77.0027 33.8606C76.643 34.3599 76.0907 34.6096 75.3459 34.6096H74.8699L74.8635 33.3274L75.1809 33.2957C75.5194 33.2491 75.7649 33.0439 75.9172 32.6799C76.0738 32.3118 76.1733 31.6431 76.2156 30.6741L76.3425 27.7415H81.281ZM84.5945 30.5027H85.8894C86.0037 29.6267 86.3422 28.9264 86.905 28.4016C87.4679 27.8769 88.1788 27.6145 89.0378 27.6145C89.9646 27.6145 90.7157 27.9128 91.2913 28.5095C91.871 29.1062 92.1842 29.8975 92.2307 30.8835L92.2371 31.2454C92.2371 31.9224 92.1059 32.5276 91.8435 33.0608C91.5854 33.594 91.213 34.0066 90.7263 34.2986C90.2439 34.5906 89.6853 34.7366 89.0505 34.7366C88.1619 34.7366 87.4319 34.4615 86.8606 33.9114C86.2935 33.3612 85.9656 32.6376 85.8767 31.7405H84.5945V34.6096H83.052V27.7415H84.5945V30.5027ZM87.3938 31.2454C87.3938 31.9521 87.5398 32.5064 87.8318 32.9084C88.1238 33.3062 88.53 33.5051 89.0505 33.5051C89.571 33.5051 89.9752 33.302 90.2629 32.8958C90.5507 32.4895 90.6946 31.8949 90.6946 31.1121C90.6946 30.4054 90.5444 29.8531 90.2439 29.4553C89.9477 29.0533 89.5457 28.8523 89.0378 28.8523C88.5343 28.8523 88.1344 29.0533 87.8381 29.4553C87.5419 29.8531 87.3938 30.4498 87.3938 31.2454ZM99.0164 34.6096H97.4739V32.3181C97.0761 32.4112 96.6571 32.4578 96.217 32.4578C95.2776 32.4578 94.5603 32.2335 94.0652 31.7849C93.5701 31.3321 93.3225 30.6847 93.3225 29.8425V27.7351H94.865V29.8425C94.865 30.3419 94.975 30.6952 95.1951 30.9026C95.4194 31.1099 95.76 31.2136 96.217 31.2136C96.6318 31.2136 97.0507 31.165 97.4739 31.0676V27.7415H99.0164V34.6096ZM104.945 27.7415H106.481V34.6096H104.945V30.0266L102.254 34.6096H100.718V27.7415H102.254V32.3245L104.945 27.7415ZM113.527 28.9666H111.299V34.6096H109.757V28.9666H107.554V27.7415H113.527V28.9666ZM116.219 29.925H117.729C118.292 29.925 118.783 30.0224 119.202 30.217C119.621 30.4117 119.938 30.6847 120.154 31.0359C120.374 31.3871 120.484 31.7955 120.484 32.261C120.484 32.9677 120.234 33.5347 119.735 33.9622C119.236 34.3896 118.571 34.6054 117.742 34.6096H114.676V27.7415H116.219V29.925ZM116.219 31.1628V33.3782H117.723C118.1 33.3782 118.396 33.2851 118.612 33.0989C118.832 32.9084 118.942 32.6397 118.942 32.2927C118.942 31.9457 118.834 31.6728 118.618 31.4739C118.406 31.2708 118.119 31.1671 117.755 31.1628H116.219Z" fill="white"/>
<defs>
<filter id="filter0_dd" x="0.206787" y="0.609619" width="151" height="60" filterUnits="userSpaceOnUse" color-interpolation-filters="sRGB">
<feFlood flood-opacity="0" result="BackgroundImageFix"/>
<feColorMatrix in="SourceAlpha" type="matrix" values="0 0 0 0 0 0 0 0 0 0 0 0 0 0 0 0 0 0 127 0"/>
<feOffset dx="4" dy="4"/>
<feGaussianBlur stdDeviation="6.5"/>
<feColorMatrix type="matrix" values="0 0 0 0 0.317187 0 0 0 0 0.317187 0 0 0 0 0.317187 0 0 0 1 0"/>
<feBlend mode="normal" in2="BackgroundImageFix" result="effect1_dropShadow"/>
<feColorMatrix in="SourceAlpha" type="matrix" values="0 0 0 0 0 0 0 0 0 0 0 0 0 0 0 0 0 0 127 0"/>
<feOffset dx="-4" dy="-3"/>
<feGaussianBlur stdDeviation="6.5"/>
<feColorMatrix type="matrix" values="0 0 0 0 0.555404 0 0 0 0 0.543833 0 0 0 0 0.543833 0 0 0 0.55 0"/>
<feBlend mode="normal" in2="effect1_dropShadow" result="effect2_dropShadow"/>
<feBlend mode="normal" in="SourceGraphic" in2="effect2_dropShadow" result="shape"/>
</filter>
</defs>
</svg>
