<svg width="80" height="16" viewBox="0 0 80 16" fill="none" xmlns="http://www.w3.org/2000/svg">
<path d="M22.7595 7.57489C22.7595 8.41083 22.6189 9.1413 22.3376 9.7663C22.0564 10.3874 21.658 10.862 21.1423 11.1901C20.6267 11.5182 20.0251 11.6823 19.3376 11.6823C18.6658 11.6823 18.0701 11.5182 17.5505 11.1901C17.031 10.8581 16.6267 10.3874 16.3376 9.77802C16.0525 9.16473 15.906 8.45575 15.8982 7.65106V7.03583C15.8982 6.21552 16.0408 5.49091 16.3259 4.862C16.6111 4.23309 17.0134 3.75262 17.533 3.42059C18.0564 3.08466 18.6541 2.91669 19.3259 2.91669C20.0095 2.91669 20.6111 3.0827 21.1306 3.41473C21.6541 3.74286 22.0564 4.22137 22.3376 4.85028C22.6189 5.47528 22.7595 6.2038 22.7595 7.03583V7.57489ZM21.6404 7.02411C21.6404 6.01239 21.4373 5.237 21.031 4.69794C20.6248 4.15497 20.0564 3.88348 19.3259 3.88348C18.615 3.88348 18.0544 4.15497 17.6443 4.69794C17.238 5.237 17.0291 5.987 17.0173 6.94794V7.57489C17.0173 8.55536 17.2224 9.32684 17.6326 9.88934C18.0466 10.4479 18.615 10.7272 19.3376 10.7272C20.0642 10.7272 20.6267 10.4636 21.0251 9.93622C21.4236 9.40497 21.6287 8.6452 21.6404 7.65692V7.02411ZM28.988 6.10419H26.8611V11.5651H25.7771V6.10419H23.6912V5.22528H28.988V6.10419ZM32.0173 8.86395H31.2263V11.5651H30.1365V5.22528H31.2263V7.90887H31.9353L34.0681 5.22528H35.3806L32.8728 8.27216L35.5916 11.5651H34.2146L32.0173 8.86395ZM41.7205 5.22528V11.5651H40.6306V6.12177H38.4744L38.3455 8.49481C38.2751 9.58466 38.0916 10.364 37.7947 10.8327C37.5017 11.3015 37.0349 11.5456 36.3943 11.5651H35.9607V10.61L36.2712 10.5866C36.6228 10.5475 36.8748 10.3444 37.0271 9.97723C37.1794 9.61005 37.2771 8.93036 37.3201 7.93817L37.4373 5.22528H41.7205ZM44.6443 7.91473H46.1677C46.2498 7.07098 46.5486 6.39325 47.0642 5.88153C47.5837 5.36591 48.238 5.10809 49.0271 5.10809C49.8552 5.10809 50.533 5.38739 51.0603 5.94598C51.5876 6.50458 51.8728 7.23114 51.9158 8.12567L51.9216 8.46552C51.9216 9.0827 51.8005 9.63934 51.5583 10.1354C51.3162 10.6315 50.9763 11.0143 50.5388 11.2839C50.1013 11.5495 49.6013 11.6823 49.0388 11.6823C48.2224 11.6823 47.5544 11.4167 47.0349 10.8854C46.5154 10.3503 46.2244 9.65692 46.1619 8.80536H44.6443V11.5651H43.5603V5.22528H44.6443V7.91473ZM47.2341 8.46552C47.2341 9.16864 47.3962 9.73309 47.7205 10.1589C48.0486 10.5847 48.488 10.7975 49.0388 10.7975C49.5896 10.7975 50.0251 10.5807 50.3455 10.1472C50.6697 9.71356 50.8318 9.11005 50.8318 8.33661C50.8318 7.6452 50.6677 7.0827 50.3396 6.64911C50.0115 6.21552 49.574 5.99872 49.0271 5.99872C48.488 5.99872 48.0544 6.21161 47.7263 6.63739C47.3982 7.06317 47.2341 7.67255 47.2341 8.46552ZM58.0447 11.5651H56.9548V9.26825C56.4783 9.39325 55.99 9.45575 55.49 9.45575C54.697 9.45575 54.0916 9.25262 53.6736 8.84637C53.2595 8.44012 53.0486 7.862 53.0408 7.112V5.21942H54.1248V7.14716C54.1443 8.09247 54.5994 8.56512 55.49 8.56512C55.99 8.56512 56.4783 8.50262 56.9548 8.37762V5.22528H58.0447V11.5651ZM62.4158 11.6823C61.5564 11.6823 60.8572 11.4011 60.3181 10.8386C59.7791 10.2722 59.5095 9.5163 59.5095 8.57098V8.37177C59.5095 7.74286 59.6287 7.18231 59.8669 6.69012C60.1091 6.19403 60.4451 5.80731 60.8748 5.52997C61.3083 5.24872 61.7771 5.10809 62.281 5.10809C63.1052 5.10809 63.7458 5.37958 64.2029 5.92255C64.6599 6.46552 64.8884 7.24286 64.8884 8.25458V8.70575H60.5935C60.6091 9.33075 60.7908 9.83661 61.1384 10.2233C61.49 10.6061 61.9353 10.7975 62.4744 10.7975C62.8572 10.7975 63.1814 10.7194 63.447 10.5632C63.7126 10.4069 63.9451 10.1999 64.1443 9.94208L64.8064 10.4577C64.2751 11.2741 63.4783 11.6823 62.4158 11.6823ZM62.281 5.99872C61.8435 5.99872 61.4763 6.15887 61.1794 6.47919C60.8826 6.79559 60.699 7.24091 60.6287 7.81512H63.8044V7.73309C63.7732 7.18231 63.6248 6.75653 63.3591 6.45575C63.0935 6.15106 62.7341 5.99872 62.281 5.99872ZM71.3279 11.5651H70.2439V8.85809H67.3318V11.5651H66.2419V5.22528H67.3318V7.97333H70.2439V5.22528H71.3279V11.5651ZM72.7869 8.33661C72.7869 7.71552 72.908 7.15692 73.1501 6.66083C73.3962 6.16473 73.7361 5.78192 74.1697 5.51239C74.6072 5.24286 75.1052 5.10809 75.6638 5.10809C76.5271 5.10809 77.2244 5.40692 77.7556 6.00458C78.2908 6.60223 78.5583 7.39716 78.5583 8.38934V8.46552C78.5583 9.0827 78.4392 9.63739 78.2009 10.1296C77.9666 10.6179 77.6287 10.9987 77.1873 11.2722C76.7498 11.5456 76.2458 11.6823 75.6755 11.6823C74.8162 11.6823 74.1189 11.3835 73.5837 10.7858C73.0525 10.1882 72.7869 9.39716 72.7869 8.41278V8.33661ZM73.8767 8.46552C73.8767 9.16864 74.0388 9.73309 74.363 10.1589C74.6912 10.5847 75.1287 10.7975 75.6755 10.7975C76.2263 10.7975 76.6638 10.5827 76.988 10.153C77.3123 9.71942 77.4744 9.11395 77.4744 8.33661C77.4744 7.6413 77.3083 7.0788 76.9763 6.64911C76.6482 6.21552 76.2107 5.99872 75.6638 5.99872C75.1287 5.99872 74.697 6.21161 74.3689 6.63739C74.0408 7.06317 73.8767 7.67255 73.8767 8.46552Z" fill="#EDEDED"/>
</svg>
