<svg width="218" height="28" viewBox="0 0 218 28" fill="none" xmlns="http://www.w3.org/2000/svg">
<g opacity="0.5">
<rect x="98" y="0.318848" width="120" height="27" rx="3" fill="#3F4145"/>
<path opacity="0.5" d="M112.716 14.3579H111.624V18.3188H110.024V9.07666H111.624V12.9614H112.506L115.223 9.07666H117.191L114.017 13.501L117.47 18.3188H115.541L112.716 14.3579ZM117.743 14.8213C117.743 14.1484 117.876 13.5433 118.143 13.0059C118.41 12.4642 118.784 12.0495 119.267 11.7617C119.749 11.4697 120.303 11.3237 120.93 11.3237C121.856 11.3237 122.608 11.6221 123.183 12.2188C123.763 12.8154 124.076 13.6068 124.123 14.5928L124.129 14.9546C124.129 15.6317 123.998 16.2368 123.735 16.77C123.477 17.3032 123.105 17.7158 122.618 18.0078C122.136 18.2998 121.577 18.4458 120.942 18.4458C119.973 18.4458 119.197 18.1242 118.613 17.481C118.033 16.8335 117.743 15.9723 117.743 14.8975V14.8213ZM119.286 14.9546C119.286 15.6613 119.432 16.2157 119.724 16.6177C120.016 17.0155 120.422 17.2144 120.942 17.2144C121.463 17.2144 121.867 17.0112 122.155 16.605C122.447 16.1987 122.593 15.6042 122.593 14.8213C122.593 14.1273 122.443 13.5771 122.142 13.1709C121.846 12.7646 121.442 12.5615 120.93 12.5615C120.426 12.5615 120.026 12.7625 119.73 13.1646C119.434 13.5623 119.286 14.159 119.286 14.9546ZM129.512 16.4209L131.543 11.4507H133.473V18.3188H131.93V13.7739L130.039 18.3188H128.991L127.093 13.7485V18.3188H125.551V11.4507H127.493L129.512 16.4209ZM141.033 18.3188H139.49V12.6948H136.812V18.3188H135.269V11.4507H141.033V18.3188ZM146.961 11.4507H148.498V18.3188H146.961V13.7358L144.27 18.3188H142.734V11.4507H144.27V16.0337L146.961 11.4507ZM155.975 11.4507V18.3188H154.433V12.6948H152.49L152.363 15.0879C152.283 16.2389 152.061 17.0662 151.697 17.5698C151.337 18.0692 150.785 18.3188 150.04 18.3188H149.564L149.558 17.0366L149.875 17.0049C150.214 16.9583 150.459 16.7531 150.611 16.3892C150.768 16.021 150.867 15.3524 150.91 14.3833L151.037 11.4507H155.975ZM161.904 11.4507H163.44V18.3188H161.904V13.7358L159.212 18.3188H157.676V11.4507H159.212V16.0337L161.904 11.4507ZM171.095 14.9546C171.095 16.0168 170.854 16.8652 170.372 17.5C169.889 18.1305 169.242 18.4458 168.429 18.4458C167.676 18.4458 167.073 18.1982 166.62 17.7031V20.9595H165.078V11.4507H166.5L166.563 12.1489C167.016 11.5988 167.632 11.3237 168.41 11.3237C169.248 11.3237 169.904 11.6369 170.378 12.2632C170.856 12.8853 171.095 13.7507 171.095 14.8594V14.9546ZM169.559 14.8213C169.559 14.1357 169.422 13.592 169.146 13.1899C168.876 12.7879 168.486 12.5869 167.979 12.5869C167.348 12.5869 166.895 12.8472 166.62 13.3677V16.4146C166.899 16.9478 167.356 17.2144 167.991 17.2144C168.482 17.2144 168.865 17.0176 169.14 16.624C169.419 16.2262 169.559 15.6253 169.559 14.8213ZM172.117 14.8213C172.117 14.1484 172.25 13.5433 172.517 13.0059C172.784 12.4642 173.158 12.0495 173.641 11.7617C174.123 11.4697 174.677 11.3237 175.304 11.3237C176.23 11.3237 176.982 11.6221 177.557 12.2188C178.137 12.8154 178.45 13.6068 178.497 14.5928L178.503 14.9546C178.503 15.6317 178.372 16.2368 178.109 16.77C177.851 17.3032 177.479 17.7158 176.992 18.0078C176.51 18.2998 175.951 18.4458 175.316 18.4458C174.347 18.4458 173.571 18.1242 172.987 17.481C172.407 16.8335 172.117 15.9723 172.117 14.8975V14.8213ZM173.66 14.9546C173.66 15.6613 173.806 16.2157 174.098 16.6177C174.39 17.0155 174.796 17.2144 175.316 17.2144C175.837 17.2144 176.241 17.0112 176.529 16.605C176.821 16.1987 176.967 15.6042 176.967 14.8213C176.967 14.1273 176.817 13.5771 176.516 13.1709C176.22 12.7646 175.816 12.5615 175.304 12.5615C174.8 12.5615 174.4 12.7625 174.104 13.1646C173.808 13.5623 173.66 14.159 173.66 14.9546ZM179.925 18.3188V11.4507H182.711C183.651 11.4507 184.366 11.6157 184.857 11.9458C185.348 12.2716 185.593 12.7414 185.593 13.355C185.593 13.6724 185.494 13.958 185.295 14.2119C185.1 14.4616 184.81 14.6541 184.425 14.7896C184.874 14.8826 185.229 15.071 185.492 15.3545C185.754 15.638 185.885 15.9723 185.885 16.3574C185.885 16.9964 185.648 17.4831 185.174 17.8174C184.705 18.1517 184.028 18.3188 183.143 18.3188H179.925ZM181.467 15.3926V17.1001H183.156C183.947 17.1001 184.343 16.8166 184.343 16.2495C184.343 15.6782 183.941 15.3926 183.137 15.3926H181.467ZM181.467 14.2881H182.737C183.613 14.2881 184.051 14.0299 184.051 13.5137C184.051 12.972 183.636 12.6927 182.807 12.6758H181.467V14.2881ZM191.325 18.3188C191.257 18.1877 191.198 17.974 191.147 17.6777C190.657 18.1898 190.056 18.4458 189.345 18.4458C188.655 18.4458 188.092 18.249 187.656 17.8555C187.22 17.4619 187.002 16.9753 187.002 16.3955C187.002 15.6634 187.273 15.1027 187.815 14.7134C188.361 14.3198 189.139 14.123 190.151 14.123H191.097V13.6724C191.097 13.3169 190.997 13.0334 190.798 12.8218C190.599 12.606 190.297 12.498 189.891 12.498C189.539 12.498 189.252 12.5869 189.027 12.7646C188.803 12.9382 188.691 13.1603 188.691 13.4312H187.148C187.148 13.0545 187.273 12.7033 187.523 12.3774C187.773 12.0474 188.111 11.7892 188.539 11.603C188.97 11.4168 189.451 11.3237 189.979 11.3237C190.784 11.3237 191.425 11.5269 191.903 11.9331C192.381 12.3351 192.626 12.9022 192.639 13.6343V16.7319C192.639 17.3498 192.726 17.8428 192.899 18.2109V18.3188H191.325ZM189.63 17.208C189.935 17.208 190.221 17.134 190.487 16.9858C190.758 16.8377 190.961 16.6388 191.097 16.3892V15.0942H190.265C189.694 15.0942 189.264 15.1937 188.977 15.3926C188.689 15.5915 188.545 15.8729 188.545 16.2368C188.545 16.533 188.642 16.77 188.837 16.9478C189.036 17.1213 189.3 17.208 189.63 17.208ZM199.558 12.6758H197.33V18.3188H195.788V12.6758H193.585V11.4507H199.558V12.6758ZM202.25 13.6343H203.76C204.323 13.6343 204.814 13.7316 205.233 13.9263C205.652 14.1209 205.969 14.3939 206.185 14.7451C206.405 15.0964 206.515 15.5047 206.515 15.9702C206.515 16.6769 206.265 17.244 205.766 17.6714C205.267 18.0988 204.602 18.3146 203.773 18.3188H200.707V11.4507H202.25V13.6343ZM202.25 14.8721V17.0874H203.754C204.131 17.0874 204.427 16.9943 204.643 16.8081C204.863 16.6177 204.973 16.349 204.973 16.002C204.973 15.6549 204.865 15.382 204.649 15.1831C204.437 14.98 204.15 14.8763 203.786 14.8721H202.25Z" fill="white"/>
<rect y="0.318848" width="88" height="27" rx="3" fill="#3F4145"/>
<path opacity="0.5" d="M19.4028 15.3101C19.3097 16.2961 18.9458 17.0662 18.311 17.6206C17.6763 18.1707 16.832 18.4458 15.7783 18.4458C15.042 18.4458 14.3924 18.2723 13.8296 17.9253C13.271 17.5741 12.8394 17.0768 12.5347 16.4336C12.23 15.7904 12.0713 15.0435 12.0586 14.1929V13.3296C12.0586 12.4578 12.2131 11.6898 12.522 11.0254C12.8309 10.361 13.2731 9.84896 13.8486 9.48926C14.4284 9.12956 15.097 8.94971 15.8545 8.94971C16.8743 8.94971 17.6953 9.22689 18.3174 9.78125C18.9395 10.3356 19.3013 11.1185 19.4028 12.1299H17.8032C17.7271 11.4655 17.5324 10.9873 17.2192 10.6953C16.9103 10.3991 16.4554 10.251 15.8545 10.251C15.1562 10.251 14.6188 10.507 14.2422 11.019C13.8698 11.5269 13.6794 12.2738 13.6709 13.2598V14.0786C13.6709 15.0773 13.8486 15.839 14.2041 16.3638C14.5638 16.8885 15.0885 17.1509 15.7783 17.1509C16.4089 17.1509 16.8828 17.0091 17.2002 16.7256C17.5176 16.4421 17.7186 15.9702 17.8032 15.3101H19.4028ZM20.4058 14.8213C20.4058 14.1484 20.5391 13.5433 20.8057 13.0059C21.0723 12.4642 21.4468 12.0495 21.9292 11.7617C22.4116 11.4697 22.966 11.3237 23.5923 11.3237C24.519 11.3237 25.2702 11.6221 25.8457 12.2188C26.4255 12.8154 26.7386 13.6068 26.7852 14.5928L26.7915 14.9546C26.7915 15.6317 26.6603 16.2368 26.3979 16.77C26.1398 17.3032 25.7674 17.7158 25.2808 18.0078C24.7983 18.2998 24.2397 18.4458 23.605 18.4458C22.6359 18.4458 21.8594 18.1242 21.2754 17.481C20.6956 16.8335 20.4058 15.9723 20.4058 14.8975V14.8213ZM21.9482 14.9546C21.9482 15.6613 22.0942 16.2157 22.3862 16.6177C22.6782 17.0155 23.0845 17.2144 23.605 17.2144C24.1255 17.2144 24.5296 17.0112 24.8174 16.605C25.1094 16.1987 25.2554 15.6042 25.2554 14.8213C25.2554 14.1273 25.1051 13.5771 24.8047 13.1709C24.5085 12.7646 24.1043 12.5615 23.5923 12.5615C23.0887 12.5615 22.6888 12.7625 22.3926 13.1646C22.0964 13.5623 21.9482 14.159 21.9482 14.9546ZM30.4224 13.7104L31.73 11.4507H33.4438L31.3428 14.834L33.5137 18.3188H31.8125L30.4414 15.9702L29.0767 18.3188H27.3628L29.5337 14.834L27.439 11.4507H29.1401L30.4224 13.7104ZM40.5088 14.9546C40.5088 16.0168 40.2676 16.8652 39.7852 17.5C39.3027 18.1305 38.6553 18.4458 37.8428 18.4458C37.0895 18.4458 36.4865 18.1982 36.0337 17.7031V20.9595H34.4912V11.4507H35.9131L35.9766 12.1489C36.4294 11.5988 37.0451 11.3237 37.8237 11.3237C38.6616 11.3237 39.3175 11.6369 39.7915 12.2632C40.2697 12.8853 40.5088 13.7507 40.5088 14.8594V14.9546ZM38.9727 14.8213C38.9727 14.1357 38.8351 13.592 38.5601 13.1899C38.2892 12.7879 37.8999 12.5869 37.3921 12.5869C36.7616 12.5869 36.3088 12.8472 36.0337 13.3677V16.4146C36.313 16.9478 36.77 17.2144 37.4048 17.2144C37.8957 17.2144 38.2786 17.0176 38.5537 16.624C38.833 16.2262 38.9727 15.6253 38.9727 14.8213ZM45.9233 18.3188C45.8556 18.1877 45.7964 17.974 45.7456 17.6777C45.2547 18.1898 44.6538 18.4458 43.9429 18.4458C43.2531 18.4458 42.6903 18.249 42.2544 17.8555C41.8185 17.4619 41.6006 16.9753 41.6006 16.3955C41.6006 15.6634 41.8714 15.1027 42.4131 14.7134C42.959 14.3198 43.7376 14.123 44.749 14.123H45.6948V13.6724C45.6948 13.3169 45.5954 13.0334 45.3965 12.8218C45.1976 12.606 44.895 12.498 44.4888 12.498C44.1375 12.498 43.8498 12.5869 43.6255 12.7646C43.4012 12.9382 43.2891 13.1603 43.2891 13.4312H41.7466C41.7466 13.0545 41.8714 12.7033 42.1211 12.3774C42.3708 12.0474 42.7093 11.7892 43.1367 11.603C43.5684 11.4168 44.0487 11.3237 44.5776 11.3237C45.3817 11.3237 46.0228 11.5269 46.501 11.9331C46.9792 12.3351 47.2246 12.9022 47.2373 13.6343V16.7319C47.2373 17.3498 47.3241 17.8428 47.4976 18.2109V18.3188H45.9233ZM44.2285 17.208C44.5332 17.208 44.8188 17.134 45.0854 16.9858C45.3563 16.8377 45.5594 16.6388 45.6948 16.3892V15.0942H44.8633C44.292 15.0942 43.8625 15.1937 43.5747 15.3926C43.2869 15.5915 43.1431 15.8729 43.1431 16.2368C43.1431 16.533 43.2404 16.77 43.4351 16.9478C43.634 17.1213 43.8984 17.208 44.2285 17.208ZM54.6704 18.3188H53.1279V15.5449H50.4556V18.3188H48.9131V11.4507H50.4556V14.3135H53.1279V11.4507H54.6704V18.3188ZM60.6055 11.4507H62.1416V18.3188H60.6055V13.7358L57.9141 18.3188H56.3779V11.4507H57.9141V16.0337L60.6055 11.4507ZM69.1875 12.6758H66.9595V18.3188H65.417V12.6758H63.2144V11.4507H69.1875V12.6758ZM71.8789 13.6343H73.3896C73.9525 13.6343 74.4434 13.7316 74.8623 13.9263C75.2812 14.1209 75.5986 14.3939 75.8145 14.7451C76.0345 15.0964 76.1445 15.5047 76.1445 15.9702C76.1445 16.6769 75.8949 17.244 75.3955 17.6714C74.8962 18.0988 74.2318 18.3146 73.4023 18.3188H70.3364V11.4507H71.8789V13.6343ZM71.8789 14.8721V17.0874H73.3833C73.7599 17.0874 74.0562 16.9943 74.272 16.8081C74.492 16.6177 74.6021 16.349 74.6021 16.002C74.6021 15.6549 74.4941 15.382 74.2783 15.1831C74.0667 14.98 73.779 14.8763 73.415 14.8721H71.8789Z" fill="white"/>
</g>
</svg>
