<svg width="98" height="20" viewBox="0 0 98 20" fill="none" xmlns="http://www.w3.org/2000/svg">
<path d="M7.50586 11H6.375V3.39453H2.16797V11H1.04297V2.46875H7.50586V11ZM14.7422 7.90039C14.7422 8.86523 14.5215 9.64258 14.0801 10.2324C13.6387 10.8223 13.041 11.1172 12.2871 11.1172C11.5176 11.1172 10.9121 10.873 10.4707 10.3848V13.4375H9.38672V4.66016H10.377L10.4297 5.36328C10.8711 4.81641 11.4844 4.54297 12.2695 4.54297C13.0312 4.54297 13.6328 4.83008 14.0742 5.4043C14.5195 5.97852 14.7422 6.77734 14.7422 7.80078V7.90039ZM13.6582 7.77734C13.6582 7.0625 13.5059 6.49805 13.2012 6.08398C12.8965 5.66992 12.4785 5.46289 11.9473 5.46289C11.291 5.46289 10.7988 5.75391 10.4707 6.33594V9.36523C10.7949 9.94336 11.291 10.2324 11.959 10.2324C12.4785 10.2324 12.8906 10.0273 13.1953 9.61719C13.5039 9.20312 13.6582 8.58984 13.6582 7.77734ZM18.7559 11.1172C17.8965 11.1172 17.1973 10.8359 16.6582 10.2734C16.1191 9.70703 15.8496 8.95117 15.8496 8.00586V7.80664C15.8496 7.17773 15.9688 6.61719 16.207 6.125C16.4492 5.62891 16.7852 5.24219 17.2148 4.96484C17.6484 4.68359 18.1172 4.54297 18.6211 4.54297C19.4453 4.54297 20.0859 4.81445 20.543 5.35742C21 5.90039 21.2285 6.67773 21.2285 7.68945V8.14062H16.9336C16.9492 8.76562 17.1309 9.27148 17.4785 9.6582C17.8301 10.041 18.2754 10.2324 18.8145 10.2324C19.1973 10.2324 19.5215 10.1543 19.7871 9.99805C20.0527 9.8418 20.2852 9.63477 20.4844 9.37695L21.1465 9.89258C20.6152 10.709 19.8184 11.1172 18.7559 11.1172ZM18.6211 5.43359C18.1836 5.43359 17.8164 5.59375 17.5195 5.91406C17.2227 6.23047 17.0391 6.67578 16.9688 7.25H20.1445V7.16797C20.1133 6.61719 19.9648 6.19141 19.6992 5.89062C19.4336 5.58594 19.0742 5.43359 18.6211 5.43359ZM22.4355 10.1152L22.8105 9.65234C23.2324 9.10547 23.4727 8.28516 23.5312 7.19141L23.6309 4.66016H27.7148V10.1152H28.5293V12.8633H27.4453V11H23.0215V12.8633H21.9375L21.9434 10.1152H22.4355ZM23.7188 10.1152H26.6309V5.66211H24.6797L24.6152 7.17383C24.5488 8.43555 24.25 9.41602 23.7188 10.1152ZM31.8047 9.41211L33.2812 4.66016H34.4414L31.8926 11.9785C31.498 13.0332 30.8711 13.5605 30.0117 13.5605L29.8066 13.543L29.4023 13.4668V12.5879L29.6953 12.6113C30.0625 12.6113 30.3477 12.5371 30.5508 12.3887C30.7578 12.2402 30.9277 11.9688 31.0605 11.5742L31.3008 10.9297L29.0391 4.66016H30.2227L31.8047 9.41211ZM40.5996 11H39.5156V5.55664H36.5977V11H35.5078V4.66016H40.5996V11ZM47.6953 7.90039C47.6953 8.86523 47.4746 9.64258 47.0332 10.2324C46.5918 10.8223 45.9941 11.1172 45.2402 11.1172C44.4707 11.1172 43.8652 10.873 43.4238 10.3848V13.4375H42.3398V4.66016H43.3301L43.3828 5.36328C43.8242 4.81641 44.4375 4.54297 45.2227 4.54297C45.9844 4.54297 46.5859 4.83008 47.0273 5.4043C47.4727 5.97852 47.6953 6.77734 47.6953 7.80078V7.90039ZM46.6113 7.77734C46.6113 7.0625 46.459 6.49805 46.1543 6.08398C45.8496 5.66992 45.4316 5.46289 44.9004 5.46289C44.2441 5.46289 43.752 5.75391 43.4238 6.33594V9.36523C43.748 9.94336 44.2441 10.2324 44.9121 10.2324C45.4316 10.2324 45.8438 10.0273 46.1484 9.61719C46.457 9.20312 46.6113 8.58984 46.6113 7.77734ZM51.709 11.1172C50.8496 11.1172 50.1504 10.8359 49.6113 10.2734C49.0723 9.70703 48.8027 8.95117 48.8027 8.00586V7.80664C48.8027 7.17773 48.9219 6.61719 49.1602 6.125C49.4023 5.62891 49.7383 5.24219 50.168 4.96484C50.6016 4.68359 51.0703 4.54297 51.5742 4.54297C52.3984 4.54297 53.0391 4.81445 53.4961 5.35742C53.9531 5.90039 54.1816 6.67773 54.1816 7.68945V8.14062H49.8867C49.9023 8.76562 50.084 9.27148 50.4316 9.6582C50.7832 10.041 51.2285 10.2324 51.7676 10.2324C52.1504 10.2324 52.4746 10.1543 52.7402 9.99805C53.0059 9.8418 53.2383 9.63477 53.4375 9.37695L54.0996 9.89258C53.5684 10.709 52.7715 11.1172 51.709 11.1172ZM51.5742 5.43359C51.1367 5.43359 50.7695 5.59375 50.4727 5.91406C50.1758 6.23047 49.9922 6.67578 49.9219 7.25H53.0977V7.16797C53.0664 6.61719 52.918 6.19141 52.6523 5.89062C52.3867 5.58594 52.0273 5.43359 51.5742 5.43359ZM60.498 8.24609H59.7363V11H58.6523V8.24609H57.8906L56.1152 11H54.7441L57.0117 7.71875L54.9609 4.66016H56.2734L57.9082 7.28516H58.6523V4.66016H59.7363V7.28516H60.4746L62.1211 4.66016H63.4336L61.377 7.72461L63.6445 11H62.2734L60.498 8.24609ZM64.5762 10.1152L64.9512 9.65234C65.373 9.10547 65.6133 8.28516 65.6719 7.19141L65.7715 4.66016H69.8555V10.1152H70.6699V12.8633H69.5859V11H65.1621V12.8633H64.0781L64.084 10.1152H64.5762ZM65.8594 10.1152H68.7715V5.66211H66.8203L66.7559 7.17383C66.6895 8.43555 66.3906 9.41602 65.8594 10.1152ZM74.502 11.1172C73.6426 11.1172 72.9434 10.8359 72.4043 10.2734C71.8652 9.70703 71.5957 8.95117 71.5957 8.00586V7.80664C71.5957 7.17773 71.7148 6.61719 71.9531 6.125C72.1953 5.62891 72.5312 5.24219 72.9609 4.96484C73.3945 4.68359 73.8633 4.54297 74.3672 4.54297C75.1914 4.54297 75.832 4.81445 76.2891 5.35742C76.7461 5.90039 76.9746 6.67773 76.9746 7.68945V8.14062H72.6797C72.6953 8.76562 72.877 9.27148 73.2246 9.6582C73.5762 10.041 74.0215 10.2324 74.5605 10.2324C74.9434 10.2324 75.2676 10.1543 75.5332 9.99805C75.7988 9.8418 76.0312 9.63477 76.2305 9.37695L76.8926 9.89258C76.3613 10.709 75.5645 11.1172 74.502 11.1172ZM74.3672 5.43359C73.9297 5.43359 73.5625 5.59375 73.2656 5.91406C72.9688 6.23047 72.7852 6.67578 72.7148 7.25H75.8906V7.16797C75.8594 6.61719 75.7109 6.19141 75.4453 5.89062C75.1797 5.58594 74.8203 5.43359 74.3672 5.43359ZM83.4141 11H82.3301V8.29297H79.418V11H78.3281V4.66016H79.418V7.4082H82.3301V4.66016H83.4141V11ZM89.2617 4.66016H90.3457V11H89.2617V6.37695L86.3379 11H85.2539V4.66016H86.3379V9.28906L89.2617 4.66016ZM96.9316 4.66016V11H95.8418V8.5332H94.207L92.7129 11H91.541L93.1348 8.36914C92.7285 8.2207 92.416 7.99219 92.1973 7.68359C91.9824 7.37109 91.875 7.00781 91.875 6.59375C91.875 6.01562 92.0918 5.55078 92.5254 5.19922C92.959 4.84375 93.5391 4.66406 94.2656 4.66016H96.9316ZM92.9648 6.60547C92.9648 6.91406 93.0703 7.16406 93.2812 7.35547C93.4922 7.54297 93.7715 7.63867 94.1191 7.64258H95.8418V5.53906H94.2832C93.8809 5.53906 93.5605 5.63867 93.3223 5.83789C93.084 6.0332 92.9648 6.28906 92.9648 6.60547Z" fill="white"/>
<rect x="98" y="20" width="98" height="1.99999" transform="rotate(-180 98 20)" fill="white"/>
</svg>
