<svg width="21" height="20" viewBox="0 0 21 20" fill="none" xmlns="http://www.w3.org/2000/svg">
<path d="M0.990234 11V2.46875H3.7793C4.70508 2.46875 5.40039 2.66016 5.86523 3.04297C6.33398 3.42578 6.56836 3.99219 6.56836 4.74219C6.56836 5.14062 6.45508 5.49414 6.22852 5.80273C6.00195 6.10742 5.69336 6.34375 5.30273 6.51172C5.76367 6.64062 6.12695 6.88672 6.39258 7.25C6.66211 7.60938 6.79688 8.03906 6.79688 8.53906C6.79688 9.30469 6.54883 9.90625 6.05273 10.3438C5.55664 10.7812 4.85547 11 3.94922 11H0.990234ZM2.11523 7.00977V10.0801H3.97266C4.49609 10.0801 4.9082 9.94531 5.20898 9.67578C5.51367 9.40234 5.66602 9.02734 5.66602 8.55078C5.66602 7.52344 5.10742 7.00977 3.99023 7.00977H2.11523ZM2.11523 6.10742H3.81445C4.30664 6.10742 4.69922 5.98438 4.99219 5.73828C5.28906 5.49219 5.4375 5.1582 5.4375 4.73633C5.4375 4.26758 5.30078 3.92773 5.02734 3.7168C4.75391 3.50195 4.33789 3.39453 3.7793 3.39453H2.11523V6.10742ZM10.8398 10.2324C11.2266 10.2324 11.5645 10.1152 11.8535 9.88086C12.1426 9.64648 12.3027 9.35352 12.334 9.00195H13.3594C13.3398 9.36523 13.2148 9.71094 12.9844 10.0391C12.7539 10.3672 12.4453 10.6289 12.0586 10.8242C11.6758 11.0195 11.2695 11.1172 10.8398 11.1172C9.97656 11.1172 9.28906 10.8301 8.77734 10.2559C8.26953 9.67773 8.01562 8.88867 8.01562 7.88867V7.70703C8.01562 7.08984 8.12891 6.54102 8.35547 6.06055C8.58203 5.58008 8.90625 5.20703 9.32812 4.94141C9.75391 4.67578 10.2559 4.54297 10.834 4.54297C11.5449 4.54297 12.1348 4.75586 12.6035 5.18164C13.0762 5.60742 13.3281 6.16016 13.3594 6.83984H12.334C12.3027 6.42969 12.1465 6.09375 11.8652 5.83203C11.5879 5.56641 11.2441 5.43359 10.834 5.43359C10.2832 5.43359 9.85547 5.63281 9.55078 6.03125C9.25 6.42578 9.09961 6.99805 9.09961 7.74805V7.95312C9.09961 8.68359 9.25 9.24609 9.55078 9.64062C9.85156 10.0352 10.2812 10.2324 10.8398 10.2324ZM17.209 11.1172C16.3496 11.1172 15.6504 10.8359 15.1113 10.2734C14.5723 9.70703 14.3027 8.95117 14.3027 8.00586V7.80664C14.3027 7.17773 14.4219 6.61719 14.6602 6.125C14.9023 5.62891 15.2383 5.24219 15.668 4.96484C16.1016 4.68359 16.5703 4.54297 17.0742 4.54297C17.8984 4.54297 18.5391 4.81445 18.9961 5.35742C19.4531 5.90039 19.6816 6.67773 19.6816 7.68945V8.14062H15.3867C15.4023 8.76562 15.584 9.27148 15.9316 9.6582C16.2832 10.041 16.7285 10.2324 17.2676 10.2324C17.6504 10.2324 17.9746 10.1543 18.2402 9.99805C18.5059 9.8418 18.7383 9.63477 18.9375 9.37695L19.5996 9.89258C19.0684 10.709 18.2715 11.1172 17.209 11.1172ZM17.0742 5.43359C16.6367 5.43359 16.2695 5.59375 15.9727 5.91406C15.6758 6.23047 15.4922 6.67578 15.4219 7.25H18.5977V7.16797C18.5664 6.61719 18.418 6.19141 18.1523 5.89062C17.8867 5.58594 17.5273 5.43359 17.0742 5.43359Z" fill="#C1C0C0"/>
</svg>
