<svg width="89" height="16" viewBox="0 0 89 16" fill="none" xmlns="http://www.w3.org/2000/svg">
<path d="M22.7126 11.5651H21.5818V3.95966H17.3748V11.5651H16.2498V3.03387H22.7126V11.5651ZM24.3064 8.33661C24.3064 7.71552 24.4275 7.15692 24.6697 6.66083C24.9158 6.16473 25.2556 5.78192 25.6892 5.51239C26.1267 5.24286 26.6248 5.10809 27.1833 5.10809C28.0466 5.10809 28.7439 5.40692 29.2751 6.00458C29.8103 6.60223 30.0779 7.39716 30.0779 8.38934V8.46552C30.0779 9.0827 29.9587 9.63739 29.7205 10.1296C29.4861 10.6179 29.1482 10.9987 28.7068 11.2722C28.2693 11.5456 27.7654 11.6823 27.1951 11.6823C26.3357 11.6823 25.6384 11.3835 25.1033 10.7858C24.572 10.1882 24.3064 9.39716 24.3064 8.41278V8.33661ZM25.3962 8.46552C25.3962 9.16864 25.5583 9.73309 25.8826 10.1589C26.2107 10.5847 26.6482 10.7975 27.1951 10.7975C27.7458 10.7975 28.1833 10.5827 28.5076 10.153C28.8318 9.71942 28.9939 9.11395 28.9939 8.33661C28.9939 7.6413 28.8279 7.0788 28.4958 6.64911C28.1677 6.21552 27.7302 5.99872 27.1833 5.99872C26.6482 5.99872 26.2166 6.21161 25.8884 6.63739C25.5603 7.06317 25.3962 7.67255 25.3962 8.46552ZM30.9626 10.6804L31.3376 10.2175C31.7595 9.67059 31.9998 8.85028 32.0583 7.75653L32.158 5.22528H36.2419V10.6804H37.0564V13.4284H35.9724V11.5651H31.5486V13.4284H30.4646L30.4705 10.6804H30.9626ZM32.2458 10.6804H35.158V6.22723H33.2068L33.1423 7.73895C33.0759 9.00067 32.7771 9.98114 32.2458 10.6804ZM40.2322 8.86395H39.4412V11.5651H38.3513V5.22528H39.4412V7.90887H40.1501L42.283 5.22528H43.5955L41.0876 8.27216L43.8064 11.5651H42.4294L40.2322 8.86395ZM49.9353 5.22528V11.5651H48.8455V6.12177H46.6892L46.5603 8.49481C46.49 9.58466 46.3064 10.364 46.0095 10.8327C45.7166 11.3015 45.2498 11.5456 44.6091 11.5651H44.1755V10.61L44.4861 10.5866C44.8376 10.5475 45.0896 10.3444 45.2419 9.97723C45.3943 9.61005 45.4919 8.93036 45.5349 7.93817L45.6521 5.22528H49.9353ZM52.8591 7.91473H54.3826C54.4646 7.07098 54.7634 6.39325 55.2791 5.88153C55.7986 5.36591 56.4529 5.10809 57.2419 5.10809C58.0701 5.10809 58.7478 5.38739 59.2751 5.94598C59.8025 6.50458 60.0876 7.23114 60.1306 8.12567L60.1365 8.46552C60.1365 9.0827 60.0154 9.63934 59.7732 10.1354C59.531 10.6315 59.1912 11.0143 58.7537 11.2839C58.3162 11.5495 57.8162 11.6823 57.2537 11.6823C56.4373 11.6823 55.7693 11.4167 55.2498 10.8854C54.7302 10.3503 54.4392 9.65692 54.3767 8.80536H52.8591V11.5651H51.7751V5.22528H52.8591V7.91473ZM55.449 8.46552C55.449 9.16864 55.6111 9.73309 55.9353 10.1589C56.2634 10.5847 56.7029 10.7975 57.2537 10.7975C57.8044 10.7975 58.24 10.5807 58.5603 10.1472C58.8845 9.71356 59.0466 9.11005 59.0466 8.33661C59.0466 7.6452 58.8826 7.0827 58.5544 6.64911C58.2263 6.21552 57.7888 5.99872 57.2419 5.99872C56.7029 5.99872 56.2693 6.21161 55.9412 6.63739C55.613 7.06317 55.449 7.67255 55.449 8.46552ZM66.2595 11.5651H65.1697V9.26825C64.6931 9.39325 64.2048 9.45575 63.7048 9.45575C62.9119 9.45575 62.3064 9.25262 61.8884 8.84637C61.4744 8.44012 61.2634 7.862 61.2556 7.112V5.21942H62.3396V7.14716C62.3591 8.09247 62.8142 8.56512 63.7048 8.56512C64.2048 8.56512 64.6931 8.50262 65.1697 8.37762V5.22528H66.2595V11.5651ZM70.6306 11.6823C69.7712 11.6823 69.072 11.4011 68.533 10.8386C67.9939 10.2722 67.7244 9.5163 67.7244 8.57098V8.37177C67.7244 7.74286 67.8435 7.18231 68.0818 6.69012C68.324 6.19403 68.6599 5.80731 69.0896 5.52997C69.5232 5.24872 69.9919 5.10809 70.4958 5.10809C71.3201 5.10809 71.9607 5.37958 72.4177 5.92255C72.8748 6.46552 73.1033 7.24286 73.1033 8.25458V8.70575H68.8083C68.824 9.33075 69.0056 9.83661 69.3533 10.2233C69.7048 10.6061 70.1501 10.7975 70.6892 10.7975C71.072 10.7975 71.3962 10.7194 71.6619 10.5632C71.9275 10.4069 72.1599 10.1999 72.3591 9.94208L73.0212 10.4577C72.49 11.2741 71.6931 11.6823 70.6306 11.6823ZM70.4958 5.99872C70.0583 5.99872 69.6912 6.15887 69.3943 6.47919C69.0974 6.79559 68.9138 7.24091 68.8435 7.81512H72.0193V7.73309C71.988 7.18231 71.8396 6.75653 71.574 6.45575C71.3083 6.15106 70.949 5.99872 70.4958 5.99872ZM79.5427 11.5651H78.4587V8.85809H75.5466V11.5651H74.4568V5.22528H75.5466V7.97333H78.4587V5.22528H79.5427V11.5651ZM81.0017 8.33661C81.0017 7.71552 81.1228 7.15692 81.365 6.66083C81.6111 6.16473 81.9509 5.78192 82.3845 5.51239C82.822 5.24286 83.3201 5.10809 83.8787 5.10809C84.7419 5.10809 85.4392 5.40692 85.9705 6.00458C86.5056 6.60223 86.7732 7.39716 86.7732 8.38934V8.46552C86.7732 9.0827 86.6541 9.63739 86.4158 10.1296C86.1814 10.6179 85.8435 10.9987 85.4021 11.2722C84.9646 11.5456 84.4607 11.6823 83.8904 11.6823C83.031 11.6823 82.3337 11.3835 81.7986 10.7858C81.2673 10.1882 81.0017 9.39716 81.0017 8.41278V8.33661ZM82.0916 8.46552C82.0916 9.16864 82.2537 9.73309 82.5779 10.1589C82.906 10.5847 83.3435 10.7975 83.8904 10.7975C84.4412 10.7975 84.8787 10.5827 85.2029 10.153C85.5271 9.71942 85.6892 9.11395 85.6892 8.33661C85.6892 7.6413 85.5232 7.0788 85.1912 6.64911C84.863 6.21552 84.4255 5.99872 83.8787 5.99872C83.3435 5.99872 82.9119 6.21161 82.5837 6.63739C82.2556 7.06317 82.0916 7.67255 82.0916 8.46552Z" fill="#EDEDED"/>
</svg>
