<svg width="92" height="27" viewBox="0 0 92 27" fill="none" xmlns="http://www.w3.org/2000/svg">
<rect width="92" height="27" rx="3" fill="#3F4145"/>
<path d="M19.5874 18H17.9878V10.0527H13.9189V18H12.3193V8.75781H19.5874V18ZM27.395 14.6357C27.395 15.6979 27.1538 16.5464 26.6714 17.1812C26.189 17.8117 25.5415 18.127 24.729 18.127C23.9757 18.127 23.3727 17.8794 22.9199 17.3843V20.6406H21.3774V11.1318H22.7993L22.8628 11.8301C23.3156 11.2799 23.9313 11.0049 24.71 11.0049C25.5479 11.0049 26.2038 11.318 26.6777 11.9443C27.1559 12.5664 27.395 13.4318 27.395 14.5405V14.6357ZM25.8589 14.5024C25.8589 13.8169 25.7214 13.2731 25.4463 12.8711C25.1755 12.4691 24.7861 12.2681 24.2783 12.2681C23.6478 12.2681 23.195 12.5283 22.9199 13.0488V16.0957C23.1992 16.6289 23.6562 16.8955 24.291 16.8955C24.7819 16.8955 25.1649 16.6987 25.4399 16.3052C25.7192 15.9074 25.8589 15.3065 25.8589 14.5024ZM32.9937 11.1318H34.5298V18H32.9937V13.417L30.3022 18H28.7661V11.1318H30.3022V15.7148L32.9937 11.1318ZM40.249 16.1021L42.2803 11.1318H44.21V18H42.6675V13.4551L40.7759 18H39.7285L37.8306 13.4297V18H36.2881V11.1318H38.2305L40.249 16.1021ZM48.9707 18.127C47.9932 18.127 47.1997 17.8201 46.5903 17.2065C45.9852 16.5887 45.6826 15.7677 45.6826 14.7437V14.5532C45.6826 13.8677 45.8138 13.2562 46.0762 12.7188C46.3428 12.1771 46.7152 11.756 47.1934 11.4556C47.6715 11.1551 48.2048 11.0049 48.793 11.0049C49.7282 11.0049 50.4497 11.3032 50.9575 11.8999C51.4696 12.4966 51.7256 13.3408 51.7256 14.4326V15.0547H47.2378C47.2843 15.6217 47.4727 16.0703 47.8027 16.4004C48.137 16.7305 48.556 16.8955 49.0596 16.8955C49.7663 16.8955 50.3418 16.6099 50.7861 16.0386L51.6177 16.832C51.3426 17.2425 50.9744 17.562 50.5132 17.7905C50.0562 18.0148 49.542 18.127 48.9707 18.127ZM48.7866 12.2427C48.3634 12.2427 48.0207 12.3908 47.7583 12.687C47.5002 12.9832 47.3351 13.3958 47.2632 13.9248H50.2021V13.8105C50.1683 13.2943 50.0308 12.9049 49.7896 12.6426C49.5483 12.376 49.214 12.2427 48.7866 12.2427ZM58.7461 18H57.2036V15.2261H54.5312V18H52.9888V11.1318H54.5312V13.9946H57.2036V11.1318H58.7461V18ZM64.6812 11.1318H66.2173V18H64.6812V13.417L61.9897 18H60.4536V11.1318H61.9897V15.7148L64.6812 11.1318ZM73.2632 12.3569H71.0352V18H69.4927V12.3569H67.29V11.1318H73.2632V12.3569ZM75.9546 13.3154H77.4653C78.0282 13.3154 78.519 13.4128 78.938 13.6074C79.3569 13.8021 79.6743 14.075 79.8901 14.4263C80.1102 14.7775 80.2202 15.1859 80.2202 15.6514C80.2202 16.3581 79.9705 16.9251 79.4712 17.3525C78.9718 17.7799 78.3075 17.9958 77.478 18H74.4121V11.1318H75.9546V13.3154ZM75.9546 14.5532V16.7686H77.459C77.8356 16.7686 78.1318 16.6755 78.3477 16.4893C78.5677 16.2988 78.6777 16.0301 78.6777 15.6831C78.6777 15.3361 78.5698 15.0632 78.354 14.8643C78.1424 14.6611 77.8547 14.5575 77.4907 14.5532H75.9546Z" fill="white"/>
</svg>
