<svg width="65" height="20" viewBox="0 0 65 20" fill="none" xmlns="http://www.w3.org/2000/svg">
<path d="M7.26562 8.29297C7.16016 9.19531 6.82617 9.89258 6.26367 10.3848C5.70508 10.873 4.96094 11.1172 4.03125 11.1172C3.02344 11.1172 2.21484 10.7559 1.60547 10.0332C1 9.31055 0.697266 8.34375 0.697266 7.13281V6.3125C0.697266 5.51953 0.837891 4.82227 1.11914 4.2207C1.4043 3.61914 1.80664 3.1582 2.32617 2.83789C2.8457 2.51367 3.44727 2.35156 4.13086 2.35156C5.03711 2.35156 5.76367 2.60547 6.31055 3.11328C6.85742 3.61719 7.17578 4.31641 7.26562 5.21094H6.13477C6.03711 4.53125 5.82422 4.03906 5.49609 3.73438C5.17188 3.42969 4.7168 3.27734 4.13086 3.27734C3.41211 3.27734 2.84766 3.54297 2.4375 4.07422C2.03125 4.60547 1.82812 5.36133 1.82812 6.3418V7.16797C1.82812 8.09375 2.02148 8.83008 2.4082 9.37695C2.79492 9.92383 3.33594 10.1973 4.03125 10.1973C4.65625 10.1973 5.13477 10.0566 5.4668 9.77539C5.80273 9.49023 6.02539 8.99609 6.13477 8.29297H7.26562ZM8.34961 7.77148C8.34961 7.15039 8.4707 6.5918 8.71289 6.0957C8.95898 5.59961 9.29883 5.2168 9.73242 4.94727C10.1699 4.67773 10.668 4.54297 11.2266 4.54297C12.0898 4.54297 12.7871 4.8418 13.3184 5.43945C13.8535 6.03711 14.1211 6.83203 14.1211 7.82422V7.90039C14.1211 8.51758 14.002 9.07227 13.7637 9.56445C13.5293 10.0527 13.1914 10.4336 12.75 10.707C12.3125 10.9805 11.8086 11.1172 11.2383 11.1172C10.3789 11.1172 9.68164 10.8184 9.14648 10.2207C8.61523 9.62305 8.34961 8.83203 8.34961 7.84766V7.77148ZM9.43945 7.90039C9.43945 8.60352 9.60156 9.16797 9.92578 9.59375C10.2539 10.0195 10.6914 10.2324 11.2383 10.2324C11.7891 10.2324 12.2266 10.0176 12.5508 9.58789C12.875 9.1543 13.0371 8.54883 13.0371 7.77148C13.0371 7.07617 12.8711 6.51367 12.5391 6.08398C12.2109 5.65039 11.7734 5.43359 11.2266 5.43359C10.6914 5.43359 10.2598 5.64648 9.93164 6.07227C9.60352 6.49805 9.43945 7.10742 9.43945 7.90039ZM15.1934 7.77148C15.1934 7.15039 15.3145 6.5918 15.5566 6.0957C15.8027 5.59961 16.1426 5.2168 16.5762 4.94727C17.0137 4.67773 17.5117 4.54297 18.0703 4.54297C18.9336 4.54297 19.6309 4.8418 20.1621 5.43945C20.6973 6.03711 20.9648 6.83203 20.9648 7.82422V7.90039C20.9648 8.51758 20.8457 9.07227 20.6074 9.56445C20.373 10.0527 20.0352 10.4336 19.5938 10.707C19.1562 10.9805 18.6523 11.1172 18.082 11.1172C17.2227 11.1172 16.5254 10.8184 15.9902 10.2207C15.459 9.62305 15.1934 8.83203 15.1934 7.84766V7.77148ZM16.2832 7.90039C16.2832 8.60352 16.4453 9.16797 16.7695 9.59375C17.0977 10.0195 17.5352 10.2324 18.082 10.2324C18.6328 10.2324 19.0703 10.0176 19.3945 9.58789C19.7188 9.1543 19.8809 8.54883 19.8809 7.77148C19.8809 7.07617 19.7148 6.51367 19.3828 6.08398C19.0547 5.65039 18.6172 5.43359 18.0703 5.43359C17.5352 5.43359 17.1035 5.64648 16.7754 6.07227C16.4473 6.49805 16.2832 7.10742 16.2832 7.90039ZM25.1074 5.02344C25.9043 5.02344 26.541 5.29102 27.0176 5.82617C27.498 6.35742 27.7383 7.05859 27.7383 7.92969V8.0293C27.7383 8.62695 27.623 9.16211 27.3926 9.63477C27.1621 10.1035 26.8301 10.4688 26.3965 10.7305C25.9668 10.9883 25.4707 11.1172 24.9082 11.1172C24.0566 11.1172 23.3711 10.834 22.8516 10.2676C22.332 9.69727 22.0723 8.93359 22.0723 7.97656V7.44922C22.0723 6.11719 22.3184 5.05859 22.8105 4.27344C23.3066 3.48828 24.0371 3.00977 25.002 2.83789C25.5488 2.74023 25.918 2.62109 26.1094 2.48047C26.3008 2.33984 26.3965 2.14648 26.3965 1.90039H27.2871C27.2871 2.38867 27.1758 2.76953 26.9531 3.04297C26.7344 3.31641 26.3828 3.50977 25.8984 3.62305L25.0898 3.80469C24.4453 3.95703 23.9609 4.21484 23.6367 4.57812C23.3164 4.9375 23.1074 5.41797 23.0098 6.01953C23.584 5.35547 24.2832 5.02344 25.1074 5.02344ZM24.8965 5.91406C24.3652 5.91406 23.9434 6.09375 23.6309 6.45312C23.3184 6.80859 23.1621 7.30273 23.1621 7.93555V8.0293C23.1621 8.70898 23.3184 9.24805 23.6309 9.64648C23.9473 10.041 24.373 10.2383 24.9082 10.2383C25.4473 10.2383 25.873 10.0391 26.1855 9.64062C26.498 9.24219 26.6543 8.66016 26.6543 7.89453C26.6543 7.29688 26.4961 6.81836 26.1797 6.45898C25.8672 6.0957 25.4395 5.91406 24.8965 5.91406ZM29.9707 4.66016V10.1152H32.291V4.66016H33.375V10.1152H35.6895V4.66016H36.7793V10.1152H37.6699L37.5645 12.8809H36.5918V11H28.8809V4.66016H29.9707ZM41.4785 11.1172C40.6191 11.1172 39.9199 10.8359 39.3809 10.2734C38.8418 9.70703 38.5723 8.95117 38.5723 8.00586V7.80664C38.5723 7.17773 38.6914 6.61719 38.9297 6.125C39.1719 5.62891 39.5078 5.24219 39.9375 4.96484C40.3711 4.68359 40.8398 4.54297 41.3438 4.54297C42.168 4.54297 42.8086 4.81445 43.2656 5.35742C43.7227 5.90039 43.9512 6.67773 43.9512 7.68945V8.14062H39.6562C39.6719 8.76562 39.8535 9.27148 40.2012 9.6582C40.5527 10.041 40.998 10.2324 41.5371 10.2324C41.9199 10.2324 42.2441 10.1543 42.5098 9.99805C42.7754 9.8418 43.0078 9.63477 43.207 9.37695L43.8691 9.89258C43.3379 10.709 42.541 11.1172 41.4785 11.1172ZM41.3438 5.43359C40.9062 5.43359 40.5391 5.59375 40.2422 5.91406C39.9453 6.23047 39.7617 6.67578 39.6914 7.25H42.8672V7.16797C42.8359 6.61719 42.6875 6.19141 42.4219 5.89062C42.1562 5.58594 41.7969 5.43359 41.3438 5.43359ZM50.3906 11H49.3066V8.29297H46.3945V11H45.3047V4.66016H46.3945V7.4082H49.3066V4.66016H50.3906V11ZM56.2383 4.66016H57.3223V11H56.2383V6.37695L53.3145 11H52.2305V4.66016H53.3145V9.28906L56.2383 4.66016ZM63.9082 4.66016V11H62.8184V8.5332H61.1836L59.6895 11H58.5176L60.1113 8.36914C59.7051 8.2207 59.3926 7.99219 59.1738 7.68359C58.959 7.37109 58.8516 7.00781 58.8516 6.59375C58.8516 6.01562 59.0684 5.55078 59.502 5.19922C59.9355 4.84375 60.5156 4.66406 61.2422 4.66016H63.9082ZM59.9414 6.60547C59.9414 6.91406 60.0469 7.16406 60.2578 7.35547C60.4688 7.54297 60.748 7.63867 61.0957 7.64258H62.8184V5.53906H61.2598C60.8574 5.53906 60.5371 5.63867 60.2988 5.83789C60.0605 6.0332 59.9414 6.28906 59.9414 6.60547Z" fill="white"/>
<rect x="65" y="20" width="65" height="1.99999" transform="rotate(-180 65 20)" fill="white"/>
</svg>
