<svg width="44" height="16" viewBox="0 0 44 16" fill="none" xmlns="http://www.w3.org/2000/svg">
<path d="M21.3079 9.55634C21.2148 10.5423 20.8508 11.3125 20.2161 11.8669C19.5813 12.417 18.7371 12.6921 17.6833 12.6921C16.947 12.6921 16.2974 12.5186 15.7346 12.1716C15.176 11.8203 14.7444 11.3231 14.4397 10.6799C14.135 10.0366 13.9763 9.28973 13.9636 8.43915V7.57587C13.9636 6.70412 14.1181 5.93606 14.427 5.27167C14.7359 4.60728 15.1781 4.09524 15.7537 3.73553C16.3334 3.37583 17.002 3.19598 17.7595 3.19598C18.7794 3.19598 19.6003 3.47316 20.2224 4.02753C20.8445 4.58189 21.2063 5.36477 21.3079 6.37616H19.7083C19.6321 5.71177 19.4374 5.23358 19.1243 4.94159C18.8153 4.64537 18.3604 4.49725 17.7595 4.49725C17.0613 4.49725 16.5238 4.75328 16.1472 5.26532C15.7748 5.77313 15.5844 6.52004 15.5759 7.50604V8.32489C15.5759 9.32359 15.7537 10.0853 16.1091 10.61C16.4688 11.1348 16.9936 11.3972 17.6833 11.3972C18.3139 11.3972 18.7878 11.2554 19.1052 10.9719C19.4226 10.6883 19.6236 10.2165 19.7083 9.55634H21.3079ZM28.0046 6.92206H25.7766V12.5651H24.2341V6.92206H22.0315V5.69696H28.0046V6.92206ZM28.5569 9.06757C28.5569 8.39471 28.6902 7.78957 28.9568 7.25214C29.2234 6.71047 29.5979 6.29576 30.0803 6.008C30.5627 5.716 31.1171 5.57001 31.7434 5.57001C32.6702 5.57001 33.4213 5.86835 33.9968 6.46503C34.5766 7.06171 34.8897 7.85305 34.9363 8.83905L34.9426 9.20087C34.9426 9.87795 34.8114 10.4831 34.5491 11.0163C34.2909 11.5495 33.9185 11.9621 33.4319 12.2541C32.9495 12.5461 32.3909 12.6921 31.7561 12.6921C30.787 12.6921 30.0105 12.3705 29.4265 11.7272C28.8468 11.0798 28.5569 10.2186 28.5569 9.14374V9.06757ZM30.0994 9.20087C30.0994 9.90757 30.2454 10.4619 30.5374 10.864C30.8293 11.2617 31.2356 11.4606 31.7561 11.4606C32.2766 11.4606 32.6807 11.2575 32.9685 10.8513C33.2605 10.445 33.4065 9.85044 33.4065 9.06757C33.4065 8.37356 33.2563 7.82343 32.9558 7.41718C32.6596 7.01093 32.2555 6.8078 31.7434 6.8078C31.2398 6.8078 30.8399 7.00881 30.5437 7.41083C30.2475 7.80861 30.0994 8.40529 30.0994 9.20087ZM42.071 12.5651H40.5286V6.9411H37.8499V12.5651H36.3074V5.69696H42.071V12.5651Z" fill="white"/>
<path d="M0.54126 4.10681H2.91626V12.0235H0.54126V4.10681ZM4.49959 4.10681H6.87459V12.0235H4.49959V4.10681Z" fill="white"/>
</svg>
