<svg width="16" height="18" viewBox="0 0 16 18" fill="none" xmlns="http://www.w3.org/2000/svg">
<path d="M15.5294 5.92105H0.470588C0.34578 5.92105 0.226085 5.97096 0.137832 6.05979C0.0495798 6.14862 0 6.26911 0 6.39474V11.8421C0 11.9677 0.0495798 12.0882 0.137832 12.1771C0.226085 12.2659 0.34578 12.3158 0.470588 12.3158H1.88235C2.00716 12.3158 2.12686 12.2659 2.21511 12.1771C2.30336 12.0882 2.35294 11.9677 2.35294 11.8421V10.4211H13.6471V11.8421C13.6471 11.9677 13.6966 12.0882 13.7849 12.1771C13.8731 12.2659 13.9928 12.3158 14.1176 12.3158H15.5294C15.6542 12.3158 15.7739 12.2659 15.8622 12.1771C15.9504 12.0882 16 11.9677 16 11.8421V6.39474C16 6.26911 15.9504 6.14862 15.8622 6.05979C15.7739 5.97096 15.6542 5.92105 15.5294 5.92105ZM14.1176 8.52632H13.6471C13.5223 8.52632 13.4026 8.47641 13.3143 8.38758C13.2261 8.29874 13.1765 8.17826 13.1765 8.05263C13.1765 7.927 13.2261 7.80652 13.3143 7.71769C13.4026 7.62885 13.5223 7.57895 13.6471 7.57895H14.1176C14.2425 7.57895 14.3622 7.62885 14.4504 7.71769C14.5387 7.80652 14.5882 7.927 14.5882 8.05263C14.5882 8.17826 14.5387 8.29874 14.4504 8.38758C14.3622 8.47641 14.2425 8.52632 14.1176 8.52632ZM12.7059 11.1316C12.5811 11.1316 12.4614 11.1815 12.3731 11.2703C12.2849 11.3592 12.2353 11.4796 12.2353 11.6053V12.0789H3.76471V11.6053C3.76471 11.4796 3.71513 11.3592 3.62687 11.2703C3.53862 11.1815 3.41893 11.1316 3.29412 11.1316C3.16931 11.1316 3.04961 11.1815 2.96136 11.2703C2.87311 11.3592 2.82353 11.4796 2.82353 11.6053V17.5263C2.82353 17.6519 2.87311 17.7724 2.96136 17.8613C3.04961 17.9501 3.16931 18 3.29412 18H12.7059C12.8307 18 12.9504 17.9501 13.0386 17.8613C13.1269 17.7724 13.1765 17.6519 13.1765 17.5263V11.6053C13.1765 11.4796 13.1269 11.3592 13.0386 11.2703C12.9504 11.1815 12.8307 11.1316 12.7059 11.1316ZM11.2941 16.5789H4.70588C4.58107 16.5789 4.46138 16.529 4.37313 16.4402C4.28487 16.3514 4.23529 16.2309 4.23529 16.1053C4.23529 15.9796 4.28487 15.8592 4.37313 15.7703C4.46138 15.6815 4.58107 15.6316 4.70588 15.6316H11.2941C11.4189 15.6316 11.5386 15.6815 11.6269 15.7703C11.7151 15.8592 11.7647 15.9796 11.7647 16.1053C11.7647 16.2309 11.7151 16.3514 11.6269 16.4402C11.5386 16.529 11.4189 16.5789 11.2941 16.5789ZM11.2941 14.4474H4.70588C4.58107 14.4474 4.46138 14.3975 4.37313 14.3086C4.28487 14.2198 4.23529 14.0993 4.23529 13.9737C4.23529 13.8481 4.28487 13.7276 4.37313 13.6387C4.46138 13.5499 4.58107 13.5 4.70588 13.5H11.2941C11.4189 13.5 11.5386 13.5499 11.6269 13.6387C11.7151 13.7276 11.7647 13.8481 11.7647 13.9737C11.7647 14.0993 11.7151 14.2198 11.6269 14.3086C11.5386 14.3975 11.4189 14.4474 11.2941 14.4474ZM2.82353 4.5V0.473684C2.82353 0.348055 2.87311 0.227572 2.96136 0.138739C3.04961 0.049906 3.16931 0 3.29412 0H10.8235C10.9483 1.42663e-05 11.068 0.0499296 11.1563 0.138766L13.0386 2.0335C13.1269 2.12232 13.1765 2.2428 13.1765 2.36842V4.5C13.1765 4.62563 13.1269 4.74611 13.0386 4.83495C12.9504 4.92378 12.8307 4.97368 12.7059 4.97368H3.29412C3.16931 4.97368 3.04961 4.92378 2.96136 4.83495C2.87311 4.74611 2.82353 4.62563 2.82353 4.5Z" fill="#3A3A3A"/>
</svg>
