<svg width="14" height="14" viewBox="0 0 14 14" fill="none" xmlns="http://www.w3.org/2000/svg">
<path d="M11.6552 0.219074C11.5149 0.0788043 11.3247 1.19353e-06 11.1263 0H0.747966C0.549594 -4.12566e-07 0.359347 0.0788015 0.219077 0.21907C0.0788063 0.359339 2.06278e-06 0.549585 0 0.747956V13.252C0 13.4504 0.0788033 13.6407 0.219074 13.7809C0.359345 13.9212 0.549593 14 0.747966 14H13.252C13.4504 14 13.6407 13.9212 13.7809 13.7809C13.9212 13.6407 14 13.4504 14 13.252V2.87371C14 2.77548 13.9807 2.67822 13.9431 2.58747C13.9055 2.49673 13.8504 2.41427 13.7809 2.34482L11.6552 0.219074ZM3.8189 0.923183C3.8189 0.88366 3.82668 0.844525 3.84181 0.80801C3.85693 0.771496 3.8791 0.738318 3.90705 0.710371C3.93499 0.682424 3.96817 0.660256 4.00468 0.645131C4.0412 0.630006 4.08034 0.622222 4.11986 0.622222H9.88014C9.91967 0.622221 9.9588 0.630005 9.99532 0.645129C10.0318 0.660253 10.065 0.682422 10.093 0.710368C10.1209 0.738315 10.1431 0.771494 10.1582 0.808008C10.1733 0.844523 10.1811 0.88366 10.1811 0.923183V4.63923C10.1811 4.67875 10.1733 4.71789 10.1582 4.7544C10.1431 4.79092 10.1209 4.82409 10.093 4.85204C10.065 4.87999 10.0318 4.90216 9.99532 4.91728C9.95881 4.9324 9.91967 4.94019 9.88015 4.94019H4.11986C4.08034 4.94019 4.0412 4.9324 4.00468 4.91728C3.96817 4.90216 3.93499 4.87999 3.90705 4.85204C3.8791 4.82409 3.85693 4.79092 3.84181 4.7544C3.82668 4.71789 3.8189 4.67875 3.8189 4.63923V0.923183ZM12.4853 12.2625C12.4853 12.3663 12.444 12.4659 12.3706 12.5393C12.2972 12.6127 12.1976 12.654 12.0938 12.654H1.9062C1.80238 12.654 1.7028 12.6127 1.62939 12.5393C1.55597 12.4659 1.51473 12.3663 1.51473 12.2625V6.73167C1.51473 6.68026 1.52486 6.62935 1.54453 6.58186C1.5642 6.53436 1.59304 6.49121 1.62939 6.45485C1.66574 6.4185 1.7089 6.38967 1.75639 6.36999C1.80389 6.35032 1.85479 6.3402 1.9062 6.3402H12.0938C12.1452 6.3402 12.1961 6.35032 12.2436 6.36999C12.2911 6.38967 12.3343 6.4185 12.3706 6.45485C12.407 6.49121 12.4358 6.53436 12.4555 6.58186C12.4751 6.62935 12.4853 6.68026 12.4853 6.73167V12.2625Z" fill="#3A3A3A"/>
<path d="M9.57315 7.98036H4.42675C4.30298 7.98036 4.18428 8.02953 4.09677 8.11705C4.00925 8.20456 3.96008 8.32326 3.96008 8.44703C3.96008 8.5708 4.00925 8.68949 4.09677 8.77701C4.18428 8.86453 4.30298 8.9137 4.42675 8.9137H9.57315C9.69692 8.9137 9.81562 8.86453 9.90313 8.77701C9.99065 8.68949 10.0398 8.5708 10.0398 8.44703C10.0398 8.32326 9.99065 8.20456 9.90313 8.11705C9.81562 8.02953 9.69692 7.98036 9.57315 7.98036Z" fill="#3A3A3A"/>
<path d="M9.57315 10.0804H4.42675C4.30298 10.0804 4.18428 10.1295 4.09677 10.217C4.00925 10.3046 3.96008 10.4233 3.96008 10.547C3.96008 10.6708 4.00925 10.7895 4.09677 10.877C4.18428 10.9645 4.30298 11.0137 4.42675 11.0137H9.57315C9.69692 11.0137 9.81562 10.9645 9.90313 10.877C9.99065 10.7895 10.0398 10.6708 10.0398 10.547C10.0398 10.4233 9.99065 10.3046 9.90313 10.217C9.81562 10.1295 9.69692 10.0804 9.57315 10.0804Z" fill="#3A3A3A"/>
</svg>
