<svg width="151" height="60" viewBox="0 0 151 60" fill="none" xmlns="http://www.w3.org/2000/svg">
<g filter="url(#filter0_dd)">
<rect x="134" y="43" width="117" height="27" rx="13.5" transform="rotate(-180 134 43)" fill="#4D5AB2"/>
</g>
<path d="M36.9121 29.5L30.0001 33.5L30.0001 25.5L36.9121 29.5Z" fill="white"/>
<path d="M51.3545 34H49.7549V26.0527H45.686V34H44.0864V24.7578H51.3545V34ZM52.8589 30.5024C52.8589 29.8296 52.9922 29.2244 53.2588 28.687C53.5254 28.1453 53.8999 27.7306 54.3823 27.4429C54.8647 27.1509 55.4191 27.0049 56.0454 27.0049C56.9722 27.0049 57.7233 27.3032 58.2988 27.8999C58.8786 28.4966 59.1917 29.2879 59.2383 30.2739L59.2446 30.6357C59.2446 31.3128 59.1134 31.918 58.8511 32.4512C58.5929 32.9844 58.2205 33.397 57.7339 33.689C57.2515 33.981 56.6929 34.127 56.0581 34.127C55.089 34.127 54.3125 33.8053 53.7285 33.1621C53.1488 32.5146 52.8589 31.6535 52.8589 30.5786V30.5024ZM54.4014 30.6357C54.4014 31.3424 54.5474 31.8968 54.8394 32.2988C55.1313 32.6966 55.5376 32.8955 56.0581 32.8955C56.5786 32.8955 56.9827 32.6924 57.2705 32.2861C57.5625 31.8799 57.7085 31.2853 57.7085 30.5024C57.7085 29.8084 57.5583 29.2583 57.2578 28.8521C56.9616 28.4458 56.5575 28.2427 56.0454 28.2427C55.5418 28.2427 55.1419 28.4437 54.8457 28.8457C54.5495 29.2435 54.4014 29.8402 54.4014 30.6357ZM60.1206 32.7686C60.548 32.2904 60.8337 31.8376 60.9775 31.4102C61.1257 30.9785 61.2145 30.4284 61.2441 29.7598L61.333 27.1318H66.1001V32.7686H67.0522V36.0439H65.5161V34H61.1108V36.0439H59.5493L59.5557 32.7686H60.1206ZM61.9297 32.7686H64.564V28.4585H62.8311L62.7866 29.7725C62.7274 31.0335 62.4417 32.0322 61.9297 32.7686ZM70.48 31.2832H69.6992V34H68.1567V27.1318H69.6992V29.874H70.3784L72.2764 27.1318H74.1807L71.6987 30.4199L74.3901 34H72.3843L70.48 31.2832ZM81.0742 27.1318V34H79.5317V28.376H77.5894L77.4624 30.769C77.382 31.9201 77.1598 32.7474 76.7959 33.251C76.4362 33.7503 75.884 34 75.1392 34H74.6631L74.6567 32.7178L74.9741 32.686C75.3127 32.6395 75.5581 32.4342 75.7104 32.0703C75.867 31.7021 75.9665 31.0335 76.0088 30.0645L76.1357 27.1318H81.0742ZM84.3877 29.8931H85.6826C85.7969 29.0171 86.1354 28.3167 86.6982 27.792C87.2611 27.2673 87.972 27.0049 88.8311 27.0049C89.7578 27.0049 90.509 27.3032 91.0845 27.8999C91.6642 28.4966 91.9774 29.2879 92.0239 30.2739L92.0303 30.6357C92.0303 31.3128 91.8991 31.918 91.6367 32.4512C91.3786 32.9844 91.0062 33.397 90.5195 33.689C90.0371 33.981 89.4785 34.127 88.8438 34.127C87.9551 34.127 87.2251 33.8519 86.6538 33.3018C86.0868 32.7516 85.7588 32.028 85.6699 31.1309H84.3877V34H82.8452V27.1318H84.3877V29.8931ZM87.187 30.6357C87.187 31.3424 87.333 31.8968 87.625 32.2988C87.917 32.6966 88.3232 32.8955 88.8438 32.8955C89.3643 32.8955 89.7684 32.6924 90.0562 32.2861C90.3439 31.8799 90.4878 31.2853 90.4878 30.5024C90.4878 29.7957 90.3376 29.2435 90.0371 28.8457C89.7409 28.4437 89.3389 28.2427 88.8311 28.2427C88.3275 28.2427 87.9276 28.4437 87.6313 28.8457C87.3351 29.2435 87.187 29.8402 87.187 30.6357ZM98.8096 34H97.2671V31.7085C96.8693 31.8016 96.4504 31.8481 96.0103 31.8481C95.0708 31.8481 94.3535 31.6239 93.8584 31.1753C93.3633 30.7225 93.1157 30.075 93.1157 29.2329V27.1255H94.6582V29.2329C94.6582 29.7323 94.7682 30.0856 94.9883 30.293C95.2126 30.5003 95.5532 30.604 96.0103 30.604C96.425 30.604 96.8439 30.5553 97.2671 30.458V27.1318H98.8096V34ZM104.738 27.1318H106.274V34H104.738V29.417L102.047 34H100.511V27.1318H102.047V31.7148L104.738 27.1318ZM113.32 28.3569H111.092V34H109.55V28.3569H107.347V27.1318H113.32V28.3569ZM116.012 29.3154H117.522C118.085 29.3154 118.576 29.4128 118.995 29.6074C119.414 29.8021 119.731 30.075 119.947 30.4263C120.167 30.7775 120.277 31.1859 120.277 31.6514C120.277 32.3581 120.028 32.9251 119.528 33.3525C119.029 33.7799 118.365 33.9958 117.535 34H114.469V27.1318H116.012V29.3154ZM116.012 30.5532V32.7686H117.516C117.893 32.7686 118.189 32.6755 118.405 32.4893C118.625 32.2988 118.735 32.0301 118.735 31.6831C118.735 31.3361 118.627 31.0632 118.411 30.8643C118.2 30.6611 117.912 30.5575 117.548 30.5532H116.012Z" fill="white"/>
<defs>
<filter id="filter0_dd" x="0" y="0" width="151" height="60" filterUnits="userSpaceOnUse" color-interpolation-filters="sRGB">
<feFlood flood-opacity="0" result="BackgroundImageFix"/>
<feColorMatrix in="SourceAlpha" type="matrix" values="0 0 0 0 0 0 0 0 0 0 0 0 0 0 0 0 0 0 127 0"/>
<feOffset dx="4" dy="4"/>
<feGaussianBlur stdDeviation="6.5"/>
<feColorMatrix type="matrix" values="0 0 0 0 0.317187 0 0 0 0 0.317187 0 0 0 0 0.317187 0 0 0 1 0"/>
<feBlend mode="normal" in2="BackgroundImageFix" result="effect1_dropShadow"/>
<feColorMatrix in="SourceAlpha" type="matrix" values="0 0 0 0 0 0 0 0 0 0 0 0 0 0 0 0 0 0 127 0"/>
<feOffset dx="-4" dy="-3"/>
<feGaussianBlur stdDeviation="6.5"/>
<feColorMatrix type="matrix" values="0 0 0 0 0.555404 0 0 0 0 0.543833 0 0 0 0 0.543833 0 0 0 0.55 0"/>
<feBlend mode="normal" in2="effect1_dropShadow" result="effect2_dropShadow"/>
<feBlend mode="normal" in="SourceGraphic" in2="effect2_dropShadow" result="shape"/>
</filter>
</defs>
</svg>
