<svg width="83" height="18" viewBox="0 0 83 18" fill="none" xmlns="http://www.w3.org/2000/svg">
<path d="M81.3456 6.53226H71.6547C71.3592 6.53226 71.1229 6.76451 71.1524 7.05484L72.2751 17.3323C72.3047 17.6516 72.6001 17.8839 72.9547 17.8839H80.0456C80.4001 17.8839 80.666 17.6516 80.7251 17.3323L81.8479 7.05484C81.8774 6.76451 81.641 6.53226 81.3456 6.53226ZM73.6047 16.3161C73.6047 16.5194 73.4569 16.6645 73.2501 16.6645C73.0433 16.6645 72.8956 16.5194 72.8956 16.3161V8.68064C72.8956 8.47742 73.0433 8.33226 73.2501 8.33226C73.4569 8.33226 73.6047 8.47742 73.6047 8.68064V16.3161ZM75.7615 16.3161C75.7615 16.5194 75.6138 16.6645 75.4069 16.6645C75.2001 16.6645 75.0524 16.5194 75.0524 16.3161V8.68064C75.0524 8.47742 75.2001 8.33226 75.4069 8.33226C75.6138 8.33226 75.7615 8.47742 75.7615 8.68064V16.3161ZM77.9479 16.3161C77.9479 16.5194 77.8001 16.6645 77.5933 16.6645C77.3865 16.6645 77.2388 16.5194 77.2388 16.3161V8.68064C77.2388 8.47742 77.3865 8.33226 77.5933 8.33226C77.8001 8.33226 77.9479 8.47742 77.9479 8.68064V16.3161ZM80.1047 16.3161C80.1047 16.5194 79.9569 16.6645 79.7501 16.6645C79.5433 16.6645 79.3956 16.5194 79.3956 16.3161V8.68064C79.3956 8.47742 79.5433 8.33226 79.7501 8.33226C79.9569 8.33226 80.1047 8.47742 80.1047 8.68064V16.3161Z" fill="#C9C9C9"/>
<path d="M79.0706 0.145157H73.9297C73.4274 0.145157 72.9843 0.551608 72.9843 1.07419V2.96129H74.3729V1.50967H78.657V2.96129H80.0456V1.07419C80.0161 0.551608 79.6024 0.145157 79.0706 0.145157Z" fill="#C9C9C9"/>
<path d="M82.0546 3.3387H70.9455C70.5614 3.3387 70.266 3.57096 70.266 3.83225V5.48709C70.266 5.74838 70.5614 5.98063 70.9455 5.98063H82.0546C82.4387 5.98063 82.7342 5.74838 82.7342 5.48709V3.83225C82.7342 3.57096 82.4387 3.3387 82.0546 3.3387Z" fill="#C9C9C9"/>
<path d="M47.6552 2.21907C47.5149 2.0788 47.3247 2 47.1263 2H36.748C36.5496 2 36.3593 2.0788 36.2191 2.21907C36.0788 2.35934 36 2.54958 36 2.74796V15.252C36 15.4504 36.0788 15.6407 36.2191 15.7809C36.3593 15.9212 36.5496 16 36.748 16H49.252C49.4504 16 49.6407 15.9212 49.7809 15.7809C49.9212 15.6407 50 15.4504 50 15.252V4.87371C50 4.77548 49.9807 4.67822 49.9431 4.58747C49.9055 4.49673 49.8504 4.41427 49.7809 4.34482L47.6552 2.21907ZM39.8189 2.92318C39.8189 2.88366 39.8267 2.84452 39.8418 2.80801C39.8569 2.7715 39.8791 2.73832 39.907 2.71037C39.935 2.68242 39.9682 2.66026 40.0047 2.64513C40.0412 2.63001 40.0803 2.62222 40.1199 2.62222H45.8801C45.9197 2.62222 45.9588 2.63 45.9953 2.64513C46.0318 2.66025 46.065 2.68242 46.093 2.71037C46.1209 2.73832 46.1431 2.77149 46.1582 2.80801C46.1733 2.84452 46.1811 2.88366 46.1811 2.92318V6.63923C46.1811 6.67875 46.1733 6.71789 46.1582 6.7544C46.1431 6.79092 46.1209 6.82409 46.093 6.85204C46.065 6.87999 46.0318 6.90216 45.9953 6.91728C45.9588 6.9324 45.9197 6.94019 45.8802 6.94019H40.1199C40.0803 6.94019 40.0412 6.9324 40.0047 6.91728C39.9682 6.90216 39.935 6.87999 39.907 6.85204C39.8791 6.82409 39.8569 6.79092 39.8418 6.7544C39.8267 6.71789 39.8189 6.67875 39.8189 6.63923V2.92318ZM48.4853 14.2625C48.4853 14.3663 48.444 14.4659 48.3706 14.5393C48.2972 14.6127 48.1976 14.654 48.0938 14.654H37.9062C37.8024 14.654 37.7028 14.6127 37.6294 14.5393C37.556 14.4659 37.5147 14.3663 37.5147 14.2625V8.73167C37.5147 8.68026 37.5249 8.62935 37.5445 8.58186C37.5642 8.53436 37.593 8.49121 37.6294 8.45485C37.6657 8.4185 37.7089 8.38967 37.7564 8.36999C37.8039 8.35032 37.8548 8.3402 37.9062 8.3402H48.0938C48.1452 8.3402 48.1961 8.35032 48.2436 8.36999C48.2911 8.38967 48.3343 8.4185 48.3706 8.45485C48.407 8.49121 48.4358 8.53436 48.4555 8.58186C48.4751 8.62935 48.4853 8.68026 48.4853 8.73167V14.2625Z" fill="#C9C9C9"/>
<path d="M45.5731 9.98036H40.4267C40.303 9.98036 40.1843 10.0295 40.0968 10.117C40.0092 10.2046 39.9601 10.3233 39.9601 10.447C39.9601 10.5708 40.0092 10.6895 40.0968 10.777C40.1843 10.8645 40.303 10.9137 40.4267 10.9137H45.5731C45.6969 10.9137 45.8156 10.8645 45.9031 10.777C45.9907 10.6895 46.0398 10.5708 46.0398 10.447C46.0398 10.3233 45.9907 10.2046 45.9031 10.117C45.8156 10.0295 45.6969 9.98036 45.5731 9.98036Z" fill="#C9C9C9"/>
<path d="M45.5731 12.0804H40.4267C40.303 12.0804 40.1843 12.1295 40.0968 12.217C40.0092 12.3046 39.9601 12.4233 39.9601 12.547C39.9601 12.6708 40.0092 12.7895 40.0968 12.877C40.1843 12.9645 40.303 13.0137 40.4267 13.0137H45.5731C45.6969 13.0137 45.8156 12.9645 45.9031 12.877C45.9907 12.7895 46.0398 12.6708 46.0398 12.547C46.0398 12.4233 45.9907 12.3046 45.9031 12.217C45.8156 12.1295 45.6969 12.0804 45.5731 12.0804Z" fill="#C9C9C9"/>
<path d="M15.5294 5.92105H0.470588C0.34578 5.92105 0.226085 5.97096 0.137832 6.05979C0.0495798 6.14862 0 6.26911 0 6.39474V11.8421C0 11.9677 0.0495798 12.0882 0.137832 12.1771C0.226085 12.2659 0.34578 12.3158 0.470588 12.3158H1.88235C2.00716 12.3158 2.12686 12.2659 2.21511 12.1771C2.30336 12.0882 2.35294 11.9677 2.35294 11.8421V10.4211H13.6471V11.8421C13.6471 11.9677 13.6966 12.0882 13.7849 12.1771C13.8731 12.2659 13.9928 12.3158 14.1176 12.3158H15.5294C15.6542 12.3158 15.7739 12.2659 15.8622 12.1771C15.9504 12.0882 16 11.9677 16 11.8421V6.39474C16 6.26911 15.9504 6.14862 15.8622 6.05979C15.7739 5.97096 15.6542 5.92105 15.5294 5.92105ZM14.1176 8.52632H13.6471C13.5223 8.52632 13.4026 8.47641 13.3143 8.38758C13.2261 8.29874 13.1765 8.17826 13.1765 8.05263C13.1765 7.927 13.2261 7.80652 13.3143 7.71769C13.4026 7.62885 13.5223 7.57895 13.6471 7.57895H14.1176C14.2425 7.57895 14.3622 7.62885 14.4504 7.71769C14.5387 7.80652 14.5882 7.927 14.5882 8.05263C14.5882 8.17826 14.5387 8.29874 14.4504 8.38758C14.3622 8.47641 14.2425 8.52632 14.1176 8.52632ZM12.7059 11.1316C12.5811 11.1316 12.4614 11.1815 12.3731 11.2703C12.2849 11.3592 12.2353 11.4796 12.2353 11.6053V12.0789H3.76471V11.6053C3.76471 11.4796 3.71513 11.3592 3.62687 11.2703C3.53862 11.1815 3.41893 11.1316 3.29412 11.1316C3.16931 11.1316 3.04961 11.1815 2.96136 11.2703C2.87311 11.3592 2.82353 11.4796 2.82353 11.6053V17.5263C2.82353 17.6519 2.87311 17.7724 2.96136 17.8613C3.04961 17.9501 3.16931 18 3.29412 18H12.7059C12.8307 18 12.9504 17.9501 13.0386 17.8613C13.1269 17.7724 13.1765 17.6519 13.1765 17.5263V11.6053C13.1765 11.4796 13.1269 11.3592 13.0386 11.2703C12.9504 11.1815 12.8307 11.1316 12.7059 11.1316ZM11.2941 16.5789H4.70588C4.58107 16.5789 4.46138 16.529 4.37313 16.4402C4.28487 16.3514 4.23529 16.2309 4.23529 16.1053C4.23529 15.9796 4.28487 15.8592 4.37313 15.7703C4.46138 15.6815 4.58107 15.6316 4.70588 15.6316H11.2941C11.4189 15.6316 11.5386 15.6815 11.6269 15.7703C11.7151 15.8592 11.7647 15.9796 11.7647 16.1053C11.7647 16.2309 11.7151 16.3514 11.6269 16.4402C11.5386 16.529 11.4189 16.5789 11.2941 16.5789ZM11.2941 14.4474H4.70588C4.58107 14.4474 4.46138 14.3975 4.37313 14.3086C4.28487 14.2198 4.23529 14.0993 4.23529 13.9737C4.23529 13.8481 4.28487 13.7276 4.37313 13.6387C4.46138 13.5499 4.58107 13.5 4.70588 13.5H11.2941C11.4189 13.5 11.5386 13.5499 11.6269 13.6387C11.7151 13.7276 11.7647 13.8481 11.7647 13.9737C11.7647 14.0993 11.7151 14.2198 11.6269 14.3086C11.5386 14.3975 11.4189 14.4474 11.2941 14.4474ZM2.82353 4.5V0.473684C2.82353 0.348055 2.87311 0.227572 2.96136 0.138739C3.04961 0.049906 3.16931 0 3.29412 0H10.8235C10.9483 1.42663e-05 11.068 0.0499296 11.1563 0.138766L13.0386 2.0335C13.1269 2.12232 13.1765 2.2428 13.1765 2.36842V4.5C13.1765 4.62563 13.1269 4.74611 13.0386 4.83495C12.9504 4.92378 12.8307 4.97368 12.7059 4.97368H3.29412C3.16931 4.97368 3.04961 4.92378 2.96136 4.83495C2.87311 4.74611 2.82353 4.62563 2.82353 4.5Z" fill="#C9C9C9"/>
</svg>
