<svg width="34" height="11" viewBox="0 0 34 11" fill="none" xmlns="http://www.w3.org/2000/svg">
<path d="M7.55615 10H5.95654V5.89307H1.82422V10H0.218262V0.757812H1.82422V4.60449H5.95654V0.757812H7.55615V10ZM9.02246 6.50244C9.02246 5.82959 9.15576 5.22445 9.42236 4.68701C9.68896 4.14535 10.0635 3.73063 10.5459 3.44287C11.0283 3.15088 11.5827 3.00488 12.209 3.00488C13.1357 3.00488 13.8869 3.30322 14.4624 3.8999C15.0422 4.49658 15.3553 5.28792 15.4019 6.27393L15.4082 6.63574C15.4082 7.31283 15.277 7.91797 15.0146 8.45117C14.7565 8.98438 14.3841 9.39697 13.8975 9.68896C13.415 9.98096 12.8564 10.127 12.2217 10.127C11.2526 10.127 10.4761 9.80534 9.89209 9.16211C9.31234 8.51465 9.02246 7.65348 9.02246 6.57861V6.50244ZM10.5649 6.63574C10.5649 7.34245 10.7109 7.89681 11.0029 8.29883C11.2949 8.69661 11.7012 8.89551 12.2217 8.89551C12.7422 8.89551 13.1463 8.69238 13.4341 8.28613C13.7261 7.87988 13.8721 7.28532 13.8721 6.50244C13.8721 5.80843 13.7218 5.2583 13.4214 4.85205C13.1252 4.4458 12.721 4.24268 12.209 4.24268C11.7054 4.24268 11.3055 4.44368 11.0093 4.8457C10.7131 5.24349 10.5649 5.84017 10.5649 6.63574ZM19.0327 8.04492L20.4863 3.13184H22.0796L19.6992 10H18.3599L15.9604 3.13184H17.5601L19.0327 8.04492ZM25.9834 10.127C25.0059 10.127 24.2124 9.82015 23.603 9.20654C22.9979 8.5887 22.6953 7.76774 22.6953 6.74365V6.55322C22.6953 5.86768 22.8265 5.25618 23.0889 4.71875C23.3555 4.17708 23.7279 3.75602 24.2061 3.45557C24.6842 3.15511 25.2174 3.00488 25.8057 3.00488C26.7409 3.00488 27.4624 3.30322 27.9702 3.8999C28.4823 4.49658 28.7383 5.34082 28.7383 6.43262V7.05469H24.2505C24.297 7.62174 24.4854 8.07031 24.8154 8.40039C25.1497 8.73047 25.5687 8.89551 26.0723 8.89551C26.779 8.89551 27.3545 8.60986 27.7988 8.03857L28.6304 8.83203C28.3553 9.24251 27.9871 9.56201 27.5259 9.79053C27.0688 10.0148 26.5547 10.127 25.9834 10.127ZM25.7993 4.24268C25.3761 4.24268 25.0334 4.39079 24.771 4.68701C24.5129 4.98324 24.3478 5.39583 24.2759 5.9248H27.2148V5.81055C27.181 5.29427 27.0435 4.90495 26.8022 4.64258C26.561 4.37598 26.2267 4.24268 25.7993 4.24268ZM33.5371 4.54102C33.334 4.50716 33.1245 4.49023 32.9087 4.49023C32.202 4.49023 31.7259 4.76107 31.4805 5.30273V10H29.938V3.13184H31.4106L31.4487 3.8999C31.8211 3.30322 32.3374 3.00488 32.9976 3.00488C33.2176 3.00488 33.3996 3.03451 33.5435 3.09375L33.5371 4.54102Z" fill="black"/>
</svg>
