<svg width="42" height="11" viewBox="0 0 42 11" fill="none" xmlns="http://www.w3.org/2000/svg">
<path d="M7.33496 10H5.729L1.60938 3.44287V10H0.00341797V0.757812H1.60938L5.7417 7.34033V0.757812H7.33496V10ZM8.79492 6.50244C8.79492 5.82959 8.92822 5.22445 9.19482 4.68701C9.46143 4.14535 9.83594 3.73063 10.3184 3.44287C10.8008 3.15088 11.3551 3.00488 11.9814 3.00488C12.9082 3.00488 13.6593 3.30322 14.2349 3.8999C14.8146 4.49658 15.1278 5.28792 15.1743 6.27393L15.1807 6.63574C15.1807 7.31283 15.0495 7.91797 14.7871 8.45117C14.529 8.98438 14.1566 9.39697 13.6699 9.68896C13.1875 9.98096 12.6289 10.127 11.9941 10.127C11.0251 10.127 10.2485 9.80534 9.66455 9.16211C9.0848 8.51465 8.79492 7.65348 8.79492 6.57861V6.50244ZM10.3374 6.63574C10.3374 7.34245 10.4834 7.89681 10.7754 8.29883C11.0674 8.69661 11.4736 8.89551 11.9941 8.89551C12.5146 8.89551 12.9188 8.69238 13.2065 8.28613C13.4985 7.87988 13.6445 7.28532 13.6445 6.50244C13.6445 5.80843 13.4943 5.2583 13.1938 4.85205C12.8976 4.4458 12.4935 4.24268 11.9814 4.24268C11.4779 4.24268 11.078 4.44368 10.7817 4.8457C10.4855 5.24349 10.3374 5.84017 10.3374 6.63574ZM20.0811 4.54102C19.8779 4.50716 19.6685 4.49023 19.4526 4.49023C18.7459 4.49023 18.2699 4.76107 18.0244 5.30273V10H16.4819V3.13184H17.9546L17.9927 3.8999C18.3651 3.30322 18.8813 3.00488 19.5415 3.00488C19.7616 3.00488 19.9435 3.03451 20.0874 3.09375L20.0811 4.54102ZM22.5059 3.13184L22.5503 3.84912C23.0327 3.2863 23.6929 3.00488 24.5308 3.00488C25.4491 3.00488 26.0775 3.35612 26.416 4.05859C26.9154 3.35612 27.6178 3.00488 28.5234 3.00488C29.2809 3.00488 29.8438 3.21436 30.2119 3.6333C30.5843 4.05225 30.7747 4.67008 30.7832 5.48682V10H29.2407V5.53125C29.2407 5.09538 29.1455 4.77588 28.9551 4.57275C28.7646 4.36963 28.4494 4.26807 28.0093 4.26807C27.658 4.26807 27.3703 4.36328 27.146 4.55371C26.9259 4.73991 26.7715 4.98535 26.6826 5.29004L26.689 10H25.1465V5.48047C25.1253 4.6722 24.7127 4.26807 23.9087 4.26807C23.2909 4.26807 22.8529 4.51986 22.5947 5.02344V10H21.0522V3.13184H22.5059ZM36.4707 10C36.403 9.86882 36.3438 9.65511 36.293 9.35889C35.8021 9.87093 35.2012 10.127 34.4902 10.127C33.8005 10.127 33.2376 9.93018 32.8018 9.53662C32.3659 9.14307 32.1479 8.65641 32.1479 8.07666C32.1479 7.34456 32.4188 6.78385 32.9604 6.39453C33.5063 6.00098 34.285 5.8042 35.2964 5.8042H36.2422V5.35352C36.2422 4.99805 36.1427 4.71452 35.9438 4.50293C35.745 4.28711 35.4424 4.1792 35.0361 4.1792C34.6849 4.1792 34.3971 4.26807 34.1729 4.4458C33.9486 4.6193 33.8364 4.84147 33.8364 5.1123H32.2939C32.2939 4.73568 32.4188 4.38444 32.6685 4.05859C32.9181 3.72852 33.2567 3.47038 33.6841 3.28418C34.1157 3.09798 34.596 3.00488 35.125 3.00488C35.929 3.00488 36.5701 3.20801 37.0483 3.61426C37.5265 4.01628 37.772 4.58333 37.7847 5.31543V8.41309C37.7847 9.03092 37.8714 9.52393 38.0449 9.89209V10H36.4707ZM34.7759 8.88916C35.0806 8.88916 35.3662 8.8151 35.6328 8.66699C35.9036 8.51888 36.1068 8.31999 36.2422 8.07031V6.77539H35.4106C34.8394 6.77539 34.4098 6.87484 34.1221 7.07373C33.8343 7.27262 33.6904 7.55404 33.6904 7.91797C33.6904 8.21419 33.7878 8.45117 33.9824 8.62891C34.1813 8.80241 34.4458 8.88916 34.7759 8.88916ZM41.041 10H39.4985V0.25H41.041V10Z" fill="black"/>
</svg>
