<svg width="20" height="20" viewBox="0 0 20 20" fill="none" xmlns="http://www.w3.org/2000/svg">
<path d="M16.087 5.21739H14.7826V0.434783C14.7826 0.194348 14.5878 0 14.3478 0H11.7391C11.4991 0 11.3044 0.194348 11.3044 0.434783V5.21739H8.69566V0.434783C8.69566 0.194348 8.50088 0 8.26088 0H5.65218C5.41218 0 5.2174 0.194348 5.2174 0.434783V5.21739H3.91305C3.67305 5.21739 3.47827 5.41174 3.47827 5.65217V10.8696C3.47827 12.0683 4.45349 13.0435 5.65218 13.0435C6.37132 13.0435 6.95653 13.6287 6.95653 14.3478V16.087C6.95653 16.3274 7.15132 16.5217 7.39132 16.5217H7.8261V19.5652C7.8261 19.8057 8.02088 20 8.26088 20H11.7391C11.9791 20 12.1739 19.8057 12.1739 19.5652V16.5217H12.6087C12.8487 16.5217 13.0435 16.3274 13.0435 16.087V14.3478C13.0435 13.6287 13.6287 13.0435 14.3478 13.0435C15.5465 13.0435 16.5218 12.0683 16.5218 10.8696V5.65217C16.5218 5.41174 16.327 5.21739 16.087 5.21739ZM12.1739 0.869565H13.9131V5.21739H12.1739V0.869565ZM6.08697 0.869565H7.8261V5.21739H6.08697V0.869565ZM11.3044 19.1304H8.69566V16.5217H11.3044V19.1304ZM15.6522 10.8696C15.6522 11.5887 15.067 12.1739 14.3478 12.1739C13.1491 12.1739 12.1739 13.1491 12.1739 14.3478V15.6522H7.8261V14.3478C7.8261 13.1491 6.85088 12.1739 5.65218 12.1739C4.93305 12.1739 4.34784 11.5887 4.34784 10.8696V6.08696H15.6522V10.8696Z" fill="#B1B1B1"/>
<path d="M11.7391 7.82608H8.26083C8.02083 7.82608 7.82605 8.02043 7.82605 8.26086C7.82605 8.5013 8.02083 8.69565 8.26083 8.69565H11.7391C11.9791 8.69565 12.1739 8.5013 12.1739 8.26086C12.1739 8.02043 11.9791 7.82608 11.7391 7.82608Z" fill="#B1B1B1"/>
<path d="M11.7391 10.4348H8.26083C8.02083 10.4348 7.82605 10.6292 7.82605 10.8696C7.82605 11.11 8.02083 11.3044 8.26083 11.3044H11.7391C11.9791 11.3044 12.1739 11.11 12.1739 10.8696C12.1739 10.6292 11.9791 10.4348 11.7391 10.4348Z" fill="#B1B1B1"/>
</svg>
